<?xml version="1.0" encoding="UTF-8"?>
<svg width="35px" height="29px" viewBox="0 0 35 29" version="1.1" xmlns="http://www.w3.org/2000/svg" xmlns:xlink="http://www.w3.org/1999/xlink">
    <!-- Generator: sketchtool 54.1 (76490) - https://sketchapp.com -->
    <title>A39E9E4C-0969-4153-BD42-4EFF03F8521A</title>
    <desc>Created with sketchtool.</desc>
    <g id="Inicio-Produtos" stroke="none" stroke-width="1" fill="none" fill-rule="evenodd">
        <g id="Logado-EV-Produtos-Menu-Foto" transform="translate(-48.000000, -105.000000)">
            <g id="Group-11">
                <g id="Logo" transform="translate(23.000000, 77.000000)">
                    <g id="camera" transform="translate(27.000000, 30.000000)">
                        <path d="M31,22.2222222 C31,23.7563465 29.738257,25 28.1818182,25 L2.81818182,25 C1.26174298,25 3.12881034e-16,23.7563465 0,22.2222222 L0,6.94444444 C-1.56440517e-16,5.41032014 1.26174298,4.16666667 2.81818182,4.16666667 L8.45454545,4.16666667 L11.2727273,0 L19.7272727,0 L22.5454545,4.16666667 L28.1818182,4.16666667 C29.738257,4.16666667 31,5.41032014 31,6.94444444 L31,22.2222222 Z" id="Shape" stroke="#FFFFFF" stroke-width="2.805" stroke-linecap="round" stroke-linejoin="round"></path>
                        <path d="M15.5,19.4444444 C12.3871223,19.4444444 9.86363636,16.9571375 9.86363636,13.8888889 C9.86363636,10.8206403 12.3871223,8.33333333 15.5,8.33333333 C18.6128777,8.33333333 21.1363636,10.8206403 21.1363636,13.8888889 C21.1363636,16.9571375 18.6128777,19.4444444 15.5,19.4444444 Z M16.4742212,13.1373859 L16.4742212,10.4166667 L14.5328384,10.4166667 L14.5328384,13.1373859 L11.9772727,13.1373859 L11.9772727,14.9535181 L14.5328384,14.9535181 L14.5328384,17.7925295 L16.4742212,17.7925295 L16.4742212,14.9535181 L19.0227273,14.9535181 L19.0227273,13.1373859 L16.4742212,13.1373859 Z" id="Combined-Shape" fill="#FFFFFF"></path>
                    </g>
                </g>
            </g>
        </g>
    </g>
</svg>