<?xml version="1.0" encoding="UTF-8"?>
<svg width="38px" height="20px" viewBox="0 0 38 20" version="1.1" xmlns="http://www.w3.org/2000/svg" xmlns:xlink="http://www.w3.org/1999/xlink">
    <!-- Generator: sketchtool 54.1 (76490) - https://sketchapp.com -->
    <title>422F76A7-3350-49C2-A421-D5F1106AFB2B</title>
    <desc>Created with sketchtool.</desc>
    <g id="Inicio-Produtos" stroke="none" stroke-width="1" fill="none" fill-rule="evenodd">
        <g id="Logado-EV-Produtos-Menu-2" transform="translate(-20.000000, -392.000000)" fill="#FFFFFF" fill-rule="nonzero">
            <g id="Group-11">
                <g id="Menu" transform="translate(0.000000, 223.000000)">
                    <g id="Group-7" transform="translate(20.000000, 167.000000)">
                        <path d="M25.1502911,14.8312016 C27.4207942,13.5036727 30.2372587,13.2686456 32.7527917,14.2914771 C35.9289174,15.5829097 37.9998632,18.6252765 38,22 L36.6541321,22 C36.6541321,18.1275391 33.4448927,14.9771875 29.5000458,14.9771875 C28.2932382,14.9771875 27.1552738,15.2720197 26.1569733,15.792163 C27.6616252,17.4617584 28.5421613,19.6589047 28.5422545,22 L27.0742858,22 C27.0742858,17.6972656 23.5738951,14.196875 19.2711608,14.196875 C14.9684264,14.196875 11.4680358,17.6972656 11.4680358,22 C11.4680358,22 10.9786905,22 10,22 C9.99409065,19.7909416 10.7819345,17.6621833 12.2057638,15.994691 C11.1242768,15.3492003 9.85554801,14.9771875 8.49995415,14.9771875 C4.55510731,14.9771875 1.34586786,18.1275391 1.34586786,22 L-4.79616347e-14,22 C0.000136831039,18.6252765 2.07108255,15.5829097 5.24720829,14.2914771 C7.88031969,13.2208375 10.8431515,13.5283915 13.1644203,15.0244949 C15.8036921,12.7127627 19.545025,12.0788701 22.8190048,13.4349746 C23.6749934,13.7895308 24.4573851,14.2628659 25.1502911,14.8312016 Z M34.0125352,8.4296875 C34.0125352,10.8761364 31.9922249,12.859375 29.5000458,12.859375 C27.0092573,12.8560827 24.9909103,10.8747714 24.9875565,8.4296875 C24.9875565,5.98323865 27.0078668,4 29.5000458,4 C31.9922249,4 34.0125352,5.98323865 34.0125352,8.4296875 Z M32.6677417,8.42875005 C32.6676098,6.71147333 31.2494227,5.31941411 29.5000458,5.32117188 C27.7518127,5.32310809 26.3349154,6.71353429 26.33235,8.4296875 C26.3327455,10.1469642 27.7511464,11.5388135 29.5005233,11.5385547 C31.2499001,11.5382958 32.6678735,10.1460268 32.6677417,8.42875005 Z M3.9874648,8.4296875 C3.9874648,5.98323865 6.0077751,4 8.49995415,4 C10.9921332,4 13.0124435,5.98323865 13.0124435,8.4296875 C13.0090897,10.8747714 10.9907427,12.8560827 8.49995415,12.859375 C6.0077751,12.859375 3.9874648,10.8761364 3.9874648,8.4296875 Z M5.33225834,8.42875005 C5.33212652,10.1460268 6.75009988,11.5382958 8.49947675,11.5385547 C10.2488536,11.5388135 11.6672545,10.1469642 11.66765,8.4296875 C11.6650846,6.71353429 10.2481873,5.32310809 8.49995415,5.32117188 C6.75057726,5.31941411 5.33239017,6.71147333 5.33225834,8.42875005 Z M19.2711608,11.84375 C16.5544009,11.8400919 14.3529438,9.63863484 14.3492858,6.921875 C14.3492858,4.2035985 16.5528843,2 19.2711608,2 C21.9894373,2 24.1930358,4.2035985 24.1930358,6.921875 C24.1930358,9.6401515 21.9894373,11.84375 19.2711608,11.84375 Z M19.2711608,3.46601563 L19.2711608,3.46796875 C17.364323,3.4701201 15.8188809,5.01503809 15.8160826,6.921875 C15.8165141,8.8299602 17.3635963,10.3764595 19.2716815,10.3761718 C21.1797667,10.3758842 22.7263826,8.82891863 22.7262388,6.92083339 C22.726095,5.01274815 21.179246,3.46601567 19.2711608,3.46601563 Z" id="Clientes"></path>
                    </g>
                </g>
            </g>
        </g>
    </g>
</svg>