<svg xmlns="http://www.w3.org/2000/svg" xmlns:xlink="http://www.w3.org/1999/xlink" width="27" height="24" viewBox="0 0 27 24">
    <defs>
        <path id="a" d="M0 6.145a6.142 6.142 0 0 0 6.141 6.146c1.24 0 2.625-.455 3.647-1.162 0 0 3.175 2.798 4.872 4.314 1.092.977 2.279-.442 1.208-1.349-2.115-2-4.79-4.256-4.79-4.256.707-1.021 1.205-2.453 1.205-3.693A6.141 6.141 0 1 0 0 6.145z"/>
    </defs>
    <g fill="none" fill-rule="evenodd">
        <g transform="translate(0 .5)">
            <rect width="16.7" height="15.7" x=".65" y=".65" fill="#748591" stroke="#FFF" stroke-width="1.3" rx="3"/>
            <g transform="translate(3 4)">
                <path stroke="#FFF" stroke-linecap="round" stroke-linejoin="bevel" stroke-width="1.3" d="M3.66 1h7.663"/>
                <circle cx="1" cy="1" r="1" fill="#FFF"/>
            </g>
            <g transform="translate(3 7.8)">
                <path stroke="#FFF" stroke-linecap="round" stroke-linejoin="bevel" stroke-width="1.3" d="M3.66 1h7.663"/>
                <circle cx="1" cy="1" r="1" fill="#FFF"/>
            </g>
            <g transform="translate(3 11.5)">
                <path stroke="#FFF" stroke-linecap="round" stroke-linejoin="bevel" stroke-width="1.3" d="M3.66 1h7.663"/>
                <circle cx="1" cy="1" r="1" fill="#FFF"/>
            </g>
        </g>
        <g transform="translate(10 8)">
            <mask id="b" fill="#fff">
                <use xlink:href="#a"/>
            </mask>
            <path fill="#FEFEFE" d="M-5 21.069h26.401V-5H-5z" mask="url(#b)"/>
            <path fill="#748591" d="M1.693 6.145a4.454 4.454 0 0 1 4.448-4.45 4.454 4.454 0 0 1 4.449 4.45 4.455 4.455 0 0 1-4.449 4.451 4.455 4.455 0 0 1-4.448-4.451z" mask="url(#b)"/>
        </g>
    </g>
</svg>
