<?xml version="1.0" encoding="UTF-8"?>
<svg width="86px" height="28px" viewBox="0 0 86 28" version="1.1" xmlns="http://www.w3.org/2000/svg" xmlns:xlink="http://www.w3.org/1999/xlink">
    <title>13F3AD10-87F5-4A20-BC7E-D3BBD5C0EB7A</title>
    <g id="Fidelidade" stroke="none" stroke-width="1" fill="none" fill-rule="evenodd" stroke-linecap="round" stroke-linejoin="round">
        <g id="Fidelidade-1" transform="translate(-865.000000, -512.000000)" stroke="#748591">
            <g id="Group-7" transform="translate(221.000000, 459.000000)">
                <g id="Group" transform="translate(515.000000, 0.000000)">
                    <g id="fidel-icon" transform="translate(131.000000, 55.000000)">
                        <path d="M42.3021219,1.10068908 L45.1942966,6.75623847 C45.4063755,7.16956978 45.8145928,7.45649394 46.2879586,7.5227072 L52.7549803,8.42962832 C53.946365,8.59683354 54.42181,10.0093832 53.5596328,10.8199942 L48.8800346,15.2221732 C48.5376588,15.5438761 48.3817184,16.0080377 48.4628074,16.4621671 L49.5668654,22.6781884 C49.7706276,23.8232098 48.5251836,24.696021 47.4599374,24.1556137 L41.6762811,21.2208277 C41.2528163,21.0061362 40.7475694,21.0061362 40.3241046,21.2208277 L34.5397552,24.1556137 C33.474509,24.696021 32.2297581,23.8232098 32.4328272,22.6781884 L33.5375783,16.4621671 C33.6186673,16.0080377 33.4620338,15.5438761 33.1203511,15.2221732 L28.4400598,10.8199942 C27.5785757,10.0093832 28.0533276,8.59683354 29.2447123,8.42962832 L35.7124271,7.5227072 C36.1850998,7.45649394 36.5947032,7.16956978 36.805396,6.75623847 L39.6975707,1.10068908 C40.2305403,0.0593349683 41.7691523,0.0593349683 42.3021219,1.10068908 Z" id="Stroke-13" stroke-width="3"></path>
                        <path d="M11.0016322,6.58576169 L13.226382,10.8274237 C13.3895196,11.1374222 13.703533,11.3526153 14.0676605,11.4022753 L19.0422926,12.0824661 C19.9587423,12.20787 20.3244692,13.2672823 19.661256,13.8752405 L16.0615651,17.1768748 C15.7981991,17.4181519 15.6782449,17.7662732 15.7406211,18.1068702 L16.5898965,22.7688862 C16.7466366,23.6276522 15.7886027,24.2822606 14.9691826,23.8769552 L10.5202162,21.6758657 C10.1944741,21.514847 9.8058226,21.514847 9.48008043,21.6758657 L5.03058096,23.8769552 C4.2111608,24.2822606 3.25366007,23.6276522 3.40986704,22.7688862 L4.25967559,18.1068702 C4.32205175,17.7662732 4.20156446,17.4181519 3.93873158,17.1768748 L0.338507532,13.8752405 C-0.324172535,13.2672823 0.0410212271,12.20787 0.957470974,12.0824661 L5.93263621,11.4022753 C6.29623058,11.3526153 6.61131016,11.1374222 6.77338155,10.8274237 L8.99813129,6.58576169 C9.40810794,5.8047461 10.5916556,5.8047461 11.0016322,6.58576169 Z" id="Stroke-13-Copy" stroke-width="2.25"></path>
                        <path d="M73.0016322,6.58576169 L75.226382,10.8274237 C75.3895196,11.1374222 75.703533,11.3526153 76.0676605,11.4022753 L81.0422926,12.0824661 C81.9587423,12.20787 82.3244692,13.2672823 81.661256,13.8752405 L78.0615651,17.1768748 C77.7981991,17.4181519 77.6782449,17.7662732 77.7406211,18.1068702 L78.5898965,22.7688862 C78.7466366,23.6276522 77.7886027,24.2822606 76.9691826,23.8769552 L72.5202162,21.6758657 C72.1944741,21.514847 71.8058226,21.514847 71.4800804,21.6758657 L67.030581,23.8769552 C66.2111608,24.2822606 65.2536601,23.6276522 65.409867,22.7688862 L66.2596756,18.1068702 C66.3220517,17.7662732 66.2015645,17.4181519 65.9387316,17.1768748 L62.3385075,13.8752405 C61.6758275,13.2672823 62.0410212,12.20787 62.957471,12.0824661 L67.9326362,11.4022753 C68.2962306,11.3526153 68.6113102,11.1374222 68.7733816,10.8274237 L70.9981313,6.58576169 C71.4081079,5.8047461 72.5916556,5.8047461 73.0016322,6.58576169 Z" id="Stroke-13-Copy-2" stroke-width="2.25"></path>
                    </g>
                </g>
            </g>
        </g>
    </g>
</svg>