<?xml version="1.0" encoding="UTF-8"?>
<svg width="54px" height="54px" viewBox="0 0 54 54" version="1.1" xmlns="http://www.w3.org/2000/svg" xmlns:xlink="http://www.w3.org/1999/xlink">
    <title>4789FE2A-9A83-4528-9B56-41DE6B698A18</title>
    <g id="Fidelidade" stroke="none" stroke-width="1" fill="none" fill-rule="evenodd" stroke-linecap="round" stroke-linejoin="round">
        <g id="Fidelidade-5" transform="translate(-604.000000, -499.000000)" stroke="#E4002B" stroke-width="4">
            <g id="Group-7" transform="translate(459.000000, 459.000000)">
                <g id="Group">
                    <g id="Group-14" transform="translate(1.000000, 42.000000)">
                        <g id="fidel-icon" transform="translate(146.000000, 0.000000)">
                            <path d="M26.7687,8.5454 L30.9417,17.0014 C31.2477,17.6194 31.8367,18.0484 32.5197,18.1474 L41.8507,19.5034 C43.5697,19.7534 44.2557,21.8654 43.0117,23.0774 L36.2597,29.6594 C35.7657,30.1404 35.5407,30.8344 35.6577,31.5134 L37.2507,40.8074 C37.5447,42.5194 35.7477,43.8244 34.2107,43.0164 L25.8657,38.6284 C25.2547,38.3074 24.5257,38.3074 23.9147,38.6284 L15.5687,43.0164 C14.0317,43.8244 12.2357,42.5194 12.5287,40.8074 L14.1227,31.5134 C14.2397,30.8344 14.0137,30.1404 13.5207,29.6594 L6.7677,23.0774 C5.5247,21.8654 6.2097,19.7534 7.9287,19.5034 L17.2607,18.1474 C17.9427,18.0484 18.5337,17.6194 18.8377,17.0014 L23.0107,8.5454 C23.7797,6.9884 25.9997,6.9884 26.7687,8.5454 Z" id="Stroke-13"></path>
                            <line x1="25.0783" y1="1.3418" x2="25.0783" y2="0.4998" id="Stroke-15"></line>
                            <line x1="25.0783" y1="49.1133" x2="25.0783" y2="48.2713" id="Stroke-17"></line>
                            <line x1="49.4962" y1="25.3193" x2="48.3732" y2="25.3193" id="Stroke-19"></line>
                            <line x1="45.0275" y1="45.269" x2="43.3585" y2="43.6" id="Stroke-21"></line>
                            <line x1="43.0197" y1="7.3779" x2="41.3077" y2="9.0899" id="Stroke-23"></line>
                            <line x1="0.2843" y1="25.3193" x2="1.4073" y2="25.3193" id="Stroke-25"></line>
                            <line x1="4.7531" y1="45.269" x2="6.4221" y2="43.6" id="Stroke-27"></line>
                            <line x1="6.7609" y1="7.3779" x2="8.4729" y2="9.0899" id="Stroke-29"></line>
                        </g>
                    </g>
                </g>
            </g>
        </g>
    </g>
</svg>