<?xml version="1.0" encoding="UTF-8"?>
<svg width="26px" height="27px" viewBox="0 0 26 27" version="1.1" xmlns="http://www.w3.org/2000/svg" xmlns:xlink="http://www.w3.org/1999/xlink">
    <!-- Generator: sketchtool 64 (101010) - https://sketch.com -->
    <title>5A6E5996-4A39-4A11-A741-A119733D68A4</title>
    <desc>Created with sketchtool.</desc>
    <g id="Leads" stroke="none" stroke-width="1" fill="none" fill-rule="evenodd">
        <g id="Inicio-consulta-menu-leads-diretor/corretor" transform="translate(-45.000000, -455.000000)" fill="#FFFFFF" fill-rule="nonzero">
            <g id="Menu">
                <g id="IÌcones" transform="translate(32.000000, 269.000000)">
                    <g id="Icon-Corretores-Copy">
                        <g transform="translate(13.000000, 186.000000)">
                            <g id="gift">
                                <g id="Shape">
                                    <path d="M2.89556907,7.05787714 C1.10253402,7.05787714 0.120940206,8.07487714 0.120940206,9.84525429 L0.120940206,12.8963057 C0.120940206,14.3276914 0.722987629,15.2693743 1.92708247,15.5706943 L1.92708247,23.1418517 C1.92708247,25.5148997 3.31438351,26.7955971 5.78802887,26.7955971 L20.3025423,26.7955971 C22.7761876,26.7955971 24.1505155,25.5148997 24.1505155,23.1418517 L24.1505155,15.5706943 C25.3676907,15.2693743 25.9697113,14.3276914 25.9697113,12.8963057 L25.9697113,9.84525429 C25.9697113,8.07487714 25.0404124,7.05787714 23.1950021,7.05787714 L20.8391608,7.05787714 C21.5720928,6.35474571 22.0039876,5.43816 22.0039876,4.39603714 C22.0039876,1.89743143 19.9229959,0.101957143 17.3316,0.101957143 C15.3683856,0.101957143 13.7193155,1.16920286 13.0518392,3.06511714 C12.3712557,1.16920286 10.7221856,0.101957143 8.75897113,0.101957143 C6.16757526,0.101957143 4.08658351,1.89743143 4.08658351,4.39603714 C4.08658351,5.43816 4.50539794,6.35474571 5.2383299,7.05787714 L2.89556907,7.05787714 Z M9.83218144,7.05787714 C7.75121649,7.05787714 6.63873814,5.91528857 6.63873814,4.60949143 C6.63873814,3.30369429 7.62033196,2.48754857 8.99455258,2.48754857 C10.552033,2.48754857 11.7953959,3.69290571 11.7953959,5.57627143 L11.7953959,7.05787714 L9.83218144,7.05787714 Z M16.2583629,7.05787714 L14.2951753,7.05787714 L14.2951753,5.57627143 C14.2951753,3.69290571 15.5385381,2.48754857 17.0959918,2.48754857 C18.4702392,2.48754857 19.4387526,3.30369429 19.4387526,4.60949143 C19.4387526,5.91528857 18.3000866,7.05787714 16.2583629,7.05787714 Z M3.58923299,9.31790571 L11.7168598,9.31790571 L11.7168598,13.4236543 L3.58923299,13.4236543 C2.96102474,13.4236543 2.69925567,13.1725543 2.69925567,12.5698629 L2.69925567,10.1716971 C2.69925567,9.56903143 2.96102474,9.31790571 3.58923299,9.31790571 Z M22.5144186,9.31790571 C23.1426268,9.31790571 23.3913155,9.56903143 23.3913155,10.1716971 L23.3913155,12.5949857 C23.3913155,13.1976514 23.1426268,13.4236543 22.5144186,13.4236543 L14.3737113,13.4236543 L14.3737113,9.31790571 L22.5144186,9.31790571 Z M6.12830722,24.5104354 C5.09436495,24.5104354 4.51847835,23.9454242 4.51847835,22.9786277 L4.51847835,15.6837086 L11.7168598,15.6837086 L11.7168598,24.5104354 L6.12830722,24.5104354 Z M21.5720928,22.9786277 C21.5720928,23.9454242 20.9962062,24.5104354 19.9622639,24.5104354 L14.3737113,24.5104354 L14.3737113,15.6837086 L21.5720928,15.6837086 L21.5720928,22.9786277 Z"></path>
                                </g>
                            </g>
                        </g>
                    </g>
                </g>
            </g>
        </g>
    </g>
</svg>