<?xml version="1.0" encoding="UTF-8"?>
<svg width="40px" height="43px" viewBox="0 0 40 43" version="1.1" xmlns="http://www.w3.org/2000/svg" xmlns:xlink="http://www.w3.org/1999/xlink">
    <title>2C40861E-8096-447E-8E38-BFFD3FB325D6</title>
    <g id="Fidelidade" stroke="none" stroke-width="1" fill="none" fill-rule="evenodd" stroke-linecap="round" stroke-linejoin="round">
        <g id="Fidelidade-Menu-sem-rollover" transform="translate(-40.000000, -864.000000)" stroke="#FFFFFF">
            <g id="fidel-icon" transform="translate(40.000000, 864.000000)">
                <g>
                    <path d="M5.0191,37.90795 C7.4031,38.09895 9.5636,38.43295 11.1991,39.28545 C11.2676,39.32295 11.3376,39.36095 11.4071,39.39845 C11.4446,39.41895 11.4821,39.43895 11.5181,39.45995 C12.2206,39.83745 12.9621,40.21295 13.7351,40.58695 C15.9251,41.64695 17.7031,42.18745 19.8561,42.24845 C22.5021,42.32245 27.3406085,40.1479114 30.6511,38.15395 C37.4561,34.0551908 41.3391,32.2937599 39.3976,30.50095 C37.4561,28.7081401 31.4251507,32.9314386 26.9286507,35.2119386" id="Stroke-1" stroke-width="2"></path>
                    <path d="M13.37115,34.71485 C16.56465,34.96935 18.62165,35.88385 21.41715,36.83985 C24.27615,37.81735 26.10265,38.44085 26.57915,36.86085 C27.08065,35.19785 23.66015,32.66135 20.06765,31.21285 C17.47865,30.16885 15.65015,28.11085 13.23865,27.79435 C11.26265,27.53535 9.46165,28.00885 8.03215,28.47935 C6.91815,28.84635 5.93115,29.12335 5.01915,29.33035" id="Stroke-3" stroke-width="2"></path>
                    <path d="M35.3715081,29.5556419 C35.1452443,28.9292596 34.42705,28.70665 33.70155,28.708106 C31.75205,28.71065 28.1275184,31.5105533 25.3975184,33.2465533" id="Stroke-5" stroke-width="1.5"></path>
                    <path d="M30.5888,28.375816 C30.5888,27.8141869 29.6267128,27.8141869 29.3235439,27.877 C27.6198889,28.2299778 25.98905,29.7216057 23.4717371,31.59375" id="Stroke-7" stroke-width="1.5"></path>
                    <path d="M26.6282724,27.877 C25.2500615,27.237856 22.3709289,29.052074 20.9439338,30.6096352" id="Stroke-9" stroke-width="1.5"></path>
                    <path d="M4.63535,39.646 L0.63385,39.646 C0.42185,39.646 0.24985,39.4745 0.24985,39.262 L0.24985,28.2605 C0.24985,28.0485 0.42185,27.877 0.63385,27.877 L4.63535,27.877 C4.84735,27.877 5.01935,28.0485 5.01935,28.2605 L5.01935,39.262 C5.01935,39.4745 4.84735,39.646 4.63535,39.646 Z" id="Stroke-11" stroke-width="2"></path>
                    <path d="M20.88435,4.2727 L22.97085,8.5007 C23.12385,8.8097 23.41835,9.0242 23.75985,9.0737 L28.42535,9.7517 C29.28485,9.8767 29.62785,10.9327 29.00585,11.5387 L25.62985,14.8297 C25.38285,15.0702 25.27035,15.4172 25.32885,15.7567 L26.12535,20.4037 C26.27235,21.2597 25.37385,21.9122 24.60535,21.5082 L20.43285,19.3142 C20.12735,19.1537 19.76285,19.1537 19.45735,19.3142 L15.28435,21.5082 C14.51585,21.9122 13.61785,21.2597 13.76435,20.4037 L14.56135,15.7567 C14.61985,15.4172 14.50685,15.0702 14.26035,14.8297 L10.88385,11.5387 C10.26235,10.9327 10.60485,9.8767 11.46435,9.7517 L16.13035,9.0737 C16.47135,9.0242 16.76685,8.8097 16.91885,8.5007 L19.00535,4.2727 C19.38985,3.4942 20.49985,3.4942 20.88435,4.2727 Z" id="Stroke-13" stroke-width="2"></path>
                    <line x1="20.03915" y1="0.6709" x2="20.03915" y2="0.2499" id="Stroke-15" stroke-width="2"></line>
                    <line x1="20.03915" y1="24.55665" x2="20.03915" y2="24.13565" id="Stroke-17" stroke-width="2"></line>
                    <line x1="32.2481" y1="12.65965" x2="31.6866" y2="12.65965" id="Stroke-19" stroke-width="2"></line>
                    <line x1="30.01375" y1="22.6345" x2="29.17925" y2="21.8" id="Stroke-21" stroke-width="2"></line>
                    <line x1="29.00985" y1="3.68895" x2="28.15385" y2="4.54495" id="Stroke-23" stroke-width="2"></line>
                    <line x1="7.64215" y1="12.65965" x2="8.20365" y2="12.65965" id="Stroke-25" stroke-width="2"></line>
                    <line x1="9.87655" y1="22.6345" x2="10.71105" y2="21.8" id="Stroke-27" stroke-width="2"></line>
                    <line x1="10.88045" y1="3.68895" x2="11.73645" y2="4.54495" id="Stroke-29" stroke-width="2"></line>
                </g>
            </g>
        </g>
    </g>
</svg>