<svg xmlns="http://www.w3.org/2000/svg" xmlns:xlink="http://www.w3.org/1999/xlink" width="27" height="15" viewBox="0 0 27 15">
    <defs>
        <path id="a" d="M13.966 5.001A7.19 7.19 0 0 0 5.718.345C2.972.897.742 3.093.167 5.841c-.983 4.644 2.541 8.76 7.025 8.76a7.182 7.182 0 0 0 6.774-4.8h5.215v2.4c0 1.32 1.079 2.4 2.397 2.4a2.406 2.406 0 0 0 2.398-2.4v-2.4a2.406 2.406 0 0 0 2.398-2.4c0-1.32-1.079-2.4-2.398-2.4h-10.01zm-6.774 4.8a2.406 2.406 0 0 1-2.398-2.4c0-1.32 1.08-2.4 2.398-2.4a2.406 2.406 0 0 1 2.398 2.4c0 1.32-1.08 2.4-2.398 2.4z"/>
    </defs>
    <use fill="#DFE2E6" fill-rule="evenodd" transform="translate(.188 .2)" xlink:href="#a"/>
</svg>
