<?xml version="1.0" encoding="UTF-8"?>
<svg width="14px" height="18px" viewBox="0 0 14 18" version="1.1" xmlns="http://www.w3.org/2000/svg" xmlns:xlink="http://www.w3.org/1999/xlink">
    <!-- Generator: sketchtool 54.1 (76490) - https://sketchapp.com -->
    <title>81741B4D-DBF0-4B3B-A002-E19A1F96DA20</title>
    <desc>Created with sketchtool.</desc>
    <g id="Inicio-Produtos" stroke="none" stroke-width="1" fill="none" fill-rule="evenodd">
        <g id="Logado-EV-Produtos-Menu-2" transform="translate(-33.000000, -512.000000)" fill="#FFFFFF" fill-rule="nonzero">
            <g id="Group-11">
                <g id="Menu" transform="translate(0.000000, 223.000000)">
                    <g id="Group-9" transform="translate(33.000000, 285.000000)">
                        <path d="M4.02095772,9.47435515 L0.705871956,12.7933052 C0.315896688,13.1837351 0.315896688,13.8162649 0.705871956,14.2066948 L4.02095772,17.5256448 C4.28232714,17.7873189 4.70633768,17.7875659 4.96801176,17.5261965 C4.96819576,17.5260127 4.96837964,17.5258288 4.96856342,17.5256448 L4.96856342,17.5256448 C5.23032675,17.2635764 5.23032675,16.839003 4.96856342,16.5769345 L2.56537102,14.1709408 L10.3290592,14.1709408 C10.6996096,14.1709408 11,13.8705504 11,13.5 L11,13.5 C11,13.1294496 10.6996096,12.8290592 10.3290592,12.8290592 L2.56537102,12.8290592 L4.96856342,10.4230655 C5.23032675,10.160997 5.23032675,9.73642361 4.96856342,9.47435515 L4.96856342,9.47435515 C4.707194,9.21268106 4.28318347,9.21243408 4.02150938,9.47380349 C4.02132538,9.47398727 4.0211415,9.47417116 4.02095772,9.47435515 Z M2,4.64285714 L2,4.64285714 C2,4.99789734 2.28781695,5.28571429 2.64285714,5.28571429 L11.6666667,5.28571429 C12.2189514,5.28571429 12.6666667,5.73342954 12.6666667,6.28571429 L12.6666667,19.7142857 C12.6666667,20.2665705 12.2189514,20.7142857 11.6666667,20.7142857 L2.64285714,20.7142857 C2.28781695,20.7142857 2,21.0021027 2,21.3571429 L2,21.3571429 C2,21.7121831 2.28781695,22 2.64285714,22 L12,22 C13.1045695,22 14,21.1045695 14,20 L14,6 C14,4.8954305 13.1045695,4 12,4 L2.64285714,4 C2.28781695,4 2,4.28781695 2,4.64285714 Z" id="Shape-Copy-2"></path>
                    </g>
                </g>
            </g>
        </g>
    </g>
</svg>