<?xml version="1.0" encoding="UTF-8"?>
<svg width="38px" height="39px" viewBox="0 0 38 39" version="1.1" xmlns="http://www.w3.org/2000/svg" xmlns:xlink="http://www.w3.org/1999/xlink">
    <!-- Generator: sketchtool 61.2 (101010) - https://sketch.com -->
    <title>84C51034-FD14-463E-90B6-ED0F31A03F5C</title>
    <desc>Created with sketchtool.</desc>
    <defs>
        <polygon id="path-1" points="0 0.00022 16.28946 0.00022 16.28946 30.65282 0 30.65282"></polygon>
    </defs>
    <g id="Pós-Venda" stroke="none" stroke-width="1" fill="none" fill-rule="evenodd">
        <g id="Logado-EV-Consulta-pos-venda-menu" transform="translate(-40.000000, -522.000000)">
            <g id="Menu">
                <g id="Ícones" transform="translate(32.000000, 269.000000)">
                    <g id="Icon-Pos-Venda">
                        <g transform="translate(8.000000, 253.000000)">
                            <g id="Group-9">
                                <g id="Pré-proposta" transform="translate(14.000000, 14.000000)" stroke="#FFFFFF" stroke-width="2">
                                    <g id="Dados-2-2" transform="translate(0.570000, 0.673000)">
                                        <g id="Group-19-2-2">
                                            <g id="Grupo_9">
                                                <g id="Group-8" transform="translate(0.430000, 0.632000)">
                                                    <rect id="Rectangle-Copy-6-2-2" x="-5.86197757e-14" y="-5.5067062e-14" width="21.339" height="22.52" rx="10.6695"></rect>
                                                    <polyline id="Caminho_7" stroke-linecap="round" stroke-linejoin="round" points="7 10.7337352 9.71583677 15.695 15 7.695"></polyline>
                                                </g>
                                            </g>
                                        </g>
                                    </g>
                                </g>
                                <g id="Group-3">
                                    <mask id="mask-2" fill="white">
                                        <use xlink:href="#path-1"></use>
                                    </mask>
                                    <g id="Clip-2"></g>
                                    <path d="M6.81268601,30.65282 L6.81268601,26.92932 L5.80866,26.82152 C4.20816,26.47062 0.56936,25.24192 -0.00044,21.26652 L2.57796,21.26652 C2.89696,22.86372 4.10366,24.98892 8.26936,24.98892 C13.30516,24.98892 13.56036,21.82642 13.56036,21.19282 C13.56036,18.78272 11.81466,17.27902 7.89866,16.31652 C2.60766,15.01302 0.24816,12.94282 0.24816,9.60212 C0.24816,6.24492 3.12136,4.41012 5.81086,3.81282 L6.81268601,3.70502 L6.81268601,0.00022 L9.8469122,0.00022 L9.8469122,3.74462 L10.71026,3.86232 C13.55046,4.57292 15.39076,6.61452 15.73616,9.38652 L13.15996,9.38652 C12.82556,6.94782 11.14586,5.66412 8.26936,5.66412 C5.05406,5.66412 2.97726,7.19642 2.97726,9.56692 C2.97726,11.97922 5.23556,13.07592 8.62686,13.98012 C12.60666,15.03942 16.28946,16.64542 16.28946,21.17522 C16.28946,25.17702 12.81456,26.45082 10.74326,26.85342 L9.8469122,26.95242 L9.8469122,30.65282 L6.81268601,30.65282 Z" id="Fill-1" fill="#FFFFFF" mask="url(#mask-2)"></path>
                                </g>
                            </g>
                        </g>
                    </g>
                </g>
            </g>
        </g>
    </g>
</svg>