<svg xmlns="http://www.w3.org/2000/svg" xmlns:xlink="http://www.w3.org/1999/xlink" width="34" height="34" viewBox="0 0 34 34">
    <defs>
        <path id="prefix__a" d="M0 0L12 0 12 18 0 18z"/>
    </defs>
    <g fill="none" fill-rule="evenodd" transform="translate(2 2)">
        <circle cx="15" cy="15" r="15" stroke="#FFF" stroke-linecap="round" stroke-linejoin="round" stroke-width="2.5"/>
        <g transform="translate(9 6)">
            <mask id="prefix__b" fill="#fff">
                <use xlink:href="#prefix__a"/>
            </mask>
            <path fill="#FFF" d="M7.205 1.145v1.118h.593c2.305 0 4.195 1.77 4.195 3.928.157 1.63-2.545 1.63-2.389 0 0-.953-.789-1.682-1.806-1.682H4.202c-1.018 0-1.797.73-1.797 1.682s.78 1.684 1.797 1.684c1.267 0 2.567-.034 3.816.02 1.04.053 1.975.47 2.682 1.106.787.712 1.294 1.703 1.294 2.809 0 2.157-1.891 3.927-4.196 3.927h-.602v1.118c.014.621-.515 1.134-1.178 1.145-.681.013-1.237-.508-1.223-1.145v-1.118h-.593c-2.305 0-4.195-1.77-4.195-3.928-.157-1.63 2.545-1.63 2.389 0 0 .953.789 1.682 1.806 1.682h3.596c1.018 0 1.797-.73 1.797-1.682s-.78-1.684-1.797-1.684c-1.267 0-2.567.034-3.816-.02-1.04-.053-1.975-.47-2.682-1.106C.513 8.287.006 7.296.006 6.19c0-2.157 1.891-3.927 4.196-3.927h.602V1.145C4.791.524 5.32.01 5.982 0c.681-.012 1.236.508 1.223 1.145z" mask="url(#prefix__b)"/>
        </g>
    </g>
</svg>
