<svg xmlns="http://www.w3.org/2000/svg" xmlns:xlink="http://www.w3.org/1999/xlink" width="29" height="30" viewBox="0 0 29 30">
    <defs>
        <path id="a" d="M.027.06h21v28h-21z"/>
    </defs>
    <g fill="none" fill-rule="evenodd">
        <path fill="#748591" stroke="#748591" stroke-width=".2" d="M2.387 6.542h3.152c.573 0 1.04-.463 1.04-1.033V2.377h11.834v21.578H2.387V6.542zm2.991-1.26H2.754l2.624-2.559v2.56zM1 5.569v18.731c0 .57.466 1.033 1.04 1.033h16.72c.573 0 1.04-.463 1.04-1.033V2.033c0-.57-.467-1.033-1.04-1.033H5.599l-.202.2-.002.002-4.192 4.164-.002.002-.201.2z"/>
        <path fill="#748591" d="M16.928 9.862c0 .316-.26.574-.578.574H4.45a.577.577 0 0 1-.578-.574c0-.316.259-.574.577-.574H16.35c.319 0 .578.258.578.574M4.45 12.502h11.9c.319 0 .578.257.578.574 0 .316-.26.574-.578.574H4.45a.577.577 0 0 1-.578-.574c0-.317.259-.574.577-.574M4.45 15.716h11.9c.319 0 .578.257.578.573 0 .317-.26.574-.578.574H4.45a.576.576 0 0 1-.578-.574c0-.316.259-.573.577-.573"/>
        <g transform="translate(9.424 3.547)">
            <mask id="b" fill="#fff">
                <use xlink:href="#a"/>
            </mask>
            <path fill="#748591" stroke="#748591" stroke-width=".2" d="M18.354 2.28L11.49.454V1.88l6.172 1.643-5.622 20.842-6.106-1.625H.576l11.438 3.045a1.042 1.042 0 0 0 1.274-.73L19.09 3.545a1.033 1.033 0 0 0-.736-1.265" mask="url(#b)"/>
        </g>
        <path fill="#748591" d="M4.45 18.93h11.9c.319 0 .578.257.578.573 0 .316-.26.574-.578.574H4.45a.577.577 0 0 1-.578-.574c0-.316.259-.574.577-.574"/>
    </g>
</svg>
