<?xml version="1.0" encoding="UTF-8"?>
<svg width="18px" height="31px" viewBox="0 0 18 31" version="1.1" xmlns="http://www.w3.org/2000/svg" xmlns:xlink="http://www.w3.org/1999/xlink">
    <!-- Generator: sketchtool 54.1 (76490) - https://sketchapp.com -->
    <title>FCA93528-FF70-4439-8F9E-A87EE8EFE3DA</title>
    <desc>Created with sketchtool.</desc>
    <g id="Inicio-Produtos" stroke="none" stroke-width="1" fill="none" fill-rule="evenodd">
        <g id="Logado-EV-Produtos-Menu-2" transform="translate(-31.000000, -327.000000)" fill="#FFFFFF" stroke="#FFFFFF">
            <g id="Group-11">
                <g id="Menu" transform="translate(0.000000, 223.000000)">
                    <g id="Group-8" transform="translate(32.000000, 104.000000)">
                        <g id="Predinho">
                            <path d="M16.4178723,1.45891292 C16.4178723,1.22320438 16.4178723,0.878052805 15.8934997,0.878052805 C15.8934997,0.878052805 10.8245805,0.878052805 0.686742042,0.878052805 C0.451596972,0.878052805 0.261008239,1.0691711 0.261008239,1.30487963 L0.261008239,29.182297 L1.11247585,29.182297 L1.11247585,1.73170646 L15.5664047,1.73170646 L15.5664047,29.5320467 L0.261008239,29.5365943 L0.261650493,30.3902479 L16.4178723,30.3902479 L16.4178723,1.45891292 Z" id="Fill-1" stroke-width="0.6"></path>
                            <path d="M3.81073944,8.73925244 L6.78354366,8.73925244 L6.78354366,5.68649756 L3.81073944,5.68649756 L3.81073944,8.73925244 Z M3.65261127,9.32461341 L6.94167183,9.32461341 C7.17677676,9.32461341 7.36740563,9.13349512 7.36740563,8.89778659 L7.36740563,5.52792317 C7.36740563,5.29225488 7.17677676,5.10113659 6.94167183,5.10113659 L3.65261127,5.10113659 C3.41750634,5.10113659 3.22687746,5.29225488 3.22687746,5.52792317 L3.22687746,8.89778659 C3.22687746,9.13349512 3.41750634,9.32461341 3.65261127,9.32461341 L3.65261127,9.32461341 Z" id="Fill-4" stroke-width="0.5"></path>
                            <path d="M9.89556972,8.73925244 L12.8681732,8.73925244 L12.8681732,5.68649756 L9.89556972,5.68649756 L9.89556972,8.73925244 Z M9.73740141,9.32461341 L13.0263014,9.32461341 C13.2614063,9.32461341 13.4520352,9.13349512 13.4520352,8.89778659 L13.4520352,5.52792317 C13.4520352,5.29225488 13.2614063,5.10113659 13.0263014,5.10113659 L9.73740141,5.10113659 C9.50233662,5.10113659 9.31170775,5.29225488 9.31170775,5.52792317 L9.31170775,8.89778659 C9.31170775,9.13349512 9.50233662,9.32461341 9.73740141,9.32461341 L9.73740141,9.32461341 Z" id="Fill-6" stroke-width="0.5"></path>
                            <path d="M3.80921408,14.5101073 L6.78201831,14.5101073 L6.78201831,11.4573524 L3.80921408,11.4573524 L3.80921408,14.5101073 Z M3.22535211,14.6686012 C3.22535211,14.90435 3.41598099,15.095428 3.65108592,15.095428 L6.94014648,15.095428 C7.17525141,15.095428 7.36588028,14.90435 7.36588028,14.6686012 L7.36588028,11.2988183 C7.36588028,11.0630695 7.17525141,10.8719512 6.94014648,10.8719512 L3.65108592,10.8719512 C3.41598099,10.8719512 3.22535211,11.0630695 3.22535211,11.2988183 L3.22535211,14.6686012 Z" id="Fill-7" stroke-width="0.5"></path>
                            <path d="M3.80921408,20.4125463 L6.78201831,20.4125463 L6.78201831,17.3597915 L3.80921408,17.3597915 L3.80921408,20.4125463 Z M3.22535211,20.5710402 C3.22535211,20.806789 3.41598099,20.9978671 3.65108592,20.9978671 L6.94014648,20.9978671 C7.17525141,20.9978671 7.36588028,20.806789 7.36588028,20.5710402 L7.36588028,17.2012573 C7.36588028,16.9655085 7.17525141,16.7743902 6.94014648,16.7743902 L3.65108592,16.7743902 C3.41598099,16.7743902 3.22535211,16.9655085 3.22535211,17.2012573 L3.22535211,20.5710402 Z" id="Fill-7" stroke-width="0.5"></path>
                            <path d="M3.80921408,26.0466927 L6.78201831,26.0466927 L6.78201831,22.9939378 L3.80921408,22.9939378 L3.80921408,26.0466927 Z M3.22535211,26.2051866 C3.22535211,26.4409354 3.41598099,26.6320134 3.65108592,26.6320134 L6.94014648,26.6320134 C7.17525141,26.6320134 7.36588028,26.4409354 7.36588028,26.2051866 L7.36588028,22.8354037 C7.36588028,22.5996549 7.17525141,22.4085366 6.94014648,22.4085366 L3.65108592,22.4085366 C3.41598099,22.4085366 3.22535211,22.5996549 3.22535211,22.8354037 L3.22535211,26.2051866 Z" id="Fill-7" stroke-width="0.5"></path>
                            <path d="M9.89556972,14.6063573 L12.8681732,14.6063573 L12.8681732,11.5536024 L9.89556972,11.5536024 L9.89556972,14.6063573 Z M9.31170775,14.7648512 C9.31170775,15.0006 9.50233662,15.191678 9.73740141,15.191678 L13.0263014,15.191678 C13.2614063,15.191678 13.4520352,15.0006 13.4520352,14.7648512 L13.4520352,11.3950683 C13.4520352,11.1593195 13.2614063,10.9682012 13.0263014,10.9682012 L9.73740141,10.9682012 C9.50233662,10.9682012 9.31170775,11.1593195 9.31170775,11.3950683 L9.31170775,14.7648512 Z" id="Fill-8" stroke-width="0.5"></path>
                            <path d="M9.89556972,20.3738183 L12.8681732,20.3738183 L12.8681732,17.3212646 L9.89556972,17.3212646 L9.89556972,20.3738183 Z M9.31170775,20.5323524 C9.31170775,20.7680207 9.50233662,20.959139 9.73740141,20.959139 L13.0263014,20.959139 C13.2614063,20.959139 13.4520352,20.7680207 13.4520352,20.5323524 L13.4520352,17.1627305 C13.4520352,16.9269817 13.2614063,16.7358634 13.0263014,16.7358634 L9.73740141,16.7358634 C9.50233662,16.7358634 9.31170775,16.9269817 9.31170775,17.1627305 L9.31170775,20.5323524 Z" id="Fill-9" stroke-width="0.5"></path>
                            <path d="M9.96414366,26.0466122 L12.9367472,26.0466122 L12.9367472,22.9938976 L9.96414366,22.9938976 L9.96414366,26.0466122 Z M9.38028169,26.2051866 C9.38028169,26.4409354 9.57091056,26.6320134 9.80597535,26.6320134 L13.0948754,26.6320134 C13.3299803,26.6320134 13.5206092,26.4409354 13.5206092,26.2051866 L13.5206092,22.8353634 C13.5206092,22.5996146 13.3299803,22.4085366 13.0948754,22.4085366 L9.80597535,22.4085366 C9.57091056,22.4085366 9.38028169,22.5996146 9.38028169,22.8353634 L9.38028169,26.2051866 Z" id="Fill-10" stroke-width="0.5"></path>
                        </g>
                    </g>
                </g>
            </g>
        </g>
    </g>
</svg>