<?xml version="1.0" encoding="UTF-8"?>
<svg width="37px" height="36px" viewBox="0 0 37 36" version="1.1" xmlns="http://www.w3.org/2000/svg" xmlns:xlink="http://www.w3.org/1999/xlink">
    <!-- Generator: sketchtool 54.1 (76490) - https://sketchapp.com -->
    <title>21DBA448-9104-47A5-95F7-04AC7938638F</title>
    <desc>Created with sketchtool.</desc>
    <g id="Symbols" stroke="none" stroke-width="1" fill="none" fill-rule="evenodd">
        <g id="Rodape-cinza-menor" transform="translate(-40.000000, -17.000000)">
            <g id="Group-36" transform="translate(40.000000, 17.000000)">
                <path d="M0.529496429,17.7791226 C0.529496429,27.598529 8.5700909,35.559871 18.4787591,35.559871 C28.3869584,35.559871 36.4247395,27.598529 36.4247395,17.7791226 C36.4247395,7.96296774 28.3869584,0.000232258065 18.4787591,0.000232258065 C8.5700909,0.000232258065 0.529496429,7.96296774 0.529496429,17.7791226 Z" id="Path" fill="#EC1D24"></path>
                <path d="M18.4778213,13.3313806 L4.77767615,15.5434065 L4.77767615,12.6048774 C4.77767615,11.4296516 5.10637085,11.367871 6.0338432,11.0278452 L18.4778213,6.77101935 L30.9217994,11.0278452 C31.8497407,11.367871 32.1765598,11.4296516 32.1765598,12.6048774 L32.1765598,15.5434065 L18.4778213,13.3313806 Z" id="Path" fill="#FFFFFF"></path>
                <path d="M24.3333697,27.2162323 C24.3333697,28.2488516 24.2545955,28.6134968 22.9224676,28.6134968 L14.0317683,28.6134968 C12.7001093,28.6134968 12.6203974,28.2488516 12.6203974,27.2162323 L12.6203974,15.1843355 L24.3333697,15.1843355 L24.3333697,27.2162323 Z" id="Path" fill="#FFFFFF"></path>
            </g>
        </g>
    </g>
</svg>