<?xml version="1.0" encoding="UTF-8"?>
<svg width="19px" height="20px" viewBox="0 0 19 20" version="1.1" xmlns="http://www.w3.org/2000/svg" xmlns:xlink="http://www.w3.org/1999/xlink">
    <!-- Generator: sketchtool 54.1 (76490) - https://sketchapp.com -->
    <title>8D03B6C4-565C-4EA2-B0BB-ECB471F5E670</title>
    <desc>Created with sketchtool.</desc>
    <g id="Inicio-Produtos" stroke="none" stroke-width="1" fill="none" fill-rule="evenodd">
        <g id="Logado-EV-Produtos-Menu-4" transform="translate(-31.000000, -271.000000)" fill="#FFFFFF" fill-rule="nonzero">
            <g id="Group-11">
                <g id="Menu" transform="translate(0.000000, 268.000000)">
                    <g id="Group-6" transform="translate(30.999967, 0.000000)">
                        <path d="M9.27119377,12.8469183 C11.9894703,12.8469183 14.1930688,10.6433198 14.1930688,7.92504328 C14.1930688,5.20676677 11.9894703,3.00316828 9.27119377,3.00316828 C6.55291727,3.00316828 4.34931877,5.20676677 4.34931877,7.92504328 C4.35297684,10.6418031 6.55443393,12.8432602 9.27119377,12.8469183 L9.27119377,12.8469183 Z M10.4440301,15.2879942 L11.300033,17 L9.300033,23 L7.300033,17 L8.16061928,15.2788275 C4.38200041,15.8195265 1.46806877,19.0773883 1.46806877,23.0031683 C1.46806877,23.0031683 0.978723514,23.0031683 3.30037086e-05,23.0031683 C-0.00654802431,20.5430215 0.971319788,18.1824666 2.71572502,16.4476995 C5.3672328,13.796341 9.35476508,13.0032177 12.8190378,14.4381428 C16.2833106,15.8730679 18.5421383,19.2534755 18.5422875,23.0031683 L17.0743188,23.0031683 C17.0743188,19.0989778 14.1923489,15.8553794 10.4440301,15.2879942 Z M9.27119377,4.4691839 C11.179279,4.46918395 12.726128,6.01591643 12.7262718,7.92400167 C12.7264156,9.83208691 11.1797997,11.3790525 9.27171448,11.3793401 C7.36362926,11.3796277 5.81654709,9.83312848 5.81611564,7.92504328 C5.81891385,6.01820637 7.36435602,4.47328838 9.27119377,4.47113703 L9.27119377,4.4691839 Z" id="Usuarios"></path>
                    </g>
                </g>
            </g>
        </g>
    </g>
</svg>