<svg width="14" height="14" viewBox="0 0 14 14" xmlns="http://www.w3.org/2000/svg">
<path class="icon-circulo-seta-direita" d="M6.99992 13.6667C3.3197 13.6626 0.337294 10.6802 0.333252 6.99999V6.86666C0.40654 3.20301 3.42298 0.285296 7.08703 0.333912C10.7511 0.382528 13.6891 3.37925 13.6651 7.04355C13.6412 10.7079 10.6643 13.6659 6.99992 13.6667ZM6.99992 1.66666C4.0544 1.66666 1.66659 4.05447 1.66659 6.99999C1.66659 9.94551 4.0544 12.3333 6.99992 12.3333C9.94544 12.3333 12.3333 9.94551 12.3333 6.99999C12.3299 4.05584 9.94407 1.66996 6.99992 1.66666ZM6.99992 10.3333L6.05992 9.39332L7.77992 7.66666H3.66659V6.33332H7.77992L6.05992 4.60666L6.99992 3.66666L10.3333 6.99999L6.99992 10.3333Z"/>
</svg>
