<svg width="42" height="26" viewBox="0 0 42 26" fill="none" xmlns="http://www.w3.org/2000/svg">
<path fill-rule="evenodd" clip-rule="evenodd" d="M23.4364 26H13.5294C6.1117 26 0 20.3099 0 12.9983C0 5.68855 6.14754 0 13.5294 0H23.4364V4H14.8701C10.7391 4 4.5 6.5 4.5 12.9983C4.5 19 10.3513 22 14.7998 22H23.4364V26ZM28.5088 0C32.5524 0 36.2195 1.58381 38.7835 4.15248C40.7852 6.1579 42 9.37784 42 13.0018C42 16.6257 40.4984 20.1268 38.7545 21.864C36.1858 24.4229 32.5248 26 28.5088 26H26V21.864H27.123C31.3931 21.864 38 19.5 38 13.0018C38 7 31.7939 4.15248 27.1956 4.15248H26V0H28.5088Z" fill="#96348B"/>
</svg>
