<svg xmlns="http://www.w3.org/2000/svg" width="16" height="22" viewBox="0 0 16 22">
    <g fill="none" fill-rule="evenodd">
        <g fill="#003D62">
            <g>
                <g>
                    <path d="M14 7.5h-1v-2c0-2.76-2.24-5-5-5s-5 2.24-5 5v2H2c-1.1 0-2 .9-2 2v10c0 1.1.9 2 2 2h12c1.1 0 2-.9 2-2v-10c0-1.1-.9-2-2-2zm-6 9c-1.1 0-2-.9-2-2s.9-2 2-2 2 .9 2 2-.9 2-2 2zm-3-11v2h6v-2c0-1.66-1.34-3-3-3s-3 1.34-3 3z" transform="translate(-181 -317) translate(24 287) translate(157 30)"/>
                </g>
            </g>
        </g>
    </g>
</svg>
