<svg width="80" height="80" viewBox="0 0 80 80" fill="none" xmlns="http://www.w3.org/2000/svg">
<path fill-rule="evenodd" clip-rule="evenodd" d="M33.361 23.6907V37.7045C33.361 38.2692 33.8024 38.7269 34.3471 38.7269H45.9951C46.5396 38.7269 46.9812 38.2692 46.9812 37.7045V23.6497C46.9812 23.3436 46.7837 23.0752 46.4989 22.9943L40.486 21.285C40.2798 21.2262 40.0622 21.2262 39.8561 21.285L33.8812 22.9835C33.5739 23.0709 33.361 23.3603 33.361 23.6907ZM40.5305 19.3692L55.2943 23.5205C55.7308 23.6432 56.1605 23.3026 56.1605 22.834V18.7197C56.1605 18.0656 55.7598 17.4832 55.1628 17.2702L40.6182 12.0776C40.3284 11.9743 40.0142 11.974 39.7246 12.0775C37.5742 12.8454 28.2644 16.1701 25.1782 17.2711C24.5815 17.4841 24.1816 18.0659 24.1816 18.72V22.834C24.1816 23.3026 24.6114 23.6432 25.0478 23.5205L39.8117 19.3692C40.047 19.3031 40.2951 19.3031 40.5305 19.3692Z" fill="#003E62"/>
<path d="M2.62338 51.576H6.44738C7.29004 51.576 7.98338 51.6667 8.52738 51.848C9.08204 52.0293 9.51404 52.2747 9.82338 52.584C10.1434 52.8933 10.362 53.256 10.4794 53.672C10.6074 54.0773 10.6714 54.5093 10.6714 54.968C10.6714 55.448 10.6074 55.9067 10.4794 56.344C10.3514 56.7813 10.1274 57.1653 9.80737 57.496C9.48738 57.8267 9.05538 58.088 8.51138 58.28C7.96738 58.472 7.27938 58.568 6.44738 58.568H4.07938V63H2.62338V51.576ZM6.43138 57.32C6.98604 57.32 7.44471 57.2667 7.80738 57.16C8.17004 57.0533 8.45271 56.8987 8.65538 56.696C8.85804 56.4933 8.99671 56.2533 9.07138 55.976C9.15671 55.688 9.19938 55.368 9.19938 55.016C9.19938 54.6533 9.15671 54.3333 9.07138 54.056C8.98604 53.7787 8.83671 53.5493 8.62338 53.368C8.41004 53.1867 8.12204 53.0533 7.75938 52.968C7.40738 52.872 6.95938 52.824 6.41538 52.824H4.07938V57.32H6.43138ZM15.5965 63.256C14.9672 63.256 14.4072 63.1547 13.9165 62.952C13.4258 62.7493 13.0098 62.4613 12.6685 62.088C12.3272 61.7147 12.0658 61.256 11.8845 60.712C11.7032 60.168 11.6125 59.56 11.6125 58.888C11.6125 58.216 11.7085 57.608 11.9005 57.064C12.0925 56.52 12.3645 56.056 12.7165 55.672C13.0685 55.288 13.4898 54.9947 13.9805 54.792C14.4818 54.5787 15.0365 54.472 15.6445 54.472C16.2632 54.472 16.8178 54.5733 17.3085 54.776C17.7992 54.9787 18.2152 55.272 18.5565 55.656C18.9085 56.0293 19.1752 56.4827 19.3565 57.016C19.5378 57.5493 19.6285 58.152 19.6285 58.824C19.6285 59.5067 19.5325 60.12 19.3405 60.664C19.1592 61.208 18.8925 61.672 18.5405 62.056C18.1992 62.44 17.7778 62.7387 17.2765 62.952C16.7752 63.1547 16.2152 63.256 15.5965 63.256ZM15.6125 62.104C16.0605 62.104 16.4445 62.024 16.7645 61.864C17.0845 61.704 17.3458 61.48 17.5485 61.192C17.7618 60.904 17.9165 60.5627 18.0125 60.168C18.1085 59.7627 18.1565 59.32 18.1565 58.84C18.1565 58.3707 18.1085 57.9387 18.0125 57.544C17.9165 57.1493 17.7618 56.8133 17.5485 56.536C17.3458 56.248 17.0845 56.024 16.7645 55.864C16.4445 55.704 16.0605 55.624 15.6125 55.624C15.1645 55.624 14.7805 55.704 14.4605 55.864C14.1512 56.024 13.8898 56.248 13.6765 56.536C13.4738 56.8133 13.3245 57.1493 13.2285 57.544C13.1325 57.9387 13.0845 58.376 13.0845 58.856C13.0845 59.336 13.1325 59.7733 13.2285 60.168C13.3245 60.5627 13.4738 60.904 13.6765 61.192C13.8792 61.48 14.1405 61.704 14.4605 61.864C14.7805 62.024 15.1645 62.104 15.6125 62.104ZM21.4939 54.728H22.8699V56.008C23.1792 55.5493 23.5419 55.1973 23.9579 54.952C24.3739 54.7067 24.8165 54.584 25.2859 54.584C25.5739 54.584 25.8192 54.6053 26.0219 54.648L25.8459 55.944C25.7392 55.9227 25.6325 55.9067 25.5259 55.896C25.4192 55.8747 25.3019 55.864 25.1739 55.864C24.9179 55.864 24.6565 55.912 24.3899 56.008C24.1232 56.0933 23.8725 56.2427 23.6379 56.456C23.4032 56.6587 23.2165 56.8933 23.0779 57.16C22.9499 57.4267 22.8859 57.736 22.8859 58.088V63H21.4939V54.728ZM28.2395 55.832H26.9595V54.728H28.2395V52.472H29.6315V54.728H31.8235V55.832H29.6315V60.68C29.6315 61.0853 29.7222 61.4107 29.9035 61.656C30.0848 61.9013 30.3622 62.024 30.7355 62.024C30.9702 62.024 31.1728 62.008 31.3435 61.976C31.5248 61.944 31.6902 61.9013 31.8395 61.848L32.0795 62.92C31.8662 62.9947 31.6315 63.0533 31.3755 63.096C31.1302 63.1493 30.8368 63.176 30.4955 63.176C30.0262 63.176 29.6475 63.1067 29.3595 62.968C29.0715 62.8293 28.8422 62.632 28.6715 62.376C28.5008 62.12 28.3835 61.816 28.3195 61.464C28.2662 61.112 28.2395 60.728 28.2395 60.312V55.832ZM38.4584 61.864C38.1597 62.2267 37.781 62.5413 37.3224 62.808C36.8637 63.064 36.293 63.192 35.6104 63.192C35.1944 63.192 34.8104 63.1387 34.4584 63.032C34.117 62.936 33.8184 62.7867 33.5624 62.584C33.317 62.3707 33.125 62.1093 32.9864 61.8C32.8477 61.4907 32.7784 61.128 32.7784 60.712C32.7784 60.1467 32.8957 59.688 33.1304 59.336C33.3757 58.984 33.6957 58.7067 34.0904 58.504C34.4957 58.3013 34.949 58.1573 35.4504 58.072C35.9517 57.9867 36.469 57.9333 37.0024 57.912L38.4264 57.864V57.544C38.4264 56.84 38.277 56.3333 37.9784 56.024C37.6797 55.7147 37.1944 55.56 36.5224 55.56C35.861 55.56 35.3757 55.672 35.0664 55.896C34.757 56.1093 34.5544 56.408 34.4584 56.792L33.1944 56.648C33.3437 55.8907 33.701 55.3413 34.2664 55C34.8317 54.648 35.5997 54.472 36.5704 54.472C37.1677 54.472 37.669 54.5467 38.0744 54.696C38.4904 54.8347 38.8264 55.0373 39.0824 55.304C39.3384 55.5707 39.5197 55.9013 39.6264 56.296C39.7437 56.6907 39.8024 57.1333 39.8024 57.624V63H38.4584V61.864ZM38.4264 58.856L37.0984 58.904C36.533 58.9253 36.0637 58.9787 35.6904 59.064C35.317 59.1493 35.0184 59.2667 34.7944 59.416C34.581 59.5547 34.4264 59.7307 34.3304 59.944C34.245 60.1573 34.2024 60.4027 34.2024 60.68C34.2024 61.096 34.325 61.432 34.5704 61.688C34.8264 61.9333 35.2424 62.056 35.8184 62.056C36.6397 62.056 37.2797 61.8533 37.7384 61.448C38.197 61.0427 38.4264 60.488 38.4264 59.784V58.856ZM41.9478 51.576H43.3398V63H41.9478V51.576ZM49.264 51.576H50.736V61.688H56.656L56.432 63H49.264V51.576ZM61.6121 63.256C60.9828 63.256 60.4228 63.1547 59.9321 62.952C59.4415 62.7493 59.0255 62.4613 58.6841 62.088C58.3428 61.7147 58.0815 61.256 57.9001 60.712C57.7188 60.168 57.6281 59.56 57.6281 58.888C57.6281 58.216 57.7241 57.608 57.9161 57.064C58.1081 56.52 58.3801 56.056 58.7321 55.672C59.0841 55.288 59.5055 54.9947 59.9961 54.792C60.4975 54.5787 61.0521 54.472 61.6601 54.472C62.2788 54.472 62.8335 54.5733 63.3241 54.776C63.8148 54.9787 64.2308 55.272 64.5721 55.656C64.9241 56.0293 65.1908 56.4827 65.3721 57.016C65.5535 57.5493 65.6441 58.152 65.6441 58.824C65.6441 59.5067 65.5481 60.12 65.3561 60.664C65.1748 61.208 64.9081 61.672 64.5561 62.056C64.2148 62.44 63.7935 62.7387 63.2921 62.952C62.7908 63.1547 62.2308 63.256 61.6121 63.256ZM61.6281 62.104C62.0761 62.104 62.4601 62.024 62.7801 61.864C63.1001 61.704 63.3615 61.48 63.5641 61.192C63.7775 60.904 63.9321 60.5627 64.0281 60.168C64.1241 59.7627 64.1721 59.32 64.1721 58.84C64.1721 58.3707 64.1241 57.9387 64.0281 57.544C63.9321 57.1493 63.7775 56.8133 63.5641 56.536C63.3615 56.248 63.1001 56.024 62.7801 55.864C62.4601 55.704 62.0761 55.624 61.6281 55.624C61.1801 55.624 60.7961 55.704 60.4761 55.864C60.1668 56.024 59.9055 56.248 59.6921 56.536C59.4895 56.8133 59.3401 57.1493 59.2441 57.544C59.1481 57.9387 59.1001 58.376 59.1001 58.856C59.1001 59.336 59.1481 59.7733 59.2441 60.168C59.3401 60.5627 59.4895 60.904 59.6921 61.192C59.8948 61.48 60.1561 61.704 60.4761 61.864C60.7961 62.024 61.1801 62.104 61.6281 62.104ZM67.4935 51.576H68.9815V53.192H67.4935V51.576ZM65.3815 64.616C65.5308 64.6693 65.6962 64.7067 65.8775 64.728C66.0482 64.76 66.2455 64.776 66.4695 64.776C66.8642 64.776 67.1415 64.6693 67.3015 64.456C67.4615 64.2427 67.5415 63.912 67.5415 63.464V54.728H68.9335V63.096C68.9335 63.512 68.9015 63.896 68.8375 64.248C68.7735 64.6 68.6562 64.904 68.4855 65.16C68.3255 65.416 68.0962 65.6133 67.7975 65.752C67.5095 65.9013 67.1415 65.976 66.6935 65.976C66.3628 65.976 66.0748 65.9493 65.8295 65.896C65.5842 65.8533 65.3548 65.7947 65.1415 65.72L65.3815 64.616ZM76.2553 61.864C75.9566 62.2267 75.5779 62.5413 75.1193 62.808C74.6606 63.064 74.0899 63.192 73.4073 63.192C72.9913 63.192 72.6073 63.1387 72.2553 63.032C71.9139 62.936 71.6153 62.7867 71.3593 62.584C71.1139 62.3707 70.9219 62.1093 70.7833 61.8C70.6446 61.4907 70.5753 61.128 70.5753 60.712C70.5753 60.1467 70.6926 59.688 70.9273 59.336C71.1726 58.984 71.4926 58.7067 71.8873 58.504C72.2926 58.3013 72.7459 58.1573 73.2473 58.072C73.7486 57.9867 74.2659 57.9333 74.7993 57.912L76.2233 57.864V57.544C76.2233 56.84 76.0739 56.3333 75.7753 56.024C75.4766 55.7147 74.9913 55.56 74.3193 55.56C73.6579 55.56 73.1726 55.672 72.8633 55.896C72.5539 56.1093 72.3513 56.408 72.2553 56.792L70.9913 56.648C71.1406 55.8907 71.4979 55.3413 72.0633 55C72.6286 54.648 73.3966 54.472 74.3673 54.472C74.9646 54.472 75.4659 54.5467 75.8713 54.696C76.2873 54.8347 76.6233 55.0373 76.8793 55.304C77.1353 55.5707 77.3166 55.9013 77.4233 56.296C77.5406 56.6907 77.5993 57.1333 77.5993 57.624V63H76.2553V61.864ZM76.2233 58.856L74.8953 58.904C74.3299 58.9253 73.8606 58.9787 73.4873 59.064C73.1139 59.1493 72.8153 59.2667 72.5913 59.416C72.3779 59.5547 72.2233 59.7307 72.1273 59.944C72.0419 60.1573 71.9993 60.4027 71.9993 60.68C71.9993 61.096 72.1219 61.432 72.3673 61.688C72.6233 61.9333 73.0393 62.056 73.6153 62.056C74.4366 62.056 75.0766 61.8533 75.5353 61.448C75.9939 61.0427 76.2233 60.488 76.2233 59.784V58.856Z" fill="#003E62"/>
</svg>
