<svg xmlns="http://www.w3.org/2000/svg" width="24" height="16" viewBox="0 0 24 16">
    <g fill="none" fill-rule="evenodd">
        <g fill="#E4002B" fill-rule="nonzero">
            <g>
                <g>
                    <g>
                        <path d="M11.69.057C6.55.057 2.162 3.256.385 7.771c1.777 4.516 6.165 7.715 11.303 7.715 5.138 0 9.526-3.2 11.303-7.715C21.215 3.256 16.827.057 11.689.057zm0 12.857c-2.837 0-5.14-2.304-5.14-5.143 0-2.838 2.303-5.142 5.14-5.142 2.835 0 5.137 2.304 5.137 5.142 0 2.84-2.302 5.143-5.138 5.143zm0-8.228c-1.707 0-3.084 1.378-3.084 3.085 0 1.708 1.377 3.086 3.083 3.086 1.705 0 3.082-1.378 3.082-3.086 0-1.707-1.377-3.085-3.082-3.085z" transform="translate(-822 -473) translate(438 321) translate(0 104) translate(384 48)"/>
                    </g>
                </g>
            </g>
        </g>
    </g>
</svg>
