<svg width="20" height="15" viewBox="0 0 20 15" fill="none" xmlns="http://www.w3.org/2000/svg">
<path d="M10 14C8.35987 14.0204 6.7367 13.6664 5.254 12.965C4.10469 12.4042 3.07265 11.6298 2.213 10.683C1.30243 9.70412 0.585467 8.56166 0.1 7.316L0 7L0.105 6.684C0.590815 5.43943 1.30624 4.29727 2.214 3.317C3.07334 2.37032 4.10504 1.59586 5.254 1.035C6.73671 0.33359 8.35988 -0.0203872 10 1.76678e-06C11.6401 -0.020352 13.2633 0.333624 14.746 1.035C15.8953 1.59574 16.9274 2.3702 17.787 3.317C18.6993 4.29456 19.4165 5.43737 19.9 6.684L20 7L19.895 7.316C18.3262 11.3998 14.3742 14.0693 10 14ZM10 2C6.59587 1.89333 3.47142 3.8751 2.117 7C3.4712 10.1251 6.59579 12.107 10 12C13.4041 12.1064 16.5284 10.1247 17.883 7C16.5304 3.87358 13.4047 1.89108 10 2ZM10 10C8.55733 10.0096 7.30937 8.99736 7.02097 7.58378C6.73256 6.17019 7.48427 4.75003 8.81538 4.19366C10.1465 3.6373 11.6852 4.10014 12.4885 5.29851C13.2919 6.49688 13.1354 8.09608 12.115 9.116C11.5563 9.68126 10.7948 9.99957 10 10Z" fill="white"/>
</svg>
