<svg width="24" height="44" viewBox="0 0 24 44" fill="none" xmlns="http://www.w3.org/2000/svg">
<path d="M6.26864 14.0631C5.74109 14.0631 5.31342 14.4955 5.31342 15.0288V17.9259H7.22387V15.9945H9.13431V17.9259H11.0448V15.0288C11.0448 14.4955 10.6171 14.0631 10.0895 14.0631H6.26864Z" fill="#96348B"/>
<path d="M5.31342 22.7545C5.31342 22.2211 5.74109 21.7888 6.26864 21.7888H10.0895C10.6171 21.7888 11.0448 22.2211 11.0448 22.7545V25.6516H9.13431V23.7202H7.22387V25.6516H5.31342V22.7545Z" fill="#96348B"/>
<path d="M8.17909 39.1715C8.17909 38.6381 8.60676 38.2058 9.13431 38.2058H14.8657C15.3932 38.2058 15.8209 38.6381 15.8209 39.1715V44H13.9104V40.1372H10.0895V44H8.17909V39.1715Z" fill="#96348B"/>
<path d="M6.26864 29.5144C5.74109 29.5144 5.31342 29.9468 5.31342 30.4801V33.3772H7.22387V31.4458H9.13431V33.3772H11.0448V30.4801C11.0448 29.9468 10.6171 29.5144 10.0895 29.5144H6.26864Z" fill="#96348B"/>
<path d="M12.9552 22.7545C12.9552 22.2211 13.3829 21.7888 13.9104 21.7888H17.7313C18.2589 21.7888 18.6866 22.2211 18.6866 22.7545V25.6516H16.7761V23.7202H14.8657V25.6516H12.9552V22.7545Z" fill="#96348B"/>
<path d="M12.9552 15.0288C12.9552 14.4955 13.3829 14.0631 13.9104 14.0631H17.7313C18.2589 14.0631 18.6866 14.4955 18.6866 15.0288V17.9259H16.7761V15.9945H14.8657V17.9259H12.9552V15.0288Z" fill="#96348B"/>
<path d="M13.9104 29.5144C13.3829 29.5144 12.9552 29.9468 12.9552 30.4801V33.3772H14.8657V31.4458H16.7761V33.3772H18.6866V30.4801C18.6866 29.9468 18.2589 29.5144 17.7313 29.5144H13.9104Z" fill="#96348B"/>
<path fill-rule="evenodd" clip-rule="evenodd" d="M2.86563 1.50892C2.86563 0.675564 3.53386 0 4.35817 0H19.6417C20.4661 0 21.1343 0.675564 21.1343 1.50892V5.79428H22.5075C23.3318 5.79428 24 6.46984 24 7.3032V26.1948V44H21.0149V8.81211H2.98507V44H0V18.3484V7.3032C0 6.46985 0.668232 5.79428 1.49254 5.79428H2.86563V1.50892ZM5.8507 5.79428V3.01783H18.1492V5.79428H5.8507Z" fill="#96348B"/>
</svg>
