<svg width="41" height="33" viewBox="0 0 41 33" fill="none" xmlns="http://www.w3.org/2000/svg">
<path fill-rule="evenodd" clip-rule="evenodd" d="M20.9612 9.10038L39.8901 14.2251C40.4506 14.3774 41 13.9555 41 13.3777V8.297C41 7.48995 40.4873 6.77095 39.721 6.50682L21.0733 0.0962955C20.7021 -0.0320985 20.2997 -0.0320985 19.9267 0.0962955C17.1703 1.04458 5.23342 5.14952 1.27712 6.50866C0.512684 6.77278 0 7.48995 0 8.297V13.3759C0 13.9555 0.551273 14.3755 1.1099 14.2233L20.0388 9.09855C20.342 9.01784 20.6599 9.01784 20.9612 9.10038ZM11.7697 14.4361V31.7381C11.7697 32.4351 12.3356 33 13.0339 33H27.9679C28.6662 33 29.2322 32.4351 29.2322 31.7381V14.3847C29.2322 14.0069 28.9786 13.6749 28.6129 13.5758L20.9043 11.4647C20.6397 11.3913 20.3603 11.3913 20.0957 11.4647L12.4367 13.5612C12.0416 13.6694 11.7697 14.027 11.7697 14.4361Z" fill="white"/>
</svg>
