<svg width="64" height="64" viewBox="0 0 64 64" fill="none" xmlns="http://www.w3.org/2000/svg">
<g id="Clientes">
<g id="Grupo">
<path id="Clientes_2" d="M16.3341 49.108C16.2861 49.556 16.1781 49.968 16.0101 50.344C15.8421 50.72 15.6101 51.048 15.3141 51.328C15.0181 51.608 14.6581 51.828 14.2341 51.988C13.8101 52.14 13.3181 52.216 12.7581 52.216C12.1421 52.216 11.5901 52.112 11.1021 51.904C10.6221 51.696 10.2141 51.4 9.87809 51.016C9.55009 50.624 9.29809 50.152 9.12209 49.6C8.95409 49.04 8.87009 48.416 8.87009 47.728C8.87009 47.024 8.96209 46.392 9.14609 45.832C9.33809 45.272 9.60609 44.8 9.95009 44.416C10.2941 44.024 10.7061 43.728 11.1861 43.528C11.6661 43.32 12.1941 43.216 12.7701 43.216C13.3061 43.216 13.7701 43.284 14.1621 43.42C14.5541 43.556 14.8861 43.752 15.1581 44.008C15.4381 44.256 15.6581 44.556 15.8181 44.908C15.9861 45.26 16.1101 45.652 16.1901 46.084L14.7621 46.288C14.6981 46 14.6181 45.744 14.5221 45.52C14.4261 45.296 14.2981 45.108 14.1381 44.956C13.9861 44.796 13.7981 44.676 13.5741 44.596C13.3501 44.508 13.0821 44.464 12.7701 44.464C12.3861 44.464 12.0461 44.54 11.7501 44.692C11.4541 44.844 11.2021 45.064 10.9941 45.352C10.7941 45.632 10.6421 45.972 10.5381 46.372C10.4341 46.772 10.3821 47.22 10.3821 47.716C10.3821 48.22 10.4341 48.672 10.5381 49.072C10.6501 49.472 10.8101 49.816 11.0181 50.104C11.2261 50.384 11.4741 50.6 11.7621 50.752C12.0581 50.896 12.3941 50.968 12.7701 50.968C13.1061 50.968 13.3901 50.924 13.6221 50.836C13.8621 50.748 14.0621 50.624 14.2221 50.464C14.3821 50.304 14.5061 50.112 14.5941 49.888C14.6901 49.656 14.7581 49.396 14.7981 49.108H16.3341ZM20.4371 51.088C21.0131 51.088 21.4331 50.892 21.6971 50.5C21.9691 50.1 22.1051 49.556 22.1051 48.868C22.1051 48.188 21.9691 47.652 21.6971 47.26C21.4331 46.868 21.0131 46.672 20.4371 46.672C19.8611 46.672 19.4371 46.872 19.1651 47.272C18.9011 47.664 18.7691 48.196 18.7691 48.868C18.7691 49.548 18.8971 50.088 19.1531 50.488C19.4171 50.888 19.8451 51.088 20.4371 51.088ZM20.4251 52.192C19.4491 52.192 18.6931 51.904 18.1571 51.328C17.6211 50.752 17.3531 49.936 17.3531 48.88C17.3531 48.384 17.4211 47.932 17.5571 47.524C17.7011 47.116 17.9051 46.768 18.1691 46.48C18.4331 46.192 18.7571 45.968 19.1411 45.808C19.5251 45.648 19.9611 45.568 20.4491 45.568C20.9451 45.568 21.3851 45.652 21.7691 45.82C22.1531 45.98 22.4731 46.204 22.7291 46.492C22.9931 46.78 23.1891 47.128 23.3171 47.536C23.4531 47.936 23.5211 48.376 23.5211 48.856C23.5211 49.4 23.4451 49.88 23.2931 50.296C23.1411 50.704 22.9251 51.052 22.6451 51.34C22.3731 51.62 22.0491 51.832 21.6731 51.976C21.2971 52.12 20.8811 52.192 20.4251 52.192ZM26.2016 45.76V46.672C26.4816 46.288 26.7936 46.008 27.1376 45.832C27.4896 45.656 27.8656 45.568 28.2656 45.568C29.6576 45.568 30.3536 46.336 30.3536 47.872V52H28.9856V48.088C28.9856 47.584 28.8936 47.232 28.7096 47.032C28.5256 46.824 28.2536 46.72 27.8936 46.72C27.6536 46.72 27.4296 46.764 27.2216 46.852C27.0216 46.932 26.8496 47.044 26.7056 47.188C26.5616 47.332 26.4456 47.5 26.3576 47.692C26.2776 47.876 26.2376 48.072 26.2376 48.28V52H24.8816V45.76H26.2016ZM37.3982 50.152C37.2862 50.8 37.0102 51.304 36.5702 51.664C36.1302 52.016 35.4982 52.192 34.6742 52.192C33.6822 52.192 32.9262 51.908 32.4062 51.34C31.8942 50.764 31.6382 49.956 31.6382 48.916C31.6382 48.38 31.7102 47.904 31.8542 47.488C32.0062 47.072 32.2142 46.724 32.4782 46.444C32.7502 46.156 33.0702 45.94 33.4382 45.796C33.8142 45.644 34.2262 45.568 34.6742 45.568C35.1542 45.568 35.5702 45.644 35.9222 45.796C36.2742 45.94 36.5662 46.148 36.7982 46.42C37.0302 46.684 37.2022 47.004 37.3142 47.38C37.4262 47.748 37.4822 48.16 37.4822 48.616V49.216H33.0062C33.0222 49.784 33.1662 50.244 33.4382 50.596C33.7102 50.948 34.1222 51.124 34.6742 51.124C35.1062 51.124 35.4302 51.04 35.6462 50.872C35.8622 50.704 36.0062 50.464 36.0782 50.152H37.3982ZM36.1502 48.268C36.1502 47.756 36.0302 47.352 35.7902 47.056C35.5502 46.76 35.1662 46.612 34.6382 46.612C34.1342 46.612 33.7502 46.764 33.4862 47.068C33.2222 47.364 33.0702 47.764 33.0302 48.268H36.1502ZM44.3112 49.816C44.2312 50.56 43.9632 51.144 43.5072 51.568C43.0592 51.984 42.4152 52.192 41.5752 52.192C41.0712 52.192 40.6312 52.116 40.2552 51.964C39.8872 51.804 39.5792 51.58 39.3312 51.292C39.0832 51.004 38.8992 50.66 38.7792 50.26C38.6592 49.852 38.5992 49.4 38.5992 48.904C38.5992 48.408 38.6672 47.956 38.8032 47.548C38.9392 47.132 39.1352 46.78 39.3912 46.492C39.6552 46.196 39.9752 45.968 40.3512 45.808C40.7272 45.648 41.1552 45.568 41.6352 45.568C42.0752 45.568 42.4472 45.628 42.7512 45.748C43.0552 45.86 43.3072 46.016 43.5072 46.216C43.7072 46.408 43.8632 46.632 43.9752 46.888C44.0872 47.144 44.1672 47.412 44.2152 47.692L42.8592 47.896C42.7952 47.544 42.6712 47.252 42.4872 47.02C42.3112 46.788 42.0112 46.672 41.5872 46.672C41.2832 46.672 41.0312 46.736 40.8312 46.864C40.6312 46.992 40.4712 47.16 40.3512 47.368C40.2312 47.568 40.1432 47.8 40.0872 48.064C40.0392 48.328 40.0152 48.596 40.0152 48.868C40.0152 49.18 40.0432 49.472 40.0992 49.744C40.1552 50.016 40.2432 50.252 40.3632 50.452C40.4832 50.644 40.6432 50.8 40.8432 50.92C41.0432 51.032 41.2872 51.088 41.5752 51.088C41.9912 51.088 42.3072 50.98 42.5232 50.764C42.7392 50.54 42.8752 50.224 42.9312 49.816H44.3112ZM44.9766 46.84V45.76H45.9606V44.08H47.3166V45.76H48.8646V46.84H47.3166V50.104C47.3166 50.424 47.3806 50.656 47.5086 50.8C47.6446 50.944 47.8406 51.016 48.0966 51.016C48.2326 51.016 48.3606 51.008 48.4806 50.992C48.6086 50.976 48.7326 50.948 48.8526 50.908L49.0566 51.928C48.6726 52.056 48.2566 52.12 47.8086 52.12C47.1206 52.12 46.6406 51.944 46.3686 51.592C46.0966 51.232 45.9606 50.696 45.9606 49.984V46.84H44.9766ZM52.828 49.084C52.42 49.108 52.088 49.152 51.832 49.216C51.584 49.28 51.392 49.364 51.256 49.468C51.12 49.564 51.028 49.68 50.98 49.816C50.94 49.944 50.92 50.084 50.92 50.236C50.92 50.508 51.004 50.72 51.172 50.872C51.348 51.024 51.604 51.1 51.94 51.1C52.54 51.1 52.984 50.948 53.272 50.644C53.56 50.34 53.704 49.928 53.704 49.408V49.048L52.828 49.084ZM53.728 51.184C53.496 51.464 53.212 51.696 52.876 51.88C52.54 52.064 52.132 52.156 51.652 52.156C51.356 52.156 51.08 52.116 50.824 52.036C50.568 51.964 50.344 51.852 50.152 51.7C49.968 51.548 49.82 51.356 49.708 51.124C49.604 50.884 49.552 50.604 49.552 50.284C49.552 49.852 49.648 49.504 49.84 49.24C50.032 48.968 50.28 48.756 50.584 48.604C50.896 48.452 51.244 48.348 51.628 48.292C52.012 48.228 52.396 48.188 52.78 48.172L53.704 48.124V47.86C53.704 47.388 53.588 47.064 53.356 46.888C53.132 46.704 52.836 46.612 52.468 46.612C52.044 46.612 51.728 46.684 51.52 46.828C51.32 46.972 51.188 47.18 51.124 47.452L49.876 47.32C49.988 46.712 50.264 46.268 50.704 45.988C51.144 45.708 51.748 45.568 52.516 45.568C53.012 45.568 53.42 45.632 53.74 45.76C54.068 45.888 54.328 46.064 54.52 46.288C54.712 46.512 54.844 46.78 54.916 47.092C54.996 47.396 55.036 47.732 55.036 48.1V52H53.728V51.184Z" fill="#96348B"/>
<path id="Union" fill-rule="evenodd" clip-rule="evenodd" d="M34.4364 32H24.5294C17.1117 32 11 26.3099 11 18.9983C11 11.6886 17.1475 6 24.5294 6H34.4364V10H25.8701C21.7391 10 15.5 12.5 15.5 18.9983C15.5 25 21.3513 28 25.7998 28H34.4364V32ZM39.5088 6C43.5524 6 47.2195 7.58381 49.7835 10.1525C51.7852 12.1579 53 15.3778 53 19.0018C53 22.6257 51.4984 26.1268 49.7545 27.864C47.1858 30.4229 43.5248 32 39.5088 32H37V27.864H38.123C42.3931 27.864 49 25.5 49 19.0018C49 13 42.7939 10.1525 38.1956 10.1525H37V6H39.5088Z" fill="#96348B"/>
</g>
</g>
</svg>
