<svg xmlns="http://www.w3.org/2000/svg" width="23" height="20" viewBox="0 0 23 20">
    <g fill="none" fill-rule="evenodd">
        <g>
            <g>
                <g>
                    <g>
                        <path fill="#003D62" fill-rule="nonzero" d="M11.69 2.057c-5.14 0-9.527 3.199-11.304 7.714 1.777 4.516 6.165 7.715 11.303 7.715 5.138 0 9.526-3.2 11.303-7.715-1.777-4.515-6.165-7.714-11.303-7.714zm0 12.857c-2.837 0-5.14-2.304-5.14-5.143 0-2.838 2.303-5.142 5.14-5.142 2.835 0 5.137 2.304 5.137 5.142 0 2.84-2.302 5.143-5.138 5.143zm0-8.228c-1.707 0-3.084 1.378-3.084 3.085 0 1.708 1.377 3.086 3.083 3.086 1.705 0 3.082-1.378 3.082-3.086 0-1.707-1.377-3.085-3.082-3.085z" transform="translate(-822 -471) translate(438 321) translate(0 104) translate(384 46)"/>
                        <path stroke="#003D62" stroke-linecap="round" stroke-width="2" d="M19.5 0.5L4.709 19.4" transform="translate(-822 -471) translate(438 321) translate(0 104) translate(384 46) rotate(-4.047 12.104 9.95)"/>
                    </g>
                </g>
            </g>
        </g>
    </g>
</svg>
