<svg width="64" height="72" viewBox="0 0 64 72" fill="none" xmlns="http://www.w3.org/2000/svg">
<path d="M7.63382 58.432H10.5978C11.2458 58.432 11.7778 58.504 12.1938 58.648C12.6178 58.792 12.9498 58.984 13.1898 59.224C13.4298 59.464 13.5978 59.744 13.6938 60.064C13.7898 60.376 13.8378 60.704 13.8378 61.048C13.8378 61.416 13.7898 61.768 13.6938 62.104C13.5978 62.44 13.4258 62.736 13.1778 62.992C12.9378 63.24 12.6098 63.44 12.1938 63.592C11.7778 63.736 11.2538 63.808 10.6218 63.808H9.06182V67H7.63382V58.432ZM10.5858 62.596C10.9538 62.596 11.2538 62.56 11.4858 62.488C11.7258 62.416 11.9138 62.316 12.0498 62.188C12.1858 62.052 12.2778 61.892 12.3258 61.708C12.3818 61.524 12.4098 61.316 12.4098 61.084C12.4098 60.844 12.3818 60.636 12.3258 60.46C12.2698 60.276 12.1698 60.124 12.0258 60.004C11.8898 59.884 11.7018 59.792 11.4618 59.728C11.2298 59.664 10.9338 59.632 10.5738 59.632H9.06182V62.596H10.5858ZM16.2984 60.76V61.684C16.5144 61.356 16.7744 61.104 17.0784 60.928C17.3824 60.752 17.7064 60.664 18.0504 60.664C18.1864 60.664 18.2984 60.668 18.3864 60.676C18.4824 60.684 18.5744 60.696 18.6624 60.712L18.5064 61.96C18.4184 61.936 18.3224 61.92 18.2184 61.912C18.1144 61.904 18.0064 61.9 17.8944 61.9C17.6384 61.9 17.4144 61.944 17.2224 62.032C17.0304 62.112 16.8664 62.22 16.7304 62.356C16.6024 62.492 16.5024 62.648 16.4304 62.824C16.3664 62.992 16.3344 63.164 16.3344 63.34V67H14.9784V60.76H16.2984ZM22.2526 66.088C22.8286 66.088 23.2486 65.892 23.5126 65.5C23.7846 65.1 23.9206 64.556 23.9206 63.868C23.9206 63.188 23.7846 62.652 23.5126 62.26C23.2486 61.868 22.8286 61.672 22.2526 61.672C21.6766 61.672 21.2526 61.872 20.9806 62.272C20.7166 62.664 20.5846 63.196 20.5846 63.868C20.5846 64.548 20.7126 65.088 20.9686 65.488C21.2326 65.888 21.6606 66.088 22.2526 66.088ZM22.2406 67.192C21.2646 67.192 20.5086 66.904 19.9726 66.328C19.4366 65.752 19.1686 64.936 19.1686 63.88C19.1686 63.384 19.2366 62.932 19.3726 62.524C19.5166 62.116 19.7206 61.768 19.9846 61.48C20.2486 61.192 20.5726 60.968 20.9566 60.808C21.3406 60.648 21.7766 60.568 22.2646 60.568C22.7606 60.568 23.2006 60.652 23.5846 60.82C23.9686 60.98 24.2886 61.204 24.5446 61.492C24.8086 61.78 25.0046 62.128 25.1326 62.536C25.2686 62.936 25.3366 63.376 25.3366 63.856C25.3366 64.4 25.2606 64.88 25.1086 65.296C24.9566 65.704 24.7406 66.052 24.4606 66.34C24.1886 66.62 23.8646 66.832 23.4886 66.976C23.1126 67.12 22.6966 67.192 22.2406 67.192ZM30.9839 63.748C30.9839 63.356 30.9399 63.028 30.8519 62.764C30.7719 62.492 30.6559 62.28 30.5039 62.128C30.3599 61.968 30.1879 61.856 29.9879 61.792C29.7959 61.72 29.5919 61.684 29.3759 61.684C28.8719 61.684 28.4799 61.864 28.1999 62.224C27.9279 62.584 27.7919 63.132 27.7919 63.868C27.7919 64.268 27.8279 64.608 27.8999 64.888C27.9799 65.168 28.0879 65.396 28.2239 65.572C28.3679 65.748 28.5319 65.876 28.7159 65.956C28.8999 66.036 29.0999 66.076 29.3159 66.076C29.8119 66.076 30.2119 65.916 30.5159 65.596C30.8279 65.268 30.9839 64.76 30.9839 64.072V63.748ZM30.9959 66.136C30.7399 66.488 30.4479 66.752 30.1199 66.928C29.7999 67.104 29.4239 67.192 28.9919 67.192C28.5439 67.192 28.1559 67.112 27.8279 66.952C27.4999 66.792 27.2279 66.568 27.0119 66.28C26.7959 65.984 26.6319 65.636 26.5199 65.236C26.4159 64.828 26.3639 64.38 26.3639 63.892C26.3639 63.436 26.4199 63.012 26.5319 62.62C26.6439 62.22 26.8079 61.876 27.0239 61.588C27.2399 61.292 27.5039 61.056 27.8159 60.88C28.1359 60.704 28.5039 60.608 28.9199 60.592C28.9999 60.584 29.0799 60.584 29.1599 60.592C29.2399 60.592 29.3239 60.596 29.4119 60.604C29.6919 60.636 29.9599 60.716 30.2159 60.844C30.4799 60.964 30.7319 61.168 30.9719 61.456V58.432H32.3279V67H30.9959V66.136ZM35.2004 60.76V64.684C35.2004 65.204 35.2844 65.56 35.4524 65.752C35.6284 65.944 35.8924 66.04 36.2444 66.04C36.4364 66.04 36.6284 66.004 36.8204 65.932C37.0204 65.86 37.1964 65.756 37.3484 65.62C37.5004 65.484 37.6244 65.32 37.7204 65.128C37.8164 64.936 37.8644 64.72 37.8644 64.48V60.76H39.2324V67H37.9004V66.088C37.6124 66.472 37.3004 66.752 36.9644 66.928C36.6284 67.104 36.2684 67.192 35.8844 67.192C35.1564 67.192 34.6324 67.004 34.3124 66.628C34.0004 66.252 33.8444 65.676 33.8444 64.9V60.76H35.2004ZM40.1711 61.84V60.76H41.1551V59.08H42.5111V60.76H44.0591V61.84H42.5111V65.104C42.5111 65.424 42.5751 65.656 42.7031 65.8C42.8391 65.944 43.0351 66.016 43.2911 66.016C43.4271 66.016 43.5551 66.008 43.6751 65.992C43.8031 65.976 43.9271 65.948 44.0471 65.908L44.2511 66.928C43.8671 67.056 43.4511 67.12 43.0031 67.12C42.3151 67.12 41.8351 66.944 41.5631 66.592C41.2911 66.232 41.1551 65.696 41.1551 64.984V61.84H40.1711ZM47.8933 66.088C48.4693 66.088 48.8893 65.892 49.1533 65.5C49.4253 65.1 49.5613 64.556 49.5613 63.868C49.5613 63.188 49.4253 62.652 49.1533 62.26C48.8893 61.868 48.4693 61.672 47.8933 61.672C47.3173 61.672 46.8933 61.872 46.6213 62.272C46.3573 62.664 46.2253 63.196 46.2253 63.868C46.2253 64.548 46.3533 65.088 46.6093 65.488C46.8733 65.888 47.3013 66.088 47.8933 66.088ZM47.8813 67.192C46.9053 67.192 46.1493 66.904 45.6133 66.328C45.0773 65.752 44.8093 64.936 44.8093 63.88C44.8093 63.384 44.8773 62.932 45.0133 62.524C45.1573 62.116 45.3613 61.768 45.6253 61.48C45.8893 61.192 46.2133 60.968 46.5973 60.808C46.9813 60.648 47.4173 60.568 47.9053 60.568C48.4013 60.568 48.8413 60.652 49.2253 60.82C49.6093 60.98 49.9293 61.204 50.1853 61.492C50.4493 61.78 50.6453 62.128 50.7733 62.536C50.9093 62.936 50.9773 63.376 50.9773 63.856C50.9773 64.4 50.9013 64.88 50.7493 65.296C50.5973 65.704 50.3813 66.052 50.1013 66.34C49.8293 66.62 49.5053 66.832 49.1293 66.976C48.7533 67.12 48.3373 67.192 47.8813 67.192ZM53.2738 65.092C53.2978 65.3 53.3538 65.472 53.4418 65.608C53.5298 65.736 53.6378 65.84 53.7658 65.92C53.9018 66 54.0578 66.056 54.2338 66.088C54.4098 66.112 54.5978 66.124 54.7978 66.124C55.2538 66.124 55.5818 66.056 55.7818 65.92C55.9818 65.784 56.0818 65.584 56.0818 65.32C56.0818 65.112 56.0178 64.936 55.8898 64.792C55.7698 64.648 55.5178 64.544 55.1338 64.48C54.6378 64.392 54.2018 64.308 53.8258 64.228C53.4498 64.148 53.1338 64.04 52.8778 63.904C52.6218 63.76 52.4298 63.58 52.3018 63.364C52.1738 63.14 52.1098 62.84 52.1098 62.464C52.1098 62.176 52.1738 61.916 52.3018 61.684C52.4298 61.444 52.6058 61.244 52.8298 61.084C53.0618 60.916 53.3338 60.788 53.6458 60.7C53.9658 60.612 54.3138 60.568 54.6898 60.568C55.1698 60.568 55.5698 60.616 55.8898 60.712C56.2098 60.808 56.4698 60.94 56.6698 61.108C56.8698 61.276 57.0218 61.468 57.1258 61.684C57.2298 61.9 57.3098 62.128 57.3658 62.368L56.1418 62.536C56.0458 62.224 55.8978 61.992 55.6978 61.84C55.5058 61.688 55.1818 61.612 54.7258 61.612C54.4618 61.612 54.2458 61.636 54.0778 61.684C53.9098 61.732 53.7738 61.792 53.6698 61.864C53.5738 61.936 53.5058 62.016 53.4658 62.104C53.4338 62.192 53.4178 62.28 53.4178 62.368C53.4178 62.504 53.4338 62.616 53.4658 62.704C53.4978 62.792 53.5538 62.864 53.6338 62.92C53.7218 62.976 53.8378 63.024 53.9818 63.064C54.1258 63.104 54.3058 63.144 54.5218 63.184L55.3018 63.316C55.7178 63.388 56.0618 63.48 56.3338 63.592C56.6138 63.704 56.8338 63.844 56.9938 64.012C57.1618 64.172 57.2778 64.36 57.3418 64.576C57.4058 64.792 57.4378 65.032 57.4378 65.296C57.4378 65.864 57.2218 66.324 56.7898 66.676C56.3578 67.02 55.7018 67.192 54.8218 67.192C54.4618 67.192 54.1138 67.156 53.7778 67.084C53.4498 67.02 53.1538 66.908 52.8898 66.748C52.6258 66.588 52.4098 66.376 52.2418 66.112C52.0818 65.84 51.9898 65.5 51.9658 65.092H53.2738Z" fill="#96348B"/>
<path d="M26.2686 17.0631C25.7411 17.0631 25.3134 17.4955 25.3134 18.0288V20.9259H27.2239V18.9945H29.1343V20.9259H31.0448V18.0288C31.0448 17.4955 30.6171 17.0631 30.0895 17.0631H26.2686Z" fill="#96348B"/>
<path d="M25.3134 25.7545C25.3134 25.2211 25.7411 24.7888 26.2686 24.7888H30.0895C30.6171 24.7888 31.0448 25.2211 31.0448 25.7545V28.6516H29.1343V26.7202H27.2239V28.6516H25.3134V25.7545Z" fill="#96348B"/>
<path d="M28.1791 42.1715C28.1791 41.6381 28.6068 41.2058 29.1343 41.2058H34.8657C35.3932 41.2058 35.8209 41.6381 35.8209 42.1715V47H33.9104V43.1372H30.0895V47H28.1791V42.1715Z" fill="#96348B"/>
<path d="M26.2686 32.5144C25.7411 32.5144 25.3134 32.9468 25.3134 33.4801V36.3772H27.2239V34.4458H29.1343V36.3772H31.0448V33.4801C31.0448 32.9468 30.6171 32.5144 30.0895 32.5144H26.2686Z" fill="#96348B"/>
<path d="M32.9552 25.7545C32.9552 25.2211 33.3829 24.7888 33.9104 24.7888H37.7313C38.2589 24.7888 38.6866 25.2211 38.6866 25.7545V28.6516H36.7761V26.7202H34.8657V28.6516H32.9552V25.7545Z" fill="#96348B"/>
<path d="M32.9552 18.0288C32.9552 17.4955 33.3829 17.0631 33.9104 17.0631H37.7313C38.2589 17.0631 38.6866 17.4955 38.6866 18.0288V20.9259H36.7761V18.9945H34.8657V20.9259H32.9552V18.0288Z" fill="#96348B"/>
<path d="M33.9104 32.5144C33.3829 32.5144 32.9552 32.9468 32.9552 33.4801V36.3772H34.8657V34.4458H36.7761V36.3772H38.6866V33.4801C38.6866 32.9468 38.2589 32.5144 37.7313 32.5144H33.9104Z" fill="#96348B"/>
<path fill-rule="evenodd" clip-rule="evenodd" d="M22.8656 4.50892C22.8656 3.67556 23.5339 3 24.3582 3H39.6417C40.4661 3 41.1343 3.67556 41.1343 4.50892V8.79428H42.5075C43.3318 8.79428 44 9.46984 44 10.3032V29.1948V47H41.0149V11.8121H22.9851V47H20V21.3484V10.3032C20 9.46985 20.6682 8.79428 21.4925 8.79428H22.8656V4.50892ZM25.8507 8.79428V6.01783H38.1492V8.79428H25.8507Z" fill="#96348B"/>
</svg>
