<svg xmlns="http://www.w3.org/2000/svg" width="125" height="62" viewBox="0 0 125 62">
    <g fill="none" fill-rule="evenodd">
        <g>
            <g>
                <g>
                    <g>
                        <g>
                            <g>
                                <path stroke="#FFF" stroke-width="4.144" d="M24.61 40.649H4.922C2.203 40.649 0 38.423 0 35.676V4.973C0 2.226 2.203 0 4.922 0H30.09c2.718 0 4.922 2.226 4.922 4.973v12.268" transform="translate(-82 -713) translate(0 250) translate(0 442) translate(82 24) translate(32.25)"/>
                                <g transform="translate(-82 -713) translate(0 250) translate(0 442) translate(82 24) translate(32.25) translate(5.628 10.11)">
                                    <path stroke="#FFF" stroke-linecap="round" stroke-linejoin="bevel" stroke-width="3.316" d="M7.186 2.129L22.565 2"/>
                                    <ellipse cx="2.045" cy="2.127" fill="#FFF" fill-rule="nonzero" rx="1.931" ry="1.951"/>
                                    <g transform="translate(0 8.289)">
                                        <path stroke="#FFF" stroke-linecap="round" stroke-linejoin="bevel" stroke-width="3.316" d="M7.186 2.129L18.277 2"/>
                                        <ellipse cx="2.045" cy="2.127" fill="#FFF" fill-rule="nonzero" rx="1.931" ry="1.951"/>
                                    </g>
                                    <g transform="translate(0 16.578)">
                                        <path stroke="#FFF" stroke-linecap="round" stroke-linejoin="bevel" stroke-width="3.316" d="M7.186 2.129L16.636 2"/>
                                        <ellipse cx="2.045" cy="2.127" fill="#FFF" fill-rule="nonzero" rx="1.931" ry="1.951"/>
                                    </g>
                                </g>
                            </g>
                            <g stroke="#FFF" transform="translate(-82 -713) translate(0 250) translate(0 442) translate(82 24) translate(32.25) translate(24.61 18.4)">
                                <rect width="35.011" height="37.333" y=".342" stroke-width="4.144" rx="4.973"/>
                                <path stroke-linecap="round" stroke-linejoin="round" stroke-width="3.316" d="M9.844 16.661L15.795 27.065 27.373 10.289"/>
                            </g>
                        </g>
                    </g>
                </g>
            </g>
        </g>
    </g>
</svg>
