<svg width="64" height="64" viewBox="0 0 64 64" fill="none" xmlns="http://www.w3.org/2000/svg">
<g id="Clientes">
<g id="Grupo">
<g id="Group 23">
<path id="Path" d="M41.7345 32.4528C41.7345 27.1474 37.4526 22.8463 32.1707 22.8463C26.8889 22.8463 22.6069 27.1474 22.6069 32.4528" stroke="#96348B" stroke-width="2.71698" stroke-linecap="round"/>
<ellipse id="Oval" cx="32.1702" cy="13.2399" rx="5.21662" ry="5.23989" stroke="#96348B" stroke-width="2.71698" stroke-linecap="round"/>
<path id="Path_2" d="M24.0744 26.6994C22.6251 25.0034 20.4837 24.0664 18.2596 24.1563C13.6977 24.1563 10 27.8705 10 32.4528" stroke="#96348B" stroke-width="2.71698" stroke-linecap="round"/>
<ellipse id="Oval_2" cx="18.6948" cy="15.8599" rx="4.34718" ry="4.36658" stroke="#96348B" stroke-width="2.71698" stroke-linecap="round"/>
<path id="Path_3" d="M53.4719 32.4528C53.4719 27.8706 49.7742 24.1564 45.2122 24.1564C43.1743 24.1144 41.2032 24.8821 39.7261 26.2934" stroke="#96348B" stroke-width="2.71698" stroke-linecap="round"/>
<ellipse id="Oval_3" cx="45.647" cy="15.8599" rx="4.34718" ry="4.36658" stroke="#96348B" stroke-width="2.71698" stroke-linecap="round"/>
</g>
<path id="Clientes_2" d="M17.1134 48.8061C17.0654 49.2541 16.9574 49.6661 16.7894 50.0421C16.6214 50.4181 16.3894 50.7461 16.0934 51.0261C15.7974 51.3061 15.4374 51.5261 15.0134 51.6861C14.5894 51.8381 14.0974 51.9141 13.5374 51.9141C12.9214 51.9141 12.3694 51.8101 11.8814 51.6021C11.4014 51.3941 10.9934 51.0981 10.6574 50.7141C10.3294 50.3221 10.0774 49.8501 9.90139 49.2981C9.73339 48.7381 9.64939 48.1141 9.64939 47.4261C9.64939 46.7221 9.74139 46.0901 9.92539 45.5301C10.1174 44.9701 10.3854 44.4981 10.7294 44.1141C11.0734 43.7221 11.4854 43.4261 11.9654 43.2261C12.4454 43.0181 12.9734 42.9141 13.5494 42.9141C14.0854 42.9141 14.5494 42.9821 14.9414 43.1181C15.3334 43.2541 15.6654 43.4501 15.9374 43.7061C16.2174 43.9541 16.4374 44.2541 16.5974 44.6061C16.7654 44.9581 16.8894 45.3501 16.9694 45.7821L15.5414 45.9861C15.4774 45.6981 15.3974 45.4421 15.3014 45.2181C15.2054 44.9941 15.0774 44.8061 14.9174 44.6541C14.7654 44.4941 14.5774 44.3741 14.3534 44.2941C14.1294 44.2061 13.8614 44.1621 13.5494 44.1621C13.1654 44.1621 12.8254 44.2381 12.5294 44.3901C12.2334 44.5421 11.9814 44.7621 11.7734 45.0501C11.5734 45.3301 11.4214 45.6701 11.3174 46.0701C11.2134 46.4701 11.1614 46.9181 11.1614 47.4141C11.1614 47.9181 11.2134 48.3701 11.3174 48.7701C11.4294 49.1701 11.5894 49.5141 11.7974 49.8021C12.0054 50.0821 12.2534 50.2981 12.5414 50.4501C12.8374 50.5941 13.1734 50.6661 13.5494 50.6661C13.8854 50.6661 14.1694 50.6221 14.4014 50.5341C14.6414 50.4461 14.8414 50.3221 15.0014 50.1621C15.1614 50.0021 15.2854 49.8101 15.3734 49.5861C15.4694 49.3541 15.5374 49.0941 15.5774 48.8061H17.1134ZM19.7284 43.1301V51.6981H18.3604V43.1301H19.7284ZM22.7055 43.1301V44.4861H21.2895V43.1301H22.7055ZM22.6815 45.4581V51.6981H21.3135V45.4581H22.6815ZM29.7986 49.8501C29.6866 50.4981 29.4106 51.0021 28.9706 51.3621C28.5306 51.7141 27.8986 51.8901 27.0746 51.8901C26.0826 51.8901 25.3266 51.6061 24.8066 51.0381C24.2946 50.4621 24.0386 49.6541 24.0386 48.6141C24.0386 48.0781 24.1106 47.6021 24.2546 47.1861C24.4066 46.7701 24.6146 46.4221 24.8786 46.1421C25.1506 45.8541 25.4706 45.6381 25.8386 45.4941C26.2146 45.3421 26.6266 45.2661 27.0746 45.2661C27.5546 45.2661 27.9706 45.3421 28.3226 45.4941C28.6746 45.6381 28.9666 45.8461 29.1986 46.1181C29.4306 46.3821 29.6026 46.7021 29.7146 47.0781C29.8266 47.4461 29.8826 47.8581 29.8826 48.3141V48.9141H25.4066C25.4226 49.4821 25.5666 49.9421 25.8386 50.2941C26.1106 50.6461 26.5226 50.8221 27.0746 50.8221C27.5066 50.8221 27.8306 50.7381 28.0466 50.5701C28.2626 50.4021 28.4066 50.1621 28.4786 49.8501H29.7986ZM28.5506 47.9661C28.5506 47.4541 28.4306 47.0501 28.1906 46.7541C27.9506 46.4581 27.5666 46.3101 27.0386 46.3101C26.5346 46.3101 26.1506 46.4621 25.8866 46.7661C25.6226 47.0621 25.4706 47.4621 25.4306 47.9661H28.5506ZM32.5355 45.4581V46.3701C32.8155 45.9861 33.1275 45.7061 33.4715 45.5301C33.8235 45.3541 34.1995 45.2661 34.5995 45.2661C35.9915 45.2661 36.6875 46.0341 36.6875 47.5701V51.6981H35.3195V47.7861C35.3195 47.2821 35.2275 46.9301 35.0435 46.7301C34.8595 46.5221 34.5875 46.4181 34.2275 46.4181C33.9875 46.4181 33.7635 46.4621 33.5555 46.5501C33.3555 46.6301 33.1835 46.7421 33.0395 46.8861C32.8955 47.0301 32.7795 47.1981 32.6915 47.3901C32.6115 47.5741 32.5715 47.7701 32.5715 47.9781V51.6981H31.2155V45.4581H32.5355ZM37.5762 46.5381V45.4581H38.5602V43.7781H39.9162V45.4581H41.4642V46.5381H39.9162V49.8021C39.9162 50.1221 39.9802 50.3541 40.1082 50.4981C40.2442 50.6421 40.4402 50.7141 40.6962 50.7141C40.8322 50.7141 40.9602 50.7061 41.0802 50.6901C41.2082 50.6741 41.3322 50.6461 41.4522 50.6061L41.6562 51.6261C41.2722 51.7541 40.8562 51.8181 40.4082 51.8181C39.7202 51.8181 39.2402 51.6421 38.9682 51.2901C38.6962 50.9301 38.5602 50.3941 38.5602 49.6821V46.5381H37.5762ZM47.9744 49.8501C47.8624 50.4981 47.5864 51.0021 47.1464 51.3621C46.7064 51.7141 46.0744 51.8901 45.2504 51.8901C44.2584 51.8901 43.5024 51.6061 42.9824 51.0381C42.4704 50.4621 42.2144 49.6541 42.2144 48.6141C42.2144 48.0781 42.2864 47.6021 42.4304 47.1861C42.5824 46.7701 42.7904 46.4221 43.0544 46.1421C43.3264 45.8541 43.6464 45.6381 44.0144 45.4941C44.3904 45.3421 44.8024 45.2661 45.2504 45.2661C45.7304 45.2661 46.1464 45.3421 46.4984 45.4941C46.8504 45.6381 47.1424 45.8461 47.3744 46.1181C47.6064 46.3821 47.7784 46.7021 47.8904 47.0781C48.0024 47.4461 48.0584 47.8581 48.0584 48.3141V48.9141H43.5824C43.5984 49.4821 43.7424 49.9421 44.0144 50.2941C44.2864 50.6461 44.6984 50.8221 45.2504 50.8221C45.6824 50.8221 46.0064 50.7381 46.2224 50.5701C46.4384 50.4021 46.5824 50.1621 46.6544 49.8501H47.9744ZM46.7264 47.9661C46.7264 47.4541 46.6064 47.0501 46.3664 46.7541C46.1264 46.4581 45.7424 46.3101 45.2144 46.3101C44.7104 46.3101 44.3264 46.4621 44.0624 46.7661C43.7984 47.0621 43.6464 47.4621 43.6064 47.9661H46.7264ZM50.3273 49.7901C50.3513 49.9981 50.4073 50.1701 50.4953 50.3061C50.5833 50.4341 50.6913 50.5381 50.8193 50.6181C50.9553 50.6981 51.1113 50.7541 51.2873 50.7861C51.4633 50.8101 51.6513 50.8221 51.8513 50.8221C52.3073 50.8221 52.6353 50.7541 52.8353 50.6181C53.0353 50.4821 53.1353 50.2821 53.1353 50.0181C53.1353 49.8101 53.0713 49.6341 52.9433 49.4901C52.8233 49.3461 52.5713 49.2421 52.1873 49.1781C51.6913 49.0901 51.2553 49.0061 50.8793 48.9261C50.5033 48.8461 50.1873 48.7381 49.9313 48.6021C49.6753 48.4581 49.4833 48.2781 49.3553 48.0621C49.2273 47.8381 49.1633 47.5381 49.1633 47.1621C49.1633 46.8741 49.2273 46.6141 49.3553 46.3821C49.4833 46.1421 49.6593 45.9421 49.8833 45.7821C50.1153 45.6141 50.3873 45.4861 50.6993 45.3981C51.0193 45.3101 51.3673 45.2661 51.7433 45.2661C52.2233 45.2661 52.6233 45.3141 52.9433 45.4101C53.2633 45.5061 53.5233 45.6381 53.7233 45.8061C53.9233 45.9741 54.0753 46.1661 54.1793 46.3821C54.2833 46.5981 54.3633 46.8261 54.4193 47.0661L53.1953 47.2341C53.0993 46.9221 52.9513 46.6901 52.7513 46.5381C52.5593 46.3861 52.2353 46.3101 51.7793 46.3101C51.5153 46.3101 51.2993 46.3341 51.1313 46.3821C50.9633 46.4301 50.8273 46.4901 50.7233 46.5621C50.6273 46.6341 50.5593 46.7141 50.5193 46.8021C50.4873 46.8901 50.4713 46.9781 50.4713 47.0661C50.4713 47.2021 50.4873 47.3141 50.5193 47.4021C50.5513 47.4901 50.6073 47.5621 50.6873 47.6181C50.7753 47.6741 50.8913 47.7221 51.0353 47.7621C51.1793 47.8021 51.3593 47.8421 51.5753 47.8821L52.3553 48.0141C52.7713 48.0861 53.1153 48.1781 53.3873 48.2901C53.6673 48.4021 53.8873 48.5421 54.0473 48.7101C54.2153 48.8701 54.3313 49.0581 54.3953 49.2741C54.4593 49.4901 54.4913 49.7301 54.4913 49.9941C54.4913 50.5621 54.2753 51.0221 53.8433 51.3741C53.4113 51.7181 52.7553 51.8901 51.8753 51.8901C51.5153 51.8901 51.1673 51.8541 50.8313 51.7821C50.5033 51.7181 50.2073 51.6061 49.9433 51.4461C49.6793 51.2861 49.4633 51.0741 49.2953 50.8101C49.1353 50.5381 49.0433 50.1981 49.0193 49.7901H50.3273Z" fill="#96348B"/>
</g>
</g>
</svg>
