<svg width="38" height="30" viewBox="0 0 38 30" fill="none" xmlns="http://www.w3.org/2000/svg">
<path fill-rule="evenodd" clip-rule="evenodd" d="M4.44293 2.7C3.3573 2.7 2.7 3.47256 2.7 4.16403V21.536C2.7 22.2274 3.3573 23 4.44293 23H14.8501V25.7H4.44293C2.11191 25.7 0 23.9531 0 21.536V4.16403C0 1.74694 2.11191 0 4.44293 0H20.2571C22.5881 0 24.7 1.74694 24.7 4.16403V11.85L22 14.35V4.16403C22 3.47256 21.3427 2.7 20.2571 2.7H4.44293Z" fill="#96348B"/>
<path d="M8.98047 8.39428L18.4339 8.31989" stroke="#96348B" stroke-width="2.7" stroke-linecap="round" stroke-linejoin="bevel"/>
<ellipse cx="5.00469" cy="8.39332" rx="1.11797" ry="1.12254" fill="#96348B"/>
<path d="M8.98047 13.1629L18.4339 13.0886" stroke="#96348B" stroke-width="2.7" stroke-linecap="round" stroke-linejoin="bevel"/>
<ellipse cx="5.00469" cy="13.162" rx="1.11797" ry="1.12254" fill="#96348B"/>
<path d="M9.3501 17.902L17.3501 17.798" stroke="#96348B" stroke-width="2.7" stroke-linecap="round" stroke-linejoin="bevel"/>
<ellipse cx="5.00469" cy="17.9306" rx="1.11797" ry="1.12254" fill="#96348B"/>
<path d="M17.7701 25.929C17.4896 25.9285 17.2222 25.8102 17.0331 25.603C16.8405 25.3975 16.7449 25.1195 16.7701 24.839L17.0151 22.145L28.3331 10.831L31.8701 14.367L20.5551 25.68L17.8611 25.925C17.8301 25.928 17.7991 25.929 17.7701 25.929ZM32.5761 13.66L29.0401 10.124L31.1611 8.003C31.3487 7.81523 31.6032 7.70972 31.8686 7.70972C32.134 7.70972 32.3885 7.81523 32.5761 8.003L34.6971 10.124C34.8849 10.3116 34.9904 10.5661 34.9904 10.8315C34.9904 11.0969 34.8849 11.3514 34.6971 11.539L32.5771 13.659L32.5761 13.66Z" fill="#96348B"/>
</svg>
