<svg width="34" height="34" viewBox="0 0 34 34" fill="none" xmlns="http://www.w3.org/2000/svg">
<path d="M16.5 25H5.09293C3.3846 25 2 23.7403 2 22.186V4.81403C2 3.25975 3.3846 2 5.09293 2H20.9071C22.6154 2 24 3.25975 24 4.81403V16.6517" stroke="#96348B" stroke-width="2.7"/>
<path d="M9.63037 9.04427L19.0838 8.96988" stroke="#96348B" stroke-width="2.7" stroke-linecap="round" stroke-linejoin="bevel"/>
<ellipse cx="5.65459" cy="9.04332" rx="1.11797" ry="1.12254" fill="#96348B"/>
<path d="M9.63037 13.8129L19.0838 13.7385" stroke="#96348B" stroke-width="2.7" stroke-linecap="round" stroke-linejoin="bevel"/>
<ellipse cx="5.65459" cy="13.8119" rx="1.11797" ry="1.12254" fill="#96348B"/>
<path d="M10 18.552L18 18.448" stroke="#96348B" stroke-width="2.7" stroke-linecap="round" stroke-linejoin="bevel"/>
<ellipse cx="5.65459" cy="18.5806" rx="1.11797" ry="1.12254" fill="#96348B"/>
<path fill-rule="evenodd" clip-rule="evenodd" d="M32.1891 33.6309C32.4189 33.855 32.7238 33.9866 33.0439 34C33.4514 33.9952 33.8124 33.7358 33.9482 33.3505C34.0926 32.8917 33.9273 32.391 33.5379 32.1106C31.4976 30.1698 28.951 27.9829 28.2187 27.3591L28.1845 27.3305C29.0147 26.105 29.482 24.6677 29.5304 23.1866C29.5276 19.3754 26.4491 16.2882 22.6535 16.2911C18.8579 16.2939 15.7833 19.385 15.7861 23.1961C15.789 27.0072 18.8674 30.0944 22.663 30.0916C24.1201 30.0592 25.5354 29.6061 26.7417 28.7859C26.7673 28.8079 30.3122 31.9466 32.1891 33.6309ZM18.0603 21.2734C18.8325 19.4069 20.6477 18.19 22.6614 18.1919V18.1928L22.6661 18.1967C25.4102 18.2033 27.6319 20.437 27.6348 23.1933C27.6338 25.2152 26.4199 27.0368 24.5592 27.8093C22.6993 28.5818 20.5584 28.1527 19.1355 26.7221C17.7136 25.2915 17.289 23.1408 18.0603 21.2734Z" fill="#96348B"/>
</svg>
