<svg width="80" height="80" viewBox="0 0 80 80" fill="none" xmlns="http://www.w3.org/2000/svg">
<g id="Consulta">
<g id="Group 24">
<g id="Icone">
<path id="Path" d="M38.5 28H27.0929C25.3846 28 24 26.7403 24 25.186V7.81403C24 6.25975 25.3846 5 27.0929 5H42.9071C44.6154 5 46 6.25975 46 7.81403V19.6517" stroke="#96348B" stroke-width="2.7"/>
<g id="Group">
<path id="Path_2" d="M31.6304 12.0443L41.0838 11.9699" stroke="#96348B" stroke-width="2.7" stroke-linecap="round" stroke-linejoin="bevel"/>
<ellipse id="Oval" cx="27.6546" cy="12.0433" rx="1.11797" ry="1.12254" fill="#96348B"/>
<g id="Group_2">
<path id="Path_3" d="M31.6304 16.8129L41.0838 16.7385" stroke="#96348B" stroke-width="2.7" stroke-linecap="round" stroke-linejoin="bevel"/>
<ellipse id="Oval_2" cx="27.6546" cy="16.8119" rx="1.11797" ry="1.12254" fill="#96348B"/>
</g>
<g id="Group_3">
<path id="Path_4" d="M32 21.552L40 21.448" stroke="#96348B" stroke-width="2.7" stroke-linecap="round" stroke-linejoin="bevel"/>
<ellipse id="Oval_3" cx="27.6546" cy="21.5806" rx="1.11797" ry="1.12254" fill="#96348B"/>
</g>
</g>
<g id="Group_4">
<path id="Shape" fill-rule="evenodd" clip-rule="evenodd" d="M54.1891 36.6309C54.4189 36.855 54.7238 36.9866 55.0439 37C55.4514 36.9952 55.8124 36.7358 55.9482 36.3505C56.0926 35.8917 55.9273 35.391 55.5379 35.1106C53.4976 33.1698 50.951 30.9829 50.2187 30.3591L50.1845 30.3305C51.0147 29.105 51.482 27.6677 51.5304 26.1866C51.5276 22.3754 48.4491 19.2882 44.6535 19.2911C40.8579 19.2939 37.7833 22.385 37.7861 26.1961C37.789 30.0072 40.8674 33.0944 44.663 33.0916C46.1201 33.0592 47.5354 32.6061 48.7417 31.7859C48.7673 31.8079 52.3122 34.9466 54.1891 36.6309ZM40.0603 24.2734C40.8325 22.4069 42.6477 21.19 44.6614 21.1919V21.1928L44.6661 21.1967C47.4102 21.2033 49.6319 23.437 49.6348 26.1933C49.6338 28.2152 48.4199 30.0368 46.5592 30.8093C44.6993 31.5818 42.5584 31.1527 41.1355 29.7221C39.7136 28.2915 39.289 26.1408 40.0603 24.2734Z" fill="#96348B"/>
</g>
</g>
<path id="Consulta pr&#195;&#169;-propost" d="M21.2618 54.108C21.2138 54.556 21.1058 54.968 20.9378 55.344C20.7698 55.72 20.5378 56.048 20.2418 56.328C19.9458 56.608 19.5858 56.828 19.1618 56.988C18.7378 57.14 18.2458 57.216 17.6858 57.216C17.0698 57.216 16.5178 57.112 16.0298 56.904C15.5498 56.696 15.1418 56.4 14.8058 56.016C14.4778 55.624 14.2258 55.152 14.0498 54.6C13.8818 54.04 13.7978 53.416 13.7978 52.728C13.7978 52.024 13.8898 51.392 14.0738 50.832C14.2658 50.272 14.5338 49.8 14.8778 49.416C15.2218 49.024 15.6338 48.728 16.1138 48.528C16.5938 48.32 17.1218 48.216 17.6978 48.216C18.2338 48.216 18.6978 48.284 19.0898 48.42C19.4818 48.556 19.8138 48.752 20.0858 49.008C20.3658 49.256 20.5858 49.556 20.7458 49.908C20.9138 50.26 21.0378 50.652 21.1178 51.084L19.6898 51.288C19.6258 51 19.5458 50.744 19.4498 50.52C19.3538 50.296 19.2258 50.108 19.0658 49.956C18.9138 49.796 18.7258 49.676 18.5018 49.596C18.2778 49.508 18.0098 49.464 17.6978 49.464C17.3138 49.464 16.9738 49.54 16.6778 49.692C16.3818 49.844 16.1298 50.064 15.9218 50.352C15.7218 50.632 15.5698 50.972 15.4658 51.372C15.3618 51.772 15.3098 52.22 15.3098 52.716C15.3098 53.22 15.3618 53.672 15.4658 54.072C15.5778 54.472 15.7378 54.816 15.9458 55.104C16.1538 55.384 16.4018 55.6 16.6898 55.752C16.9858 55.896 17.3218 55.968 17.6978 55.968C18.0338 55.968 18.3178 55.924 18.5498 55.836C18.7898 55.748 18.9898 55.624 19.1498 55.464C19.3098 55.304 19.4338 55.112 19.5218 54.888C19.6178 54.656 19.6858 54.396 19.7258 54.108H21.2618ZM25.3648 56.088C25.9408 56.088 26.3608 55.892 26.6248 55.5C26.8968 55.1 27.0328 54.556 27.0328 53.868C27.0328 53.188 26.8968 52.652 26.6248 52.26C26.3608 51.868 25.9408 51.672 25.3648 51.672C24.7888 51.672 24.3648 51.872 24.0928 52.272C23.8288 52.664 23.6968 53.196 23.6968 53.868C23.6968 54.548 23.8248 55.088 24.0808 55.488C24.3448 55.888 24.7728 56.088 25.3648 56.088ZM25.3528 57.192C24.3768 57.192 23.6208 56.904 23.0848 56.328C22.5488 55.752 22.2808 54.936 22.2808 53.88C22.2808 53.384 22.3488 52.932 22.4848 52.524C22.6288 52.116 22.8328 51.768 23.0968 51.48C23.3608 51.192 23.6848 50.968 24.0688 50.808C24.4528 50.648 24.8888 50.568 25.3768 50.568C25.8728 50.568 26.3128 50.652 26.6968 50.82C27.0808 50.98 27.4008 51.204 27.6568 51.492C27.9208 51.78 28.1168 52.128 28.2448 52.536C28.3808 52.936 28.4488 53.376 28.4488 53.856C28.4488 54.4 28.3728 54.88 28.2208 55.296C28.0688 55.704 27.8528 56.052 27.5728 56.34C27.3008 56.62 26.9768 56.832 26.6008 56.976C26.2248 57.12 25.8088 57.192 25.3528 57.192ZM31.1293 50.76V51.672C31.4093 51.288 31.7213 51.008 32.0653 50.832C32.4173 50.656 32.7933 50.568 33.1933 50.568C34.5853 50.568 35.2813 51.336 35.2813 52.872V57H33.9133V53.088C33.9133 52.584 33.8213 52.232 33.6373 52.032C33.4533 51.824 33.1813 51.72 32.8213 51.72C32.5813 51.72 32.3573 51.764 32.1493 51.852C31.9493 51.932 31.7773 52.044 31.6333 52.188C31.4893 52.332 31.3733 52.5 31.2853 52.692C31.2053 52.876 31.1653 53.072 31.1653 53.28V57H29.8093V50.76H31.1293ZM37.718 55.092C37.742 55.3 37.798 55.472 37.886 55.608C37.974 55.736 38.082 55.84 38.21 55.92C38.346 56 38.502 56.056 38.678 56.088C38.854 56.112 39.042 56.124 39.242 56.124C39.698 56.124 40.026 56.056 40.226 55.92C40.426 55.784 40.526 55.584 40.526 55.32C40.526 55.112 40.462 54.936 40.334 54.792C40.214 54.648 39.962 54.544 39.578 54.48C39.082 54.392 38.646 54.308 38.27 54.228C37.894 54.148 37.578 54.04 37.322 53.904C37.066 53.76 36.874 53.58 36.746 53.364C36.618 53.14 36.554 52.84 36.554 52.464C36.554 52.176 36.618 51.916 36.746 51.684C36.874 51.444 37.05 51.244 37.274 51.084C37.506 50.916 37.778 50.788 38.09 50.7C38.41 50.612 38.758 50.568 39.134 50.568C39.614 50.568 40.014 50.616 40.334 50.712C40.654 50.808 40.914 50.94 41.114 51.108C41.314 51.276 41.466 51.468 41.57 51.684C41.674 51.9 41.754 52.128 41.81 52.368L40.586 52.536C40.49 52.224 40.342 51.992 40.142 51.84C39.95 51.688 39.626 51.612 39.17 51.612C38.906 51.612 38.69 51.636 38.522 51.684C38.354 51.732 38.218 51.792 38.114 51.864C38.018 51.936 37.95 52.016 37.91 52.104C37.878 52.192 37.862 52.28 37.862 52.368C37.862 52.504 37.878 52.616 37.91 52.704C37.942 52.792 37.998 52.864 38.078 52.92C38.166 52.976 38.282 53.024 38.426 53.064C38.57 53.104 38.75 53.144 38.966 53.184L39.746 53.316C40.162 53.388 40.506 53.48 40.778 53.592C41.058 53.704 41.278 53.844 41.438 54.012C41.606 54.172 41.722 54.36 41.786 54.576C41.85 54.792 41.882 55.032 41.882 55.296C41.882 55.864 41.666 56.324 41.234 56.676C40.802 57.02 40.146 57.192 39.266 57.192C38.906 57.192 38.558 57.156 38.222 57.084C37.894 57.02 37.598 56.908 37.334 56.748C37.07 56.588 36.854 56.376 36.686 56.112C36.526 55.84 36.434 55.5 36.41 55.092H37.718ZM44.4532 50.76V54.684C44.4532 55.204 44.5372 55.56 44.7052 55.752C44.8812 55.944 45.1452 56.04 45.4972 56.04C45.6892 56.04 45.8812 56.004 46.0732 55.932C46.2732 55.86 46.4492 55.756 46.6012 55.62C46.7532 55.484 46.8772 55.32 46.9732 55.128C47.0692 54.936 47.1172 54.72 47.1172 54.48V50.76H48.4852V57H47.1532V56.088C46.8652 56.472 46.5532 56.752 46.2172 56.928C45.8812 57.104 45.5212 57.192 45.1372 57.192C44.4092 57.192 43.8852 57.004 43.5652 56.628C43.2532 56.252 43.0972 55.676 43.0972 54.9V50.76H44.4532ZM51.4159 48.432V57H50.0479V48.432H51.4159ZM52.377 51.84V50.76H53.361V49.08H54.717V50.76H56.265V51.84H54.717V55.104C54.717 55.424 54.781 55.656 54.909 55.8C55.045 55.944 55.241 56.016 55.497 56.016C55.633 56.016 55.761 56.008 55.881 55.992C56.009 55.976 56.133 55.948 56.253 55.908L56.457 56.928C56.073 57.056 55.657 57.12 55.209 57.12C54.521 57.12 54.041 56.944 53.769 56.592C53.497 56.232 53.361 55.696 53.361 54.984V51.84H52.377ZM60.2284 54.084C59.8204 54.108 59.4884 54.152 59.2324 54.216C58.9844 54.28 58.7924 54.364 58.6564 54.468C58.5204 54.564 58.4284 54.68 58.3804 54.816C58.3404 54.944 58.3204 55.084 58.3204 55.236C58.3204 55.508 58.4044 55.72 58.5724 55.872C58.7484 56.024 59.0044 56.1 59.3404 56.1C59.9404 56.1 60.3844 55.948 60.6724 55.644C60.9604 55.34 61.1044 54.928 61.1044 54.408V54.048L60.2284 54.084ZM61.1284 56.184C60.8964 56.464 60.6124 56.696 60.2764 56.88C59.9404 57.064 59.5324 57.156 59.0524 57.156C58.7564 57.156 58.4804 57.116 58.2244 57.036C57.9684 56.964 57.7444 56.852 57.5524 56.7C57.3684 56.548 57.2204 56.356 57.1084 56.124C57.0044 55.884 56.9524 55.604 56.9524 55.284C56.9524 54.852 57.0484 54.504 57.2404 54.24C57.4324 53.968 57.6804 53.756 57.9844 53.604C58.2964 53.452 58.6444 53.348 59.0284 53.292C59.4124 53.228 59.7964 53.188 60.1804 53.172L61.1044 53.124V52.86C61.1044 52.388 60.9884 52.064 60.7564 51.888C60.5324 51.704 60.2364 51.612 59.8684 51.612C59.4444 51.612 59.1284 51.684 58.9204 51.828C58.7204 51.972 58.5884 52.18 58.5244 52.452L57.2764 52.32C57.3884 51.712 57.6644 51.268 58.1044 50.988C58.5444 50.708 59.1484 50.568 59.9164 50.568C60.4124 50.568 60.8204 50.632 61.1404 50.76C61.4684 50.888 61.7284 51.064 61.9204 51.288C62.1124 51.512 62.2444 51.78 62.3164 52.092C62.3964 52.396 62.4364 52.732 62.4364 53.1V57H61.1284V56.184ZM3.09027 65.76H4.42227V66.624C4.67827 66.28 4.97027 66.02 5.29827 65.844C5.63427 65.66 6.01827 65.568 6.45027 65.568C6.89027 65.568 7.27427 65.648 7.60227 65.808C7.93027 65.96 8.20227 66.18 8.41827 66.468C8.64227 66.756 8.80627 67.104 8.91027 67.512C9.02227 67.912 9.07827 68.36 9.07827 68.856C9.07827 69.36 9.01427 69.82 8.88627 70.236C8.75827 70.644 8.57427 70.996 8.33427 71.292C8.10227 71.58 7.81827 71.804 7.48227 71.964C7.14627 72.116 6.76627 72.192 6.34227 72.192C6.00627 72.192 5.67827 72.128 5.35827 72C5.03827 71.872 4.73827 71.636 4.45827 71.292V74.328H3.09027V65.76ZM4.44627 68.988C4.44627 69.396 4.49027 69.736 4.57827 70.008C4.66627 70.272 4.78227 70.484 4.92627 70.644C5.07827 70.804 5.25027 70.916 5.44227 70.98C5.64227 71.044 5.85027 71.076 6.06627 71.076C6.29027 71.076 6.49827 71.036 6.69027 70.956C6.88227 70.876 7.05027 70.748 7.19427 70.572C7.33827 70.396 7.45027 70.168 7.53027 69.888C7.61027 69.608 7.65027 69.268 7.65027 68.868C7.65027 68.46 7.60627 68.12 7.51827 67.848C7.43827 67.568 7.32627 67.344 7.18227 67.176C7.04627 67 6.88627 66.876 6.70227 66.804C6.51827 66.732 6.32627 66.696 6.12627 66.696C5.63827 66.696 5.23427 66.856 4.91427 67.176C4.60227 67.496 4.44627 68 4.44627 68.688V68.988ZM11.7465 65.76V66.684C11.9625 66.356 12.2225 66.104 12.5265 65.928C12.8305 65.752 13.1545 65.664 13.4985 65.664C13.6345 65.664 13.7465 65.668 13.8345 65.676C13.9305 65.684 14.0225 65.696 14.1105 65.712L13.9545 66.96C13.8665 66.936 13.7705 66.92 13.6665 66.912C13.5625 66.904 13.4545 66.9 13.3425 66.9C13.0865 66.9 12.8625 66.944 12.6705 67.032C12.4785 67.112 12.3145 67.22 12.1785 67.356C12.0505 67.492 11.9505 67.648 11.8785 67.824C11.8145 67.992 11.7825 68.164 11.7825 68.34V72H10.4265V65.76H11.7465ZM20.3767 70.152C20.2647 70.8 19.9887 71.304 19.5487 71.664C19.1087 72.016 18.4767 72.192 17.6527 72.192C16.6607 72.192 15.9047 71.908 15.3847 71.34C14.8727 70.764 14.6167 69.956 14.6167 68.916C14.6167 68.38 14.6887 67.904 14.8327 67.488C14.9847 67.072 15.1927 66.724 15.4567 66.444C15.7287 66.156 16.0487 65.94 16.4167 65.796C16.7927 65.644 17.2047 65.568 17.6527 65.568C18.1327 65.568 18.5487 65.644 18.9007 65.796C19.2527 65.94 19.5447 66.148 19.7767 66.42C20.0087 66.684 20.1807 67.004 20.2927 67.38C20.4047 67.748 20.4607 68.16 20.4607 68.616V69.216H15.9847C16.0007 69.784 16.1447 70.244 16.4167 70.596C16.6887 70.948 17.1007 71.124 17.6527 71.124C18.0847 71.124 18.4087 71.04 18.6247 70.872C18.8407 70.704 18.9847 70.464 19.0567 70.152H20.3767ZM19.1287 68.268C19.1287 67.756 19.0087 67.352 18.7687 67.056C18.5287 66.76 18.1447 66.612 17.6167 66.612C17.1127 66.612 16.7287 66.764 16.4647 67.068C16.2007 67.364 16.0487 67.764 16.0087 68.268H19.1287ZM19.5847 63.108L17.8687 64.884H16.5847L17.9887 63.108H19.5847ZM25.2469 67.776V69.132H21.6949V67.776H25.2469ZM26.5746 65.76H27.9066V66.624C28.1626 66.28 28.4546 66.02 28.7826 65.844C29.1186 65.66 29.5026 65.568 29.9346 65.568C30.3746 65.568 30.7586 65.648 31.0866 65.808C31.4146 65.96 31.6866 66.18 31.9026 66.468C32.1266 66.756 32.2906 67.104 32.3946 67.512C32.5066 67.912 32.5626 68.36 32.5626 68.856C32.5626 69.36 32.4986 69.82 32.3706 70.236C32.2426 70.644 32.0586 70.996 31.8186 71.292C31.5866 71.58 31.3026 71.804 30.9666 71.964C30.6306 72.116 30.2506 72.192 29.8266 72.192C29.4906 72.192 29.1626 72.128 28.8426 72C28.5226 71.872 28.2226 71.636 27.9426 71.292V74.328H26.5746V65.76ZM27.9306 68.988C27.9306 69.396 27.9746 69.736 28.0626 70.008C28.1506 70.272 28.2666 70.484 28.4106 70.644C28.5626 70.804 28.7346 70.916 28.9266 70.98C29.1266 71.044 29.3346 71.076 29.5506 71.076C29.7746 71.076 29.9826 71.036 30.1746 70.956C30.3666 70.876 30.5346 70.748 30.6786 70.572C30.8226 70.396 30.9346 70.168 31.0146 69.888C31.0946 69.608 31.1346 69.268 31.1346 68.868C31.1346 68.46 31.0906 68.12 31.0026 67.848C30.9226 67.568 30.8106 67.344 30.6666 67.176C30.5306 67 30.3706 66.876 30.1866 66.804C30.0026 66.732 29.8106 66.696 29.6106 66.696C29.1226 66.696 28.7186 66.856 28.3986 67.176C28.0866 67.496 27.9306 68 27.9306 68.688V68.988ZM35.2309 65.76V66.684C35.4469 66.356 35.7069 66.104 36.0109 65.928C36.3149 65.752 36.6389 65.664 36.9829 65.664C37.1189 65.664 37.2309 65.668 37.3189 65.676C37.4149 65.684 37.5069 65.696 37.5949 65.712L37.4389 66.96C37.3509 66.936 37.2549 66.92 37.1509 66.912C37.0469 66.904 36.9389 66.9 36.8269 66.9C36.5709 66.9 36.3469 66.944 36.1549 67.032C35.9629 67.112 35.7989 67.22 35.6629 67.356C35.5349 67.492 35.4349 67.648 35.3629 67.824C35.2989 67.992 35.2669 68.164 35.2669 68.34V72H33.9109V65.76H35.2309ZM41.1851 71.088C41.7611 71.088 42.1811 70.892 42.4451 70.5C42.7171 70.1 42.8531 69.556 42.8531 68.868C42.8531 68.188 42.7171 67.652 42.4451 67.26C42.1811 66.868 41.7611 66.672 41.1851 66.672C40.6091 66.672 40.1851 66.872 39.9131 67.272C39.6491 67.664 39.5171 68.196 39.5171 68.868C39.5171 69.548 39.6451 70.088 39.9011 70.488C40.1651 70.888 40.5931 71.088 41.1851 71.088ZM41.1731 72.192C40.1971 72.192 39.4411 71.904 38.9051 71.328C38.3691 70.752 38.1011 69.936 38.1011 68.88C38.1011 68.384 38.1691 67.932 38.3051 67.524C38.4491 67.116 38.6531 66.768 38.9171 66.48C39.1811 66.192 39.5051 65.968 39.8891 65.808C40.2731 65.648 40.7091 65.568 41.1971 65.568C41.6931 65.568 42.1331 65.652 42.5171 65.82C42.9011 65.98 43.2211 66.204 43.4771 66.492C43.7411 66.78 43.9371 67.128 44.0651 67.536C44.2011 67.936 44.2691 68.376 44.2691 68.856C44.2691 69.4 44.1931 69.88 44.0411 70.296C43.8891 70.704 43.6731 71.052 43.3931 71.34C43.1211 71.62 42.7971 71.832 42.4211 71.976C42.0451 72.12 41.6291 72.192 41.1731 72.192ZM45.6176 65.76H46.9496V66.624C47.2056 66.28 47.4976 66.02 47.8256 65.844C48.1616 65.66 48.5456 65.568 48.9776 65.568C49.4176 65.568 49.8016 65.648 50.1296 65.808C50.4576 65.96 50.7296 66.18 50.9456 66.468C51.1696 66.756 51.3336 67.104 51.4376 67.512C51.5496 67.912 51.6056 68.36 51.6056 68.856C51.6056 69.36 51.5416 69.82 51.4136 70.236C51.2856 70.644 51.1016 70.996 50.8616 71.292C50.6296 71.58 50.3456 71.804 50.0096 71.964C49.6736 72.116 49.2936 72.192 48.8696 72.192C48.5336 72.192 48.2056 72.128 47.8856 72C47.5656 71.872 47.2656 71.636 46.9856 71.292V74.328H45.6176V65.76ZM46.9736 68.988C46.9736 69.396 47.0176 69.736 47.1056 70.008C47.1936 70.272 47.3096 70.484 47.4536 70.644C47.6056 70.804 47.7776 70.916 47.9696 70.98C48.1696 71.044 48.3776 71.076 48.5936 71.076C48.8176 71.076 49.0256 71.036 49.2176 70.956C49.4096 70.876 49.5776 70.748 49.7216 70.572C49.8656 70.396 49.9776 70.168 50.0576 69.888C50.1376 69.608 50.1776 69.268 50.1776 68.868C50.1776 68.46 50.1336 68.12 50.0456 67.848C49.9656 67.568 49.8536 67.344 49.7096 67.176C49.5736 67 49.4136 66.876 49.2296 66.804C49.0456 66.732 48.8536 66.696 48.6536 66.696C48.1656 66.696 47.7616 66.856 47.4416 67.176C47.1296 67.496 46.9736 68 46.9736 68.688V68.988ZM55.7046 71.088C56.2806 71.088 56.7006 70.892 56.9646 70.5C57.2366 70.1 57.3726 69.556 57.3726 68.868C57.3726 68.188 57.2366 67.652 56.9646 67.26C56.7006 66.868 56.2806 66.672 55.7046 66.672C55.1286 66.672 54.7046 66.872 54.4326 67.272C54.1686 67.664 54.0366 68.196 54.0366 68.868C54.0366 69.548 54.1646 70.088 54.4206 70.488C54.6846 70.888 55.1126 71.088 55.7046 71.088ZM55.6926 72.192C54.7166 72.192 53.9606 71.904 53.4246 71.328C52.8886 70.752 52.6206 69.936 52.6206 68.88C52.6206 68.384 52.6886 67.932 52.8246 67.524C52.9686 67.116 53.1726 66.768 53.4366 66.48C53.7006 66.192 54.0246 65.968 54.4086 65.808C54.7926 65.648 55.2286 65.568 55.7166 65.568C56.2126 65.568 56.6526 65.652 57.0366 65.82C57.4206 65.98 57.7406 66.204 57.9966 66.492C58.2606 66.78 58.4566 67.128 58.5846 67.536C58.7206 67.936 58.7886 68.376 58.7886 68.856C58.7886 69.4 58.7126 69.88 58.5606 70.296C58.4086 70.704 58.1926 71.052 57.9126 71.34C57.6406 71.62 57.3166 71.832 56.9406 71.976C56.5646 72.12 56.1486 72.192 55.6926 72.192ZM61.0851 70.092C61.1091 70.3 61.1651 70.472 61.2531 70.608C61.3411 70.736 61.4491 70.84 61.5771 70.92C61.7131 71 61.8691 71.056 62.0451 71.088C62.2211 71.112 62.4091 71.124 62.6091 71.124C63.0651 71.124 63.3931 71.056 63.5931 70.92C63.7931 70.784 63.8931 70.584 63.8931 70.32C63.8931 70.112 63.8291 69.936 63.7011 69.792C63.5811 69.648 63.3291 69.544 62.9451 69.48C62.4491 69.392 62.0131 69.308 61.6371 69.228C61.2611 69.148 60.9451 69.04 60.6891 68.904C60.4331 68.76 60.2411 68.58 60.1131 68.364C59.9851 68.14 59.9211 67.84 59.9211 67.464C59.9211 67.176 59.9851 66.916 60.1131 66.684C60.2411 66.444 60.4171 66.244 60.6411 66.084C60.8731 65.916 61.1451 65.788 61.4571 65.7C61.7771 65.612 62.1251 65.568 62.5011 65.568C62.9811 65.568 63.3811 65.616 63.7011 65.712C64.0211 65.808 64.2811 65.94 64.4811 66.108C64.6811 66.276 64.8331 66.468 64.9371 66.684C65.0411 66.9 65.1211 67.128 65.1771 67.368L63.9531 67.536C63.8571 67.224 63.7091 66.992 63.5091 66.84C63.3171 66.688 62.9931 66.612 62.5371 66.612C62.2731 66.612 62.0571 66.636 61.8891 66.684C61.7211 66.732 61.5851 66.792 61.4811 66.864C61.3851 66.936 61.3171 67.016 61.2771 67.104C61.2451 67.192 61.2291 67.28 61.2291 67.368C61.2291 67.504 61.2451 67.616 61.2771 67.704C61.3091 67.792 61.3651 67.864 61.4451 67.92C61.5331 67.976 61.6491 68.024 61.7931 68.064C61.9371 68.104 62.1171 68.144 62.3331 68.184L63.1131 68.316C63.5291 68.388 63.8731 68.48 64.1451 68.592C64.4251 68.704 64.6451 68.844 64.8051 69.012C64.9731 69.172 65.0891 69.36 65.1531 69.576C65.2171 69.792 65.2491 70.032 65.2491 70.296C65.2491 70.864 65.0331 71.324 64.6011 71.676C64.1691 72.02 63.5131 72.192 62.6331 72.192C62.2731 72.192 61.9251 72.156 61.5891 72.084C61.2611 72.02 60.9651 71.908 60.7011 71.748C60.4371 71.588 60.2211 71.376 60.0531 71.112C59.8931 70.84 59.8011 70.5 59.7771 70.092H61.0851ZM65.9004 66.84V65.76H66.8844V64.08H68.2404V65.76H69.7884V66.84H68.2404V70.104C68.2404 70.424 68.3044 70.656 68.4324 70.8C68.5684 70.944 68.7644 71.016 69.0204 71.016C69.1564 71.016 69.2844 71.008 69.4044 70.992C69.5324 70.976 69.6564 70.948 69.7764 70.908L69.9804 71.928C69.5964 72.056 69.1804 72.12 68.7324 72.12C68.0444 72.12 67.5644 71.944 67.2924 71.592C67.0204 71.232 66.8844 70.696 66.8844 69.984V66.84H65.9004ZM73.7518 69.084C73.3438 69.108 73.0118 69.152 72.7558 69.216C72.5078 69.28 72.3158 69.364 72.1798 69.468C72.0438 69.564 71.9518 69.68 71.9038 69.816C71.8638 69.944 71.8438 70.084 71.8438 70.236C71.8438 70.508 71.9278 70.72 72.0958 70.872C72.2718 71.024 72.5278 71.1 72.8638 71.1C73.4638 71.1 73.9078 70.948 74.1958 70.644C74.4838 70.34 74.6278 69.928 74.6278 69.408V69.048L73.7518 69.084ZM74.6518 71.184C74.4198 71.464 74.1358 71.696 73.7998 71.88C73.4638 72.064 73.0558 72.156 72.5758 72.156C72.2798 72.156 72.0038 72.116 71.7478 72.036C71.4918 71.964 71.2678 71.852 71.0758 71.7C70.8918 71.548 70.7438 71.356 70.6318 71.124C70.5278 70.884 70.4758 70.604 70.4758 70.284C70.4758 69.852 70.5718 69.504 70.7638 69.24C70.9558 68.968 71.2038 68.756 71.5078 68.604C71.8198 68.452 72.1678 68.348 72.5518 68.292C72.9358 68.228 73.3198 68.188 73.7038 68.172L74.6278 68.124V67.86C74.6278 67.388 74.5118 67.064 74.2798 66.888C74.0558 66.704 73.7598 66.612 73.3918 66.612C72.9678 66.612 72.6518 66.684 72.4438 66.828C72.2438 66.972 72.1118 67.18 72.0478 67.452L70.7998 67.32C70.9118 66.712 71.1878 66.268 71.6278 65.988C72.0678 65.708 72.6718 65.568 73.4398 65.568C73.9358 65.568 74.3438 65.632 74.6638 65.76C74.9918 65.888 75.2518 66.064 75.4438 66.288C75.6358 66.512 75.7678 66.78 75.8398 67.092C75.9198 67.396 75.9598 67.732 75.9598 68.1V72H74.6518V71.184Z" fill="#96348B"/>
</g>
</g>
</svg>
