<svg xmlns="http://www.w3.org/2000/svg" width="21" height="25" viewBox="0 0 21 25">
    <g fill="none" fill-rule="evenodd">
        <g fill="#FFF">
            <g>
                <g>
                    <path d="M14.152 21.154C13.532 23.718 12.314 25 10.5 25s-3.032-1.282-3.652-3.846h7.304zM10.478 0l.232.003c3.748.118 6.638 3.561 6.638 7.51v6.19c0 .869.629 1.584 1.45 1.68l.014.001c1.208 0 2.188.437 2.188 2.404 0 1.312-.73 2.113-2.188 2.404H2.188C.729 19.692 0 18.892 0 17.788c0-1.654.98-2.404 2.188-2.404l.014-.001c.821-.096 1.45-.811 1.45-1.68V7.21c0-4.057 3.18-7.33 7.058-7.208z" transform="translate(-1079 -25) translate(1079 23) translate(0 2)"/>
                </g>
            </g>
        </g>
    </g>
</svg>
