<svg width="80" height="64" viewBox="0 0 80 64" fill="none" xmlns="http://www.w3.org/2000/svg">
<g id="Proposta">
<g id="Group 24">
<g id="Icone">
<path id="Path (Stroke)" fill-rule="evenodd" clip-rule="evenodd" d="M31.4429 8.7C30.3573 8.7 29.7 9.47256 29.7 10.164V27.536C29.7 28.2274 30.3573 29 31.4429 29H41.8501V31.7H31.4429C29.1119 31.7 27 29.9531 27 27.536V10.164C27 7.74694 29.1119 6 31.4429 6H47.2571C49.5881 6 51.7 7.74694 51.7 10.164V17.85L49 20.35V10.164C49 9.47256 48.3427 8.7 47.2571 8.7H31.4429Z" fill="#96348B"/>
<g id="Group">
<path id="Path" d="M35.9805 14.3943L45.4339 14.3199" stroke="#96348B" stroke-width="2.7" stroke-linecap="round" stroke-linejoin="bevel"/>
<ellipse id="Oval" cx="32.0047" cy="14.3933" rx="1.11797" ry="1.12254" fill="#96348B"/>
<g id="Group_2">
<path id="Path_2" d="M35.9805 19.1629L45.4339 19.0886" stroke="#96348B" stroke-width="2.7" stroke-linecap="round" stroke-linejoin="bevel"/>
<ellipse id="Oval_2" cx="32.0047" cy="19.162" rx="1.11797" ry="1.12254" fill="#96348B"/>
</g>
<g id="Group_3">
<path id="Path_3" d="M36.3501 23.902L44.3501 23.798" stroke="#96348B" stroke-width="2.7" stroke-linecap="round" stroke-linejoin="bevel"/>
<ellipse id="Oval_3" cx="32.0047" cy="23.9306" rx="1.11797" ry="1.12254" fill="#96348B"/>
</g>
</g>
<g id="edit / edit">
<path id="icon" d="M44.7701 31.929C44.4896 31.9285 44.2222 31.8102 44.0331 31.603C43.8405 31.3975 43.7449 31.1195 43.7701 30.839L44.0151 28.145L55.3331 16.831L58.8701 20.367L47.5551 31.68L44.8611 31.925C44.8301 31.928 44.7991 31.929 44.7701 31.929ZM59.5761 19.66L56.0401 16.124L58.1611 14.003C58.3487 13.8152 58.6032 13.7097 58.8686 13.7097C59.134 13.7097 59.3885 13.8152 59.5761 14.003L61.6971 16.124C61.8849 16.3116 61.9904 16.5661 61.9904 16.8315C61.9904 17.0969 61.8849 17.3514 61.6971 17.539L59.5771 19.659L59.5761 19.66Z" fill="#96348B"/>
</g>
</g>
<path id="Consulta pr&#195;&#169;-proposta" d="M3.65809 46.432H6.62209C7.27009 46.432 7.80209 46.504 8.21809 46.648C8.64209 46.792 8.97409 46.984 9.21409 47.224C9.45409 47.464 9.62209 47.744 9.71809 48.064C9.81409 48.376 9.86209 48.704 9.86209 49.048C9.86209 49.416 9.81409 49.768 9.71809 50.104C9.62209 50.44 9.45009 50.736 9.20209 50.992C8.96209 51.24 8.63409 51.44 8.21809 51.592C7.80209 51.736 7.27809 51.808 6.64609 51.808H5.08609V55H3.65809V46.432ZM6.61009 50.596C6.97809 50.596 7.27809 50.56 7.51009 50.488C7.75009 50.416 7.93809 50.316 8.07409 50.188C8.21009 50.052 8.30209 49.892 8.35009 49.708C8.40609 49.524 8.43409 49.316 8.43409 49.084C8.43409 48.844 8.40609 48.636 8.35009 48.46C8.29409 48.276 8.19409 48.124 8.05009 48.004C7.91409 47.884 7.72609 47.792 7.48609 47.728C7.25409 47.664 6.95809 47.632 6.59809 47.632H5.08609V50.596H6.61009ZM12.3227 48.76V49.684C12.5387 49.356 12.7987 49.104 13.1027 48.928C13.4067 48.752 13.7307 48.664 14.0747 48.664C14.2107 48.664 14.3227 48.668 14.4107 48.676C14.5067 48.684 14.5987 48.696 14.6867 48.712L14.5307 49.96C14.4427 49.936 14.3467 49.92 14.2427 49.912C14.1387 49.904 14.0307 49.9 13.9187 49.9C13.6627 49.9 13.4387 49.944 13.2467 50.032C13.0547 50.112 12.8907 50.22 12.7547 50.356C12.6267 50.492 12.5267 50.648 12.4547 50.824C12.3907 50.992 12.3587 51.164 12.3587 51.34V55H11.0027V48.76H12.3227ZM20.9529 53.152C20.8409 53.8 20.5649 54.304 20.1249 54.664C19.6849 55.016 19.0529 55.192 18.2289 55.192C17.2369 55.192 16.4809 54.908 15.9609 54.34C15.4489 53.764 15.1929 52.956 15.1929 51.916C15.1929 51.38 15.2649 50.904 15.4089 50.488C15.5609 50.072 15.7689 49.724 16.0329 49.444C16.3049 49.156 16.6249 48.94 16.9929 48.796C17.3689 48.644 17.7809 48.568 18.2289 48.568C18.7089 48.568 19.1249 48.644 19.4769 48.796C19.8289 48.94 20.1209 49.148 20.3529 49.42C20.5849 49.684 20.7569 50.004 20.8689 50.38C20.9809 50.748 21.0369 51.16 21.0369 51.616V52.216H16.5609C16.5769 52.784 16.7209 53.244 16.9929 53.596C17.2649 53.948 17.6769 54.124 18.2289 54.124C18.6609 54.124 18.9849 54.04 19.2009 53.872C19.4169 53.704 19.5609 53.464 19.6329 53.152H20.9529ZM19.7049 51.268C19.7049 50.756 19.5849 50.352 19.3449 50.056C19.1049 49.76 18.7209 49.612 18.1929 49.612C17.6889 49.612 17.3049 49.764 17.0409 50.068C16.7769 50.364 16.6249 50.764 16.5849 51.268H19.7049ZM20.1609 46.108L18.4449 47.884H17.1609L18.5649 46.108H20.1609ZM25.823 50.776V52.132H22.271V50.776H25.823ZM27.1508 48.76H28.4828V49.624C28.7388 49.28 29.0308 49.02 29.3588 48.844C29.6948 48.66 30.0788 48.568 30.5108 48.568C30.9508 48.568 31.3348 48.648 31.6628 48.808C31.9908 48.96 32.2628 49.18 32.4788 49.468C32.7028 49.756 32.8668 50.104 32.9708 50.512C33.0828 50.912 33.1388 51.36 33.1388 51.856C33.1388 52.36 33.0748 52.82 32.9468 53.236C32.8188 53.644 32.6348 53.996 32.3948 54.292C32.1628 54.58 31.8788 54.804 31.5428 54.964C31.2068 55.116 30.8268 55.192 30.4028 55.192C30.0668 55.192 29.7388 55.128 29.4188 55C29.0988 54.872 28.7988 54.636 28.5188 54.292V57.328H27.1508V48.76ZM28.5068 51.988C28.5068 52.396 28.5508 52.736 28.6388 53.008C28.7268 53.272 28.8428 53.484 28.9868 53.644C29.1388 53.804 29.3108 53.916 29.5028 53.98C29.7028 54.044 29.9108 54.076 30.1268 54.076C30.3508 54.076 30.5588 54.036 30.7508 53.956C30.9428 53.876 31.1108 53.748 31.2548 53.572C31.3988 53.396 31.5108 53.168 31.5908 52.888C31.6708 52.608 31.7108 52.268 31.7108 51.868C31.7108 51.46 31.6668 51.12 31.5788 50.848C31.4988 50.568 31.3868 50.344 31.2428 50.176C31.1068 50 30.9468 49.876 30.7628 49.804C30.5788 49.732 30.3868 49.696 30.1868 49.696C29.6988 49.696 29.2948 49.856 28.9748 50.176C28.6628 50.496 28.5068 51 28.5068 51.688V51.988ZM35.807 48.76V49.684C36.023 49.356 36.283 49.104 36.587 48.928C36.891 48.752 37.215 48.664 37.559 48.664C37.695 48.664 37.807 48.668 37.895 48.676C37.991 48.684 38.083 48.696 38.171 48.712L38.015 49.96C37.927 49.936 37.831 49.92 37.727 49.912C37.623 49.904 37.515 49.9 37.403 49.9C37.147 49.9 36.923 49.944 36.731 50.032C36.539 50.112 36.375 50.22 36.239 50.356C36.111 50.492 36.011 50.648 35.939 50.824C35.875 50.992 35.843 51.164 35.843 51.34V55H34.487V48.76H35.807ZM41.7613 54.088C42.3373 54.088 42.7573 53.892 43.0213 53.5C43.2933 53.1 43.4293 52.556 43.4293 51.868C43.4293 51.188 43.2933 50.652 43.0213 50.26C42.7573 49.868 42.3373 49.672 41.7613 49.672C41.1853 49.672 40.7613 49.872 40.4893 50.272C40.2253 50.664 40.0933 51.196 40.0933 51.868C40.0933 52.548 40.2213 53.088 40.4773 53.488C40.7413 53.888 41.1693 54.088 41.7613 54.088ZM41.7493 55.192C40.7733 55.192 40.0173 54.904 39.4813 54.328C38.9453 53.752 38.6773 52.936 38.6773 51.88C38.6773 51.384 38.7453 50.932 38.8813 50.524C39.0253 50.116 39.2293 49.768 39.4933 49.48C39.7573 49.192 40.0813 48.968 40.4653 48.808C40.8493 48.648 41.2853 48.568 41.7733 48.568C42.2693 48.568 42.7093 48.652 43.0933 48.82C43.4773 48.98 43.7973 49.204 44.0533 49.492C44.3173 49.78 44.5133 50.128 44.6413 50.536C44.7773 50.936 44.8453 51.376 44.8453 51.856C44.8453 52.4 44.7693 52.88 44.6173 53.296C44.4653 53.704 44.2493 54.052 43.9693 54.34C43.6973 54.62 43.3733 54.832 42.9973 54.976C42.6213 55.12 42.2053 55.192 41.7493 55.192ZM46.1938 48.76H47.5258V49.624C47.7818 49.28 48.0738 49.02 48.4018 48.844C48.7378 48.66 49.1218 48.568 49.5538 48.568C49.9938 48.568 50.3778 48.648 50.7058 48.808C51.0338 48.96 51.3058 49.18 51.5218 49.468C51.7458 49.756 51.9098 50.104 52.0138 50.512C52.1258 50.912 52.1818 51.36 52.1818 51.856C52.1818 52.36 52.1178 52.82 51.9898 53.236C51.8618 53.644 51.6778 53.996 51.4378 54.292C51.2058 54.58 50.9218 54.804 50.5858 54.964C50.2498 55.116 49.8698 55.192 49.4458 55.192C49.1098 55.192 48.7818 55.128 48.4618 55C48.1418 54.872 47.8418 54.636 47.5618 54.292V57.328H46.1938V48.76ZM47.5498 51.988C47.5498 52.396 47.5938 52.736 47.6818 53.008C47.7698 53.272 47.8858 53.484 48.0298 53.644C48.1818 53.804 48.3538 53.916 48.5458 53.98C48.7458 54.044 48.9538 54.076 49.1698 54.076C49.3938 54.076 49.6018 54.036 49.7938 53.956C49.9858 53.876 50.1538 53.748 50.2978 53.572C50.4418 53.396 50.5538 53.168 50.6338 52.888C50.7138 52.608 50.7538 52.268 50.7538 51.868C50.7538 51.46 50.7098 51.12 50.6218 50.848C50.5418 50.568 50.4298 50.344 50.2858 50.176C50.1498 50 49.9898 49.876 49.8058 49.804C49.6218 49.732 49.4298 49.696 49.2298 49.696C48.7418 49.696 48.3378 49.856 48.0178 50.176C47.7058 50.496 47.5498 51 47.5498 51.688V51.988ZM56.2808 54.088C56.8568 54.088 57.2768 53.892 57.5408 53.5C57.8128 53.1 57.9488 52.556 57.9488 51.868C57.9488 51.188 57.8128 50.652 57.5408 50.26C57.2768 49.868 56.8568 49.672 56.2808 49.672C55.7048 49.672 55.2808 49.872 55.0088 50.272C54.7448 50.664 54.6128 51.196 54.6128 51.868C54.6128 52.548 54.7408 53.088 54.9968 53.488C55.2608 53.888 55.6888 54.088 56.2808 54.088ZM56.2688 55.192C55.2928 55.192 54.5368 54.904 54.0008 54.328C53.4648 53.752 53.1968 52.936 53.1968 51.88C53.1968 51.384 53.2648 50.932 53.4008 50.524C53.5448 50.116 53.7488 49.768 54.0128 49.48C54.2768 49.192 54.6008 48.968 54.9848 48.808C55.3688 48.648 55.8048 48.568 56.2928 48.568C56.7888 48.568 57.2288 48.652 57.6128 48.82C57.9968 48.98 58.3168 49.204 58.5728 49.492C58.8368 49.78 59.0328 50.128 59.1608 50.536C59.2968 50.936 59.3648 51.376 59.3648 51.856C59.3648 52.4 59.2888 52.88 59.1368 53.296C58.9848 53.704 58.7688 54.052 58.4888 54.34C58.2168 54.62 57.8928 54.832 57.5168 54.976C57.1408 55.12 56.7248 55.192 56.2688 55.192ZM61.6613 53.092C61.6853 53.3 61.7413 53.472 61.8293 53.608C61.9173 53.736 62.0253 53.84 62.1533 53.92C62.2893 54 62.4453 54.056 62.6213 54.088C62.7973 54.112 62.9853 54.124 63.1853 54.124C63.6413 54.124 63.9693 54.056 64.1693 53.92C64.3693 53.784 64.4693 53.584 64.4693 53.32C64.4693 53.112 64.4053 52.936 64.2773 52.792C64.1573 52.648 63.9053 52.544 63.5213 52.48C63.0253 52.392 62.5893 52.308 62.2133 52.228C61.8373 52.148 61.5213 52.04 61.2653 51.904C61.0093 51.76 60.8173 51.58 60.6893 51.364C60.5613 51.14 60.4973 50.84 60.4973 50.464C60.4973 50.176 60.5613 49.916 60.6893 49.684C60.8173 49.444 60.9933 49.244 61.2173 49.084C61.4493 48.916 61.7213 48.788 62.0333 48.7C62.3533 48.612 62.7013 48.568 63.0773 48.568C63.5573 48.568 63.9573 48.616 64.2773 48.712C64.5973 48.808 64.8573 48.94 65.0573 49.108C65.2573 49.276 65.4093 49.468 65.5133 49.684C65.6173 49.9 65.6973 50.128 65.7533 50.368L64.5293 50.536C64.4333 50.224 64.2853 49.992 64.0853 49.84C63.8933 49.688 63.5693 49.612 63.1133 49.612C62.8493 49.612 62.6333 49.636 62.4653 49.684C62.2973 49.732 62.1613 49.792 62.0573 49.864C61.9613 49.936 61.8933 50.016 61.8533 50.104C61.8213 50.192 61.8053 50.28 61.8053 50.368C61.8053 50.504 61.8213 50.616 61.8533 50.704C61.8853 50.792 61.9413 50.864 62.0213 50.92C62.1093 50.976 62.2253 51.024 62.3693 51.064C62.5133 51.104 62.6933 51.144 62.9093 51.184L63.6893 51.316C64.1053 51.388 64.4493 51.48 64.7213 51.592C65.0013 51.704 65.2213 51.844 65.3813 52.012C65.5493 52.172 65.6653 52.36 65.7293 52.576C65.7933 52.792 65.8253 53.032 65.8253 53.296C65.8253 53.864 65.6093 54.324 65.1773 54.676C64.7453 55.02 64.0893 55.192 63.2093 55.192C62.8493 55.192 62.5013 55.156 62.1653 55.084C61.8373 55.02 61.5413 54.908 61.2773 54.748C61.0133 54.588 60.7973 54.376 60.6293 54.112C60.4693 53.84 60.3773 53.5 60.3533 53.092H61.6613ZM66.4766 49.84V48.76H67.4606V47.08H68.8166V48.76H70.3646V49.84H68.8166V53.104C68.8166 53.424 68.8806 53.656 69.0086 53.8C69.1446 53.944 69.3406 54.016 69.5966 54.016C69.7326 54.016 69.8606 54.008 69.9806 53.992C70.1086 53.976 70.2326 53.948 70.3526 53.908L70.5566 54.928C70.1726 55.056 69.7566 55.12 69.3086 55.12C68.6206 55.12 68.1406 54.944 67.8686 54.592C67.5966 54.232 67.4606 53.696 67.4606 52.984V49.84H66.4766ZM74.328 52.084C73.92 52.108 73.588 52.152 73.332 52.216C73.084 52.28 72.892 52.364 72.756 52.468C72.62 52.564 72.528 52.68 72.48 52.816C72.44 52.944 72.42 53.084 72.42 53.236C72.42 53.508 72.504 53.72 72.672 53.872C72.848 54.024 73.104 54.1 73.44 54.1C74.04 54.1 74.484 53.948 74.772 53.644C75.06 53.34 75.204 52.928 75.204 52.408V52.048L74.328 52.084ZM75.228 54.184C74.996 54.464 74.712 54.696 74.376 54.88C74.04 55.064 73.632 55.156 73.152 55.156C72.856 55.156 72.58 55.116 72.324 55.036C72.068 54.964 71.844 54.852 71.652 54.7C71.468 54.548 71.32 54.356 71.208 54.124C71.104 53.884 71.052 53.604 71.052 53.284C71.052 52.852 71.148 52.504 71.34 52.24C71.532 51.968 71.78 51.756 72.084 51.604C72.396 51.452 72.744 51.348 73.128 51.292C73.512 51.228 73.896 51.188 74.28 51.172L75.204 51.124V50.86C75.204 50.388 75.088 50.064 74.856 49.888C74.632 49.704 74.336 49.612 73.968 49.612C73.544 49.612 73.228 49.684 73.02 49.828C72.82 49.972 72.688 50.18 72.624 50.452L71.376 50.32C71.488 49.712 71.764 49.268 72.204 48.988C72.644 48.708 73.248 48.568 74.016 48.568C74.512 48.568 74.92 48.632 75.24 48.76C75.568 48.888 75.828 49.064 76.02 49.288C76.212 49.512 76.344 49.78 76.416 50.092C76.496 50.396 76.536 50.732 76.536 51.1V55H75.228V54.184Z" fill="#96348B"/>
</g>
</g>
</svg>
