<svg xmlns="http://www.w3.org/2000/svg" width="234" height="82" viewBox="0 0 234 82">
    <g fill="none" fill-rule="evenodd">
        <g fill="#E4002B">
            <g>
                <g fill-rule="nonzero">
                    <path d="M.144 10.99c-.085-.067-.137-.167-.144-.275.007-.114.053-.222.129-.307l.131-.163c.072-.098.185-.158.306-.162.112.002.22.042.306.113.626.438 1.38.654 2.143.614.98 0 1.617-.307 1.617-1.08 0-.773-.717-1.095-1.813-1.243C1.365 8.291.141 7.898.141 6.196c0-1.212 1.126-2.19 2.923-2.19.944-.052 1.868.28 2.566.92.088.077.14.188.143.306-.006.114-.052.222-.128.307l-.162.178c-.077.09-.188.145-.306.15-.114.002-.223-.04-.307-.116-.533-.41-1.2-.608-1.87-.556-1.176 0-1.552.491-1.552 1.031 0 .77.612.92 1.797 1.11C4.616 7.553 6 7.994 6 9.647 6 10.989 4.953 12 3.126 12c-1.35-.012-2.269-.362-2.982-1.01zM8.001 8.483V4.438c-.009-.118.031-.235.11-.319.079-.084.188-.127.299-.117h.47c.11-.009.218.035.296.119.078.083.118.2.109.317v4.167c0 1.472.643 2.196 1.74 2.196 1.427 0 2.32-.972 2.32-2.68V4.439c-.012-.118.026-.237.105-.321.079-.085.19-.127.3-.115h.47c.111-.01.22.033.299.117.078.084.119.2.11.32V9.96c.014.388.114.767.293 1.105.127.25.112.436-.14.568l-.344.185c-.085.061-.19.083-.29.062-.1-.022-.187-.086-.242-.178-.231-.353-.377-.762-.423-1.19-.568.927-1.534 1.486-2.57 1.488C9.114 12.012 8 10.877 8 8.483zM18 9.72c0-1.409 1.053-2.455 3.126-2.455.758-.01 1.51.123 2.22.393V7.46c0-1.684-.88-2.277-1.98-2.277-.762-.033-1.513.192-2.136.642-.08.06-.174.095-.273.098-.12-.004-.23-.066-.299-.166l-.161-.196c-.076-.084-.121-.193-.126-.307.01-.124.074-.236.174-.307.846-.703 1.708-.948 2.92-.948 1.693 0 3.159 1.062 3.159 3.271v2.734c.013.38.116.75.299 1.08.126.246.11.427-.144.556l-.353.18c-.086.06-.192.083-.294.061-.102-.021-.19-.084-.247-.174-.234-.333-.382-.721-.431-1.129-.479.767-1.403 1.42-2.776 1.42-1.706.01-2.678-.938-2.678-2.28zm5.346-.982V8.64c-.657-.208-1.34-.312-2.028-.307-1.532 0-2.04.506-2.04 1.34 0 .903.7 1.164 1.531 1.164 1.571.012 2.49-.872 2.537-2.1zM30.001 14.583V4.605c-.01-.115.034-.229.12-.31.085-.083.204-.125.325-.117h.273c.24-.02.455.137.499.363.078.289.125.585.138.883.663-.91 1.758-1.443 2.92-1.423C36.506 4 38 5.67 38 8.026 38 10.383 36.455 12 34.224 12c-1.107.015-2.154-.477-2.816-1.323v3.894c.013.117-.03.233-.116.316-.087.083-.21.123-.331.11h-.515c-.119.009-.235-.032-.32-.111-.085-.08-.13-.19-.125-.303zm6.573-6.495c0-1.866-.966-2.882-2.42-2.882-1.61 0-2.746.92-2.746 2.587v.424c0 1.669 1.098 2.602 2.694 2.602 1.461 0 2.472-.85 2.472-2.731zM40.002 11.574V4.62c-.013-.119.029-.237.114-.322.085-.084.204-.127.323-.115h.273c.235-.023.448.14.487.37.064.287.104.577.12.87.569-.887 1.556-1.423 2.616-1.422.282-.005.563.04.83.132.15.048.248.194.233.352 0 .08-.018.16-.05.235l-.152.386c-.048.169-.21.28-.386.267-.063.001-.126-.004-.187-.016-.144-.035-.292-.052-.44-.05-1.317 0-2.397.884-2.397 2.691v3.565c.013.119-.029.237-.115.322-.085.085-.205.127-.325.114h-.507c-.117.009-.232-.032-.315-.114-.084-.08-.128-.194-.122-.31zM46 7.865c0-2.321 1.645-4.153 4.016-4.153 2.37 0 3.984 1.746 3.984 4.153C54 10.175 52.355 12 50.016 12 47.623 12.003 46 10.292 46 7.865zm6.62 0c0-1.628-.994-2.916-2.592-2.916s-2.622 1.288-2.622 2.916c0 1.629.993 2.901 2.622 2.901 1.63 0 2.591-1.272 2.591-2.9zm-3.383-5.257c-.138-.009-.264-.085-.337-.204l-.1-.168c-.06-.085-.096-.185-.102-.29.007-.134.084-.255.202-.318l2.235-1.53c.078-.059.173-.093.27-.098.14.002.269.08.335.204l.17.235c.06.079.095.174.101.273-.01.144-.093.273-.22.338l-2.286 1.475c-.08.05-.173.078-.268.083zM55 11.725c-.001-.102.034-.2.099-.276l2.563-3.611-2.348-3.287c-.06-.08-.094-.176-.098-.276 0-.151.13-.273.36-.273h.542c.211-.018.414.087.527.273L58.534 7l1.848-2.725c.113-.185.314-.29.524-.273h.502c.231 0 .364.122.364.273-.006.1-.04.196-.099.276l-2.35 3.287 2.578 3.61c.066.076.102.175.099.277 0 .154-.13.273-.36.273h-.558c-.211.019-.415-.086-.527-.273l-2.086-2.998-2.055 2.998c-.112.187-.316.292-.527.273h-.523c-.231 0-.364-.119-.364-.273zM64 1.906c-.006-.242.1-.476.294-.647.195-.171.461-.265.736-.259.545.028.97.425.97.904 0 .48-.425.877-.97.905-.275.006-.54-.086-.735-.257-.195-.17-.302-.404-.295-.646zm.246 9.676v-6.83c-.015-.116.031-.232.125-.315.094-.083.225-.125.358-.113h.564c.132-.01.262.033.356.115.094.083.142.197.13.313v6.817c.015.118-.031.234-.126.317-.095.084-.227.125-.36.112h-.56c-.131.01-.26-.029-.355-.109-.094-.08-.144-.192-.136-.307h.004zM68.002 11.569v-6.95c-.011-.119.029-.237.11-.321.08-.085.192-.127.306-.115h.254c.223-.023.425.138.463.37.06.286.097.576.111.868.55-.897 1.503-1.434 2.521-1.42 1.23 0 2.094.552 2.551 1.62.58-1.032 1.65-1.653 2.794-1.62 1.848 0 2.886 1.185 2.886 3.577v3.978c.012.12-.028.238-.108.322-.081.085-.194.127-.308.114h-.478c-.113.01-.224-.033-.304-.117-.08-.084-.12-.201-.11-.319V7.481c0-1.455-.573-2.257-1.707-2.257-1.45 0-2.33 1.019-2.33 2.708v3.627c.013.119-.027.237-.107.321-.08.085-.192.127-.305.115h-.479c-.113.01-.224-.033-.304-.117-.08-.084-.12-.2-.112-.319V7.484c0-1.455-.598-2.257-1.722-2.257-1.42 0-2.312 1.019-2.312 2.708v3.627c.011.12-.029.237-.11.321-.08.085-.193.127-.306.115h-.478c-.112.01-.222-.033-.302-.115-.08-.083-.121-.197-.114-.314zM83 9.717c0-1.408 1.052-2.453 3.127-2.453.756-.011 1.507.122 2.215.392V7.46c0-1.684-.876-2.276-1.976-2.276-.762-.034-1.513.191-2.137.641-.079.06-.174.095-.272.098-.12-.004-.23-.065-.3-.165L83.5 5.56c-.078-.082-.124-.192-.128-.306.01-.125.075-.237.176-.307C84.39 4.245 85.254 4 86.465 4c1.69 0 3.157 1.061 3.157 3.27v2.733c.014.379.117.749.299 1.08.128.245.114.426-.144.554l-.35.181c-.085.061-.191.083-.294.062-.102-.021-.19-.085-.246-.175-.235-.333-.383-.721-.431-1.129-.621.936-1.672 1.474-2.774 1.42-1.707.01-2.682-.938-2.682-2.279zm5.342-.981v-.098c-.655-.208-1.338-.312-2.024-.307-1.53 0-2.041.506-2.041 1.34 0 .902.702 1.163 1.53 1.163 1.564.012 2.488-.871 2.535-2.098zM95 8.004C95 5.714 96.585 4 98.974 4c1.186 0 2.108.343 2.823 1.193.064.074.1.165.105.26-.01.131-.08.251-.193.328l-.19.148c-.078.076-.184.122-.297.128-.126-.014-.243-.072-.327-.162-.5-.484-1.2-.74-1.918-.702-1.569 0-2.526 1.177-2.526 2.811 0 1.57 1.026 2.796 2.578 2.796.738.02 1.45-.252 1.961-.75.083-.105.209-.17.347-.182.113.009.218.056.297.132l.193.163c.107.08.17.2.173.328-.006.1-.042.197-.105.279-.691.82-1.762 1.277-2.875 1.226-2.5-.003-4.02-1.652-4.02-3.992zM103 8.01c0-2.242 1.647-4.01 4.014-4.01C109.382 4 111 5.685 111 8.01c0 2.228-1.647 3.99-3.98 3.99-2.408.003-4.02-1.649-4.02-3.99zm6.612 0c0-1.573-.989-2.816-2.585-2.816s-2.639 1.24-2.639 2.815.992 2.8 2.62 2.8c1.628 0 2.591-1.228 2.591-2.8h.013zM114.002 11.561V4.618c-.012-.118.028-.236.11-.32.082-.085.198-.127.314-.115h.279c.223-.026.43.126.476.35.069.29.107.588.113.887.577-.909 1.575-1.446 2.636-1.419 1.896 0 3.068 1.118 3.068 3.523v4.025c.01.118-.03.234-.112.318-.082.084-.196.127-.311.117h-.491c-.116.01-.23-.033-.312-.117-.082-.084-.124-.2-.115-.318V7.47c0-1.488-.687-2.24-1.84-2.24-1.504 0-2.455 1.019-2.455 2.707v3.623c.012.12-.028.238-.111.322-.083.085-.2.127-.316.114h-.49c-.12.015-.238-.025-.324-.11-.086-.084-.13-.204-.119-.326zM128.603 14.57v-3.913c-.677.855-1.74 1.353-2.862 1.34-2.252 0-3.741-1.65-3.741-4.007 0-2.357 1.608-3.99 3.86-3.99 1.094-.023 2.132.465 2.778 1.308.018-.257.053-.514.103-.767.04-.226.256-.385.496-.362h.315c.12-.009.24.034.326.116.085.081.13.195.12.31v9.967c.01.116-.035.23-.12.311-.086.082-.205.124-.326.116h-.515c-.12.005-.235-.04-.318-.122-.083-.082-.125-.194-.116-.308zm0-6.368v-.424c0-1.669-1.061-2.587-2.657-2.587-1.46 0-2.521.866-2.521 2.762 0 1.897.965 2.863 2.418 2.863 1.596-.012 2.76-.945 2.76-2.614zM133.001 8.483V4.438c-.009-.118.031-.234.109-.318.078-.083.186-.127.296-.118h.476c.11-.01.22.033.298.117.079.084.119.2.11.32v4.166c0 1.472.643 2.196 1.738 2.196 1.423 0 2.316-.972 2.316-2.68V4.439c-.011-.119.028-.237.107-.321.08-.085.19-.127.3-.115h.47c.111-.009.22.035.298.118.078.084.119.2.11.318V9.96c.015.388.115.767.294 1.105.126.25.109.436-.14.568l-.344.185c-.085.061-.19.084-.29.062-.1-.022-.189-.086-.244-.178-.23-.354-.375-.762-.423-1.19-.566.927-1.53 1.487-2.566 1.488-1.8.012-2.915-1.123-2.915-3.517zM142 1.906c-.007-.242.098-.476.293-.647.194-.171.46-.265.736-.259.545.028.971.425.971.904 0 .48-.426.877-.971.905-.275.006-.542-.086-.736-.257-.195-.171-.3-.405-.293-.646zm.243 9.676v-6.83c-.015-.117.032-.233.126-.316.095-.084.228-.125.361-.112h.562c.131-.008.26.034.354.117.093.082.14.196.13.311v6.818c.014.116-.032.232-.126.315-.094.083-.226.125-.358.113h-.562c-.13.009-.257-.031-.35-.111-.094-.08-.144-.19-.137-.305zM146.147 10.99c-.085-.067-.139-.167-.147-.275.009-.114.055-.222.132-.307l.132-.163c.071-.098.184-.158.306-.162.112.002.22.042.306.113.627.438 1.382.654 2.145.614.981 0 1.618-.307 1.618-1.08 0-.773-.72-1.095-1.814-1.243-1.455-.196-2.681-.589-2.681-2.291 0-1.212 1.128-2.19 2.926-2.19.944-.052 1.869.28 2.565.92.09.077.143.188.147.306-.008.114-.053.222-.128.307l-.166.178c-.076.091-.187.146-.306.15-.113.002-.223-.04-.307-.116-.536-.411-1.205-.609-1.878-.555-1.177 0-1.554.49-1.554 1.03 0 .77.613.92 1.8 1.11 1.372.216 2.757.657 2.757 2.311 0 1.34-1.048 2.353-2.877 2.353-1.34-.012-2.271-.362-2.976-1.01zM154.668 8.544V5.365h-1.211c-.124.012-.247-.03-.335-.112-.088-.083-.132-.199-.12-.315V4.58c-.009-.115.036-.229.124-.311.087-.082.208-.124.331-.116h1.22V2.429c-.011-.116.032-.232.12-.315.089-.082.212-.124.336-.112h.524c.123-.008.244.034.331.116.087.082.132.196.124.311v1.737h3.017c.124-.01.245.033.333.115.088.082.132.197.122.313v.344c.01.116-.034.23-.122.312-.088.083-.21.125-.333.115h-3.017v3.278c0 1.444.608 2.152 1.849 2.152.41-.01.812-.116 1.168-.308.092-.047.194-.074.298-.08.139.007.263.082.328.197l.14.212c.068.09.104.197.105.308-.005.105-.063.202-.157.26-.562.408-1.254.625-1.964.616-2.006.003-3.21-1.095-3.21-3.456zM161 9.72c0-1.409 1.053-2.455 3.126-2.455.758-.01 1.51.123 2.22.393V7.46c0-1.684-.88-2.277-1.98-2.277-.762-.033-1.513.192-2.136.642-.08.06-.174.095-.273.098-.12-.004-.23-.066-.299-.166l-.161-.196c-.076-.084-.121-.193-.126-.307.01-.124.074-.236.174-.307.846-.703 1.708-.948 2.92-.948 1.693 0 3.159 1.062 3.159 3.271v2.734c.013.38.116.75.299 1.08.126.246.11.427-.144.556l-.353.18c-.086.06-.192.083-.294.061-.102-.021-.19-.084-.247-.174-.234-.333-.382-.721-.431-1.129-.479.767-1.403 1.42-2.776 1.42-1.706.01-2.678-.938-2.678-2.28zm5.346-.982V8.64c-.657-.208-1.34-.312-2.028-.307-1.532 0-2.04.506-2.04 1.34 0 .903.7 1.164 1.531 1.164 1.562.012 2.49-.872 2.537-2.1z" transform="translate(-208 -140) translate(208 140) translate(34.5 67)"/>
                </g>
                <path fill-rule="nonzero" d="M217.78 49.004c-4.492 0-7.285-3.215-7.285-8.097 0-4.883 2.793-8.098 7.285-8.098 4.384 0 7.177 3.218 7.177 8.098 0 4.879-2.96 8.097-7.177 8.097m-34.618 0c-4.492 0-7.449-3.215-7.449-8.097 0-4.883 2.957-8.098 7.449-8.098 4.384 0 7.34 3.218 7.34 8.098 0 4.879-2.956 8.097-7.34 8.097m-71.92-9.318c.164-4.37 3.068-7.155 6.63-7.155 2.9 0 4.654 1.664 5.256 4.27l-11.885 2.885zm40.754-13.867c-4.273 0-7.504 1.664-9.477 4.162l-1.094-2.607c-.261-.685-.919-1.13-1.643-1.111h-3.891c-.876 0-1.424.499-1.424 1.442v26.413c0 .886.493 1.442 1.424 1.442h5.805c.385.027.762-.116 1.033-.393.271-.277.41-.66.38-1.05V40.07c0-4.44 2.684-7.433 6.683-7.433 3.669 0 5.805 2.329 5.805 7.099v14.36c0 .886.493 1.442 1.424 1.442h5.818c.876 0 1.424-.5 1.424-1.442V39.243c0-8.429-4.547-13.424-12.27-13.424m-33.962 0c-8.18.002-14.817 6.702-14.844 14.984 0 9.206 5.916 15.197 14.844 15.197 3.888 0 8.216-1.386 11.173-3.718.712-.553.768-1.33.222-2.05l-2.41-3.107c-.55-.721-1.262-.777-2.03-.278-1.914 1.22-4.007 2.107-6.242 2.107-3.231 0-5.315-1.33-6.475-3.827l18.35-4.324c.823-.168 1.261-.72 1.153-1.72-.925-8.375-5.642-13.258-13.75-13.258m99.308 0c-9.249.222-15.282 6.047-15.282 15.088 0 9.04 5.654 15.078 14.308 15.078 3.78 0 7.066-1.499 9.094-4.162l1.095 2.607c.26.685.918 1.13 1.643 1.111h3.89c.876 0 1.422-.5 1.422-1.442V41.571c0-9.649-6.474-15.973-16.158-15.752m-19.774-9.814h-5.805c-.386-.033-.767.108-1.041.385-.274.277-.414.663-.383 1.054v11.7c-2.3-2.329-5.423-3.328-8.546-3.328-8.765 0-14.57 6.047-14.57 15.087s5.805 15.088 14.462 15.088c3.943 0 7.174-1.608 9.249-4.162l1.097 2.607c.26.686.919 1.131 1.644 1.111h3.887c.386.03.766-.111 1.04-.389.274-.277.414-.662.384-1.053V17.444c0-.887-.493-1.44-1.424-1.44m-87.247 6.434v-4.994c.03-.391-.11-.776-.385-1.052-.274-.277-.654-.419-1.04-.387H78.925c-.875 0-1.424.496-1.424 1.439v4.994c0 .887.493 1.44 1.424 1.44h10.572v30.24c-.03.39.11.775.384 1.053.274.277.654.42 1.04.389h5.916c.386.03.766-.112 1.04-.39.274-.277.415-.661.385-1.052v-30.24h10.626c.876 0 1.425-.497 1.425-1.44" transform="translate(-208 -140) translate(208 140)"/>
                <path d="M35.784 15.175l31.86 8.54c.443.114.915.019 1.278-.257.363-.277.577-.703.578-1.156v-8.466c-.003-1.349-.873-2.546-2.165-2.98L35.945.158c-.626-.21-1.305-.21-1.93 0L2.65 10.844C1.364 11.283.5 12.479.5 13.824v8.466c0 .453.213.88.576 1.157.364.276.836.37 1.28.255l31.86-8.54c.514-.136 1.056-.132 1.568.013zm-15.466 8.89v28.832c0 1.162.953 2.103 2.128 2.103h25.139c1.175 0 2.128-.941 2.128-2.103v-28.91c.001-.63-.425-1.183-1.04-1.349l-12.99-3.518c-.447-.119-.916-.119-1.362 0l-12.89 3.49c-.663.18-1.123.776-1.122 1.456h.01z" transform="translate(-208 -140) translate(208 140)"/>
            </g>
        </g>
    </g>
</svg>
