<svg xmlns="http://www.w3.org/2000/svg" width="32" height="26" viewBox="0 0 32 26">
    <g fill="none" fill-rule="evenodd">
        <g fill="#FFF">
            <path d="M9.18 11.258v13.495c0 .543.44.984.985.984h11.648c.545 0 .987-.44.987-.984V11.218c0-.295-.198-.553-.483-.63L16.304 8.94c-.206-.056-.423-.056-.63 0L9.7 10.577c-.308.084-.52.363-.52.68zm7.169-4.162l14.764 3.998c.436.118.866-.21.866-.661V6.47c0-.63-.4-1.19-.998-1.396l-14.544-5c-.29-.1-.604-.1-.894 0l-14.546 5C.4 5.282 0 5.842 0 6.472v3.962c0 .451.43.779.866.66L15.63 7.097c.235-.063.483-.063.719 0z" transform="translate(-165 -823) translate(165 823)"/>
        </g>
    </g>
</svg>
