<svg xmlns="http://www.w3.org/2000/svg" xmlns:xlink="http://www.w3.org/1999/xlink" width="313" height="206" viewBox="0 0 313 206">
    <defs>
        <filter id="prefix__a" width="122.2%" height="134.2%" x="-11.1%" y="-17.1%" filterUnits="objectBoundingBox">
            <feOffset dy="10" in="SourceAlpha" result="shadowOffsetOuter1"/>
            <feGaussianBlur in="shadowOffsetOuter1" result="shadowBlurOuter1" stdDeviation="7.5"/>
            <feColorMatrix in="shadowBlurOuter1" result="shadowMatrixOuter1" values="0 0 0 0 0 0 0 0 0 0 0 0 0 0 0 0 0 0 0.2 0"/>
            <feMerge>
                <feMergeNode in="shadowMatrixOuter1"/>
                <feMergeNode in="SourceGraphic"/>
            </feMerge>
        </filter>
        <path id="prefix__b" d="M0 0.34L184.439 0.34 184.439 176.85 0 176.85z"/>
    </defs>
    <g fill="none" fill-rule="evenodd" filter="url(#prefix__a)" transform="translate(-61 -28)">
        <g>
            <path fill="#A6B9C8" d="M155.83 158.942c-5.715 0-10.366-4.65-10.366-10.365 0-5.717 4.65-10.367 10.366-10.367 5.716 0 10.366 4.65 10.366 10.367 0 5.715-4.65 10.365-10.366 10.365m0-155.567c-14.308 0-25.908 11.6-25.908 25.909v119.293c0 14.308 11.6 25.908 25.908 25.908 14.31 0 25.909-11.6 25.909-25.908V29.284c0-14.309-11.6-25.91-25.909-25.91" transform="translate(76 32)"/>
            <g transform="translate(76 32) translate(0 .335)">
                <mask id="prefix__c" fill="#fff">
                    <use xlink:href="#prefix__b"/>
                </mask>
                <path fill="#003D62" d="M155.83 119.633c-9.545 0-18.009 4.704-23.208 11.911V28.95c0-12.797 10.411-23.209 23.208-23.209 12.798 0 23.209 10.412 23.209 23.209v102.595c-5.2-7.207-13.663-11.91-23.209-11.91zm0 51.817c-12.797 0-23.208-10.41-23.208-23.208 0-12.798 10.411-23.209 23.208-23.209 12.798 0 23.209 10.411 23.209 23.209 0 12.797-10.411 23.208-23.209 23.208zm-150.43 0V33.46h121.822v114.783c0 9.546 4.704 18.009 11.911 23.208H5.4zM155.83.34c-15.476 0-28.112 12.355-28.586 27.719H2.7c-1.491 0-2.7 1.209-2.7 2.7V174.15c0 1.491 1.209 2.7 2.7 2.7h153.13c15.775 0 28.609-12.834 28.609-28.608V28.949C184.439 13.174 171.605.34 155.83.34z" mask="url(#prefix__c)"/>
            </g>
            <path fill="#003D62" d="M155.83 156.242c-4.226 0-7.666-3.44-7.666-7.665 0-4.228 3.44-7.667 7.666-7.667 4.228 0 7.666 3.44 7.666 7.667 0 4.226-3.438 7.665-7.666 7.665m0-20.732c-7.204 0-13.066 5.862-13.066 13.067 0 7.203 5.862 13.065 13.066 13.065 7.205 0 13.066-5.862 13.066-13.065 0-7.205-5.86-13.067-13.066-13.067M104.773 140.728H87.919v-2.646c0-1.492-1.209-2.7-2.7-2.7s-2.7 1.208-2.7 2.7v2.646H69.433v-2.646c0-1.492-1.21-2.7-2.7-2.7-1.491 0-2.7 1.208-2.7 2.7v2.646h-35.34v-18.39H54.84c1.49 0 2.7-1.208 2.7-2.7v-11.312h27.679c1.491 0 2.7-1.209 2.7-2.7 0-1.49-1.209-2.7-2.7-2.7h-27.68V64.85h24.98v21.584c0 1.491 1.209 2.7 2.7 2.7s2.7-1.209 2.7-2.7V64.85h16.854v75.878zm2.7-81.278h-81.48c-1.492 0-2.7 1.209-2.7 2.7v15.308h-.038c-1.492 0-2.7 1.21-2.7 2.7 0 1.491 1.208 2.7 2.7 2.7h5.475c1.491 0 2.7-1.209 2.7-2.7 0-1.49-1.209-2.7-2.7-2.7h-.038V64.85H52.14v52.088H28.692v-11.456h.038c1.491 0 2.7-1.21 2.7-2.7 0-1.491-1.209-2.7-2.7-2.7h-5.475c-1.492 0-2.7 1.209-2.7 2.7 0 1.49 1.208 2.7 2.7 2.7h.037v37.946c0 1.491 1.21 2.7 2.7 2.7h38.04v2.646c0 1.491 1.21 2.7 2.7 2.7 1.492 0 2.7-1.209 2.7-2.7v-2.646H82.52v2.646c0 1.491 1.209 2.7 2.7 2.7s2.7-1.209 2.7-2.7v-2.646h19.554c1.491 0 2.7-1.209 2.7-2.7V62.15c0-1.491-1.209-2.7-2.7-2.7z" transform="translate(76 32)"/>
            <g fill="#E4002B">
                <path d="M0 0L50.4 32.4 0 64.8z" transform="translate(76 32) translate(234.9 66.6)"/>
            </g>
        </g>
    </g>
</svg>
