<svg width="52" height="37" viewBox="0 0 52 37" fill="none" xmlns="http://www.w3.org/2000/svg">
<path fill-rule="evenodd" clip-rule="evenodd" d="M30.34 9.789C30.043 9.403 29.461 9.403 29.165 9.789L28.358 10.841L24.929 7.44C24.633 7.053 24.051 7.053 23.755 7.44L18.689 14.044C18.316 14.531 18.663 15.235 19.277 15.235H33.017C33.63 15.235 33.977 14.531 33.603 14.045L30.34 9.788V9.789ZM28.609 7.827C29.2 7.827 29.679 7.347 29.679 6.757C29.679 6.165 29.2 5.686 28.609 5.686C28.017 5.686 27.539 6.165 27.539 6.756C27.539 7.348 28.017 7.827 28.609 7.827ZM42.137 13.77L42.127 13.773L42.072 13.791L42.046 13.801L41.998 13.821L41.969 13.835L41.929 13.858L41.898 13.878C41.886 13.885 41.875 13.893 41.863 13.902L41.832 13.925L41.801 13.952L41.772 13.978L41.742 14.01L41.718 14.035L41.688 14.075L41.67 14.097L41.64 14.144L41.628 14.164C41.618 14.181 41.61 14.198 41.602 14.216L41.592 14.236C41.585 14.253 41.578 14.27 41.572 14.289L41.562 14.311L41.548 14.361L41.54 14.391L41.532 14.437L41.526 14.474L41.523 14.514L41.52 14.559V14.575L41.518 21.343C37.155 20.295 31.668 19.711 26.061 19.711C20.454 19.711 15.144 20.295 10.781 21.343L10.761 14.575V14.559C10.761 14.544 10.759 14.529 10.758 14.515C10.758 14.501 10.756 14.488 10.755 14.475L10.749 14.437C10.747 14.421 10.744 14.407 10.74 14.391L10.733 14.361L10.718 14.311L10.71 14.289L10.689 14.235L10.679 14.215L10.653 14.164L10.641 14.144L10.611 14.097L10.594 14.075L10.563 14.035L10.539 14.01L10.509 13.978L10.48 13.952L10.45 13.925L10.418 13.902L10.383 13.877L10.353 13.858L10.312 13.835L10.283 13.822L10.235 13.8L10.209 13.791L10.155 13.773C10.151 13.773 10.148 13.771 10.145 13.77C5.532 12.531 2.181 11.31 2.181 9.281C2.181 7.231 5.018 5.457 9.104 4.232C13.62 2.878 19.735 2.072 26.149 2.072C32.563 2.072 38.656 2.878 43.172 4.232C47.258 5.457 50.117 6.922 50.117 9.149C50.117 11.31 46.749 12.531 42.137 13.77V13.77ZM50.309 27.326C50.307 27.622 50.219 27.912 50.054 28.157C49.694 28.688 48.842 29.447 47.847 30.038C46.441 30.874 45.032 31.56 43.02 31.904C42.787 31.944 42.575 31.764 42.575 31.528V15.073C42.575 15.073 44.328 14.576 47.437 13.408C48.898 12.858 50.017 11.838 50.283 11.611L50.309 27.326V27.326ZM9.704 31.322C9.704 31.558 9.504 31.744 9.27 31.727C6.203 31.505 3.015 29.453 2.122 28.205C1.982 28.009 1.907 27.773 1.906 27.532L1.806 11.303C2.072 11.53 2.81 12.769 5.368 13.629C7.278 14.271 9.704 14.901 9.704 14.901V31.322V31.322ZM26.14 1.022C13.953 1.022 1 3.87 1 9.144V27.055C1 28.408 1.861 29.66 3.56 30.775C5.035 31.745 7.104 32.59 9.712 33.291L9.732 33.295C9.752 33.3 9.774 33.304 9.796 33.307C9.808 33.31 9.821 33.312 9.834 33.313C9.854 33.316 9.876 33.317 9.897 33.317L9.928 33.32C9.956 33.32 9.984 33.318 10.012 33.315H10.017C10.041 33.312 10.065 33.308 10.087 33.303C10.094 33.303 10.1 33.301 10.106 33.3L10.162 33.285L10.183 33.279L10.24 33.259L10.255 33.252C10.278 33.242 10.3 33.232 10.322 33.22L10.34 33.21L10.386 33.181L10.406 33.167C10.421 33.157 10.435 33.147 10.448 33.136L10.466 33.121C10.481 33.109 10.495 33.096 10.508 33.083L10.521 33.071C10.538 33.054 10.553 33.037 10.568 33.019L10.572 33.015C10.588 32.995 10.604 32.974 10.619 32.952L10.622 32.948L10.657 32.889L10.67 32.863L10.69 32.823L10.704 32.788L10.716 32.755L10.729 32.715L10.733 32.702L10.736 32.686L10.748 32.632L10.753 32.599L10.758 32.552L10.76 32.51L10.761 32.486V22.389C15.062 21.311 20.491 20.719 26.141 20.719C31.791 20.719 37.219 21.311 41.52 22.389V32.506L41.523 32.556L41.527 32.594L41.534 32.635C41.536 32.651 41.54 32.666 41.544 32.681L41.548 32.702L41.553 32.718L41.563 32.751L41.579 32.793L41.59 32.821L41.614 32.871L41.623 32.887C41.66 32.957 41.707 33.018 41.761 33.073L41.769 33.08C41.784 33.095 41.8 33.11 41.817 33.123L41.83 33.134L41.878 33.17L41.893 33.18C41.91 33.192 41.929 33.203 41.947 33.213L41.957 33.219C41.98 33.232 42.003 33.243 42.027 33.253L42.036 33.256C42.056 33.265 42.078 33.272 42.099 33.279L42.117 33.285L42.177 33.3L42.192 33.303C42.216 33.308 42.24 33.312 42.265 33.314H42.269C42.296 33.318 42.324 33.32 42.352 33.32L42.382 33.318C42.404 33.317 42.426 33.316 42.448 33.313L42.484 33.308L42.55 33.295L42.569 33.291C45.176 32.591 47.246 31.744 48.721 30.776C50.42 29.66 51.281 28.408 51.281 27.056V9.143C51.281 3.868 38.328 1.021 26.141 1.021L26.14 1.022Z" fill="#EFEFEF" stroke="#EFEFEF" stroke-width="0.6"/>
<path fill-rule="evenodd" clip-rule="evenodd" d="M28.46 33.895C28.46 34.572 27.904 35.105 27.25 35.105H25.92C25.244 35.105 24.711 34.548 24.711 33.895V32.903C24.397 32.879 24.059 32.831 23.768 32.783V33.895C23.768 35.08 24.736 36.047 25.921 36.047H27.251C28.436 36.047 29.403 35.08 29.403 33.895V32.758C29.089 32.807 28.774 32.855 28.46 32.879V33.895V33.895ZM23.986 19.047C23.986 20.474 25.146 21.634 26.574 21.634C28 21.634 29.161 20.474 29.161 19.047C29.161 17.62 28.001 16.459 26.574 16.459C25.147 16.459 23.986 17.62 23.986 19.047Z" fill="#EFEFEF"/>
<path fill-rule="evenodd" clip-rule="evenodd" d="M23.744 31.066C22.849 30.92 22.027 30.727 21.326 30.461C20.383 30.098 19.754 29.663 19.512 29.228C19.488 29.179 19.464 29.107 19.44 29.058C19.416 28.986 19.416 28.938 19.416 28.865C19.416 28.309 20.141 27.705 21.326 27.245C21.81 27.051 22.342 26.906 22.922 26.785V28.381C22.922 29.034 23.236 29.663 23.744 30.074V31.066V31.066ZM34.336 27.486C34.312 27.438 34.264 27.414 34.216 27.414C34.166 27.414 34.118 27.414 34.094 27.462C33.466 28.042 31.168 29.422 30.781 29.687C30.733 29.736 30.709 29.784 30.709 29.857C30.733 29.929 30.781 29.977 30.854 29.977C31.024 30.002 31.217 30.002 31.386 30.026C31.579 30.05 32.854 29.977 32.101 30.436C31.386 30.82 29.911 30.969 29.427 31.041V30.074C29.935 29.663 30.249 29.034 30.249 28.381V24.101C30.249 22.916 29.282 21.949 28.097 21.949H25.098C23.913 21.949 22.946 22.916 22.946 24.101V25.794C20.238 26.326 18.472 27.462 18.472 28.841C18.472 29.058 18.521 29.276 18.618 29.494C19.318 31.09 22.487 32.202 26.525 32.202C29.717 32.202 32.377 31.501 33.683 30.412L35.255 30.485H35.279C35.303 30.485 35.352 30.461 35.376 30.437C35.4 30.413 35.424 30.364 35.4 30.316C35.255 29.542 34.433 27.656 34.336 27.486V27.486Z" fill="#EFEFEF" stroke="#EFEFEF" stroke-width="0.5"/>
<path fill-rule="evenodd" clip-rule="evenodd" d="M29.277 28.083C29.277 28.493 29.107 28.905 28.72 29.123C28.575 29.219 28.479 29.364 28.479 29.533V30.888C27.849 30.96 27.197 30.985 26.544 30.985C25.915 30.985 25.311 30.96 24.73 30.888V29.51C24.73 29.34 24.634 29.195 24.489 29.098C24.126 28.881 23.884 28.47 23.884 28.058V23.802C23.884 23.125 24.44 22.593 25.094 22.593H28.068C28.745 22.593 29.277 23.15 29.277 23.803V28.083V28.083ZM26.574 17.403C27.468 17.403 28.218 18.128 28.218 19.047C28.218 19.942 27.492 20.691 26.574 20.691C25.679 20.691 24.929 19.966 24.929 19.047C24.953 18.128 25.679 17.403 26.574 17.403Z" fill="#EC1D24"/>
</svg>
