<svg xmlns="http://www.w3.org/2000/svg" width="52" height="37" viewBox="0 0 52 37">
    <g fill="none" fill-rule="evenodd">
        <path fill="#EC1D24" stroke="#EC1D24" stroke-width=".6" d="M29.34 8.789c-.297-.386-.879-.386-1.175 0l-.807 1.052-3.429-3.401c-.296-.387-.878-.387-1.174 0l-5.066 6.604c-.373.487-.026 1.191.588 1.191h13.74c.613 0 .96-.704.586-1.19L29.34 8.788zm-1.731-1.962c.591 0 1.07-.48 1.07-1.07 0-.592-.479-1.071-1.07-1.071-.592 0-1.07.479-1.07 1.07 0 .592.478 1.071 1.07 1.071h0zm13.528 5.943l-.01.003-.055.018-.026.01-.048.02-.029.014-.04.023-.031.02c-.012.007-.023.015-.035.024l-.031.023-.031.027-.029.026-.03.032-.024.025-.03.04-.018.022-.03.047-.012.02c-.01.017-.018.034-.026.052l-.01.02c-.007.017-.014.034-.02.053l-.01.022-.014.05-.008.03-.008.046-.006.037-.003.04-.003.045v.016l-.002 6.768c-4.363-1.048-9.85-1.632-15.457-1.632-5.607 0-10.917.584-15.28 1.632l-.02-6.768v-.016c0-.015-.002-.03-.003-.044 0-.014-.002-.027-.003-.04l-.006-.038c-.002-.016-.005-.03-.009-.046l-.007-.03-.015-.05-.008-.022-.021-.054-.01-.02-.026-.051-.012-.02-.03-.047-.017-.022-.031-.04-.024-.025-.03-.032-.029-.026-.03-.027-.032-.023-.035-.025-.03-.019-.041-.023-.029-.013-.048-.022-.026-.009-.054-.018c-.004 0-.007-.002-.01-.003-4.613-1.239-7.964-2.46-7.964-4.489 0-2.05 2.837-3.824 6.923-5.049 4.516-1.354 10.631-2.16 17.045-2.16 6.414 0 12.507.806 17.023 2.16 4.086 1.225 6.945 2.69 6.945 4.917 0 2.161-3.368 3.382-7.98 4.621h0zm8.172 13.556c-.002.296-.09.586-.255.831-.36.531-1.212 1.29-2.207 1.881-1.406.836-2.815 1.522-4.827 1.866-.233.04-.445-.14-.445-.376V14.073s1.753-.497 4.862-1.665c1.461-.55 2.58-1.57 2.846-1.797l.026 15.715zM8.704 30.322c0 .236-.2.422-.434.405-3.067-.222-6.255-2.274-7.148-3.522-.14-.196-.215-.432-.216-.673l-.1-16.229c.266.227 1.004 1.466 3.562 2.326 1.91.642 4.336 1.272 4.336 1.272v16.421zM25.14.022C12.953.022 0 2.87 0 8.144v17.911c0 1.353.861 2.605 2.56 3.72 1.475.97 3.544 1.815 6.152 2.516l.02.004c.02.005.042.009.064.012.012.003.025.005.038.006.02.003.042.004.063.004l.031.003c.028 0 .056-.002.084-.005h.005c.024-.003.048-.007.07-.012.007 0 .013-.002.019-.003l.056-.015.021-.006.057-.02.015-.007c.023-.01.045-.02.067-.032l.018-.01.046-.029.02-.014c.015-.01.029-.02.042-.031l.018-.015c.015-.012.029-.025.042-.038l.013-.012c.017-.017.032-.034.047-.052l.004-.004c.016-.02.032-.041.047-.063l.003-.004.035-.059.013-.026.02-.04.014-.035.012-.033.013-.04.004-.013.003-.016.012-.054.005-.033.005-.047.002-.042.001-.024V21.389c4.301-1.078 9.73-1.67 15.38-1.67s11.078.592 15.379 1.67V31.506l.003.05.004.038.007.041c.002.016.006.031.01.046l.004.021.005.016.01.033.016.042.011.028.024.05.009.016c.037.07.084.131.138.186l.008.007c.015.015.031.03.048.043l.013.011.048.036.015.01c.017.012.036.023.054.033l.01.006c.023.013.046.024.07.034l.009.003c.02.009.042.016.063.023l.018.006.06.015.015.003c.024.005.048.009.073.011h.004c.027.004.055.006.083.006l.03-.002c.022-.001.044-.002.066-.005l.036-.005.066-.013.019-.004c2.607-.7 4.677-1.547 6.152-2.515 1.699-1.116 2.56-2.368 2.56-3.72V8.143c0-5.275-12.953-8.122-25.14-8.122h0z" transform="translate(1 1)"/>
        <path fill="#EC1D24" d="M27.46 32.895c0 .677-.556 1.21-1.21 1.21h-1.33c-.676 0-1.209-.557-1.209-1.21v-.992c-.314-.024-.652-.072-.943-.12v1.112c0 1.185.968 2.152 2.153 2.152h1.33c1.185 0 2.152-.967 2.152-2.152v-1.137c-.314.049-.629.097-.943.121v1.016zM22.986 18.047c0 1.427 1.16 2.587 2.588 2.587 1.426 0 2.587-1.16 2.587-2.587 0-1.427-1.16-2.588-2.587-2.588-1.427 0-2.588 1.161-2.588 2.588" transform="translate(1 1)"/>
        <path fill="#EC1D24" stroke="#EC1D24" stroke-width=".5" d="M22.744 30.066c-.895-.146-1.717-.339-2.418-.605-.943-.363-1.572-.798-1.814-1.233-.024-.049-.048-.121-.072-.17-.024-.072-.024-.12-.024-.193 0-.556.725-1.16 1.91-1.62.484-.194 1.016-.339 1.596-.46v1.596c0 .653.314 1.282.822 1.693v.992zm10.592-3.58c-.024-.048-.072-.072-.12-.072-.05 0-.098 0-.122.048-.628.58-2.926 1.96-3.313 2.225-.048.049-.072.097-.072.17.024.072.072.12.145.12.17.025.363.025.532.049.193.024 1.468-.049.715.41-.715.384-2.19.533-2.674.605v-.967c.508-.411.822-1.04.822-1.693v-4.28c0-1.185-.967-2.152-2.152-2.152h-2.999c-1.185 0-2.152.967-2.152 2.152v1.693c-2.708.532-4.474 1.668-4.474 3.047 0 .217.049.435.146.653.7 1.596 3.869 2.708 7.907 2.708 3.192 0 5.852-.701 7.158-1.79l1.572.073h.024c.024 0 .073-.024.097-.048.024-.024.048-.073.024-.121-.145-.774-.967-2.66-1.064-2.83z" transform="translate(1 1)"/>
        <path fill="#EFEFEF" d="M28.277 27.083c0 .41-.17.822-.557 1.04-.145.096-.241.241-.241.41v1.355c-.63.072-1.282.097-1.935.097-.629 0-1.233-.025-1.814-.097V28.51c0-.17-.096-.315-.241-.412-.363-.217-.605-.628-.605-1.04v-4.256c0-.677.556-1.209 1.21-1.209h2.974c.677 0 1.209.557 1.209 1.21v4.28zM25.574 16.403c.894 0 1.644.725 1.644 1.644 0 .895-.726 1.644-1.644 1.644-.895 0-1.645-.725-1.645-1.644.024-.919.75-1.644 1.645-1.644" transform="translate(1 1)"/>
    </g>
</svg>
